<svg width="260" height="56" viewBox="0 0 260 56" fill="none" xmlns="http://www.w3.org/2000/svg">
<rect width="260" height="56" rx="28" fill="#111111"/>
<g clip-path="url(#clip0_1037_20437)">
<path d="M93.499 16C92.2195 16.0885 90.724 16.9075 89.8525 17.974C89.0575 18.9415 88.4035 20.3785 88.6585 21.775C90.0565 21.8185 91.501 20.98 92.338 19.8955C93.121 18.886 93.7135 17.458 93.499 16Z" fill="white"/>
<path d="M98.5553 24.0522C97.3268 22.5117 95.6003 21.6177 93.9698 21.6177C91.8174 21.6177 90.9069 22.6482 89.4114 22.6482C87.8694 22.6482 86.6979 21.6207 84.8364 21.6207C83.0079 21.6207 81.0609 22.7382 79.8264 24.6492C78.0909 27.3401 78.3879 32.3996 81.2004 36.7091C82.2069 38.2511 83.5509 39.9851 85.3089 40.0001C86.8734 40.0151 87.3144 38.9966 89.4339 38.9861C91.5534 38.9741 91.9554 40.0136 93.5169 39.9971C95.2763 39.9836 96.6938 38.0621 97.7003 36.5201C98.4218 35.4146 98.6903 34.8581 99.2498 33.6101C95.1803 32.0606 94.5278 26.2736 98.5553 24.0522Z" fill="white"/>
</g>
<path d="M121.703 33.5L125.766 22.1875H127.75L131.828 33.5H130L128.969 30.5156H124.562L123.531 33.5H121.703ZM128.469 29.0781L126.797 24.25H126.719L125.055 29.0781H128.469ZM133.125 25.0156H134.75V26.3906H134.891C135.036 26.1354 135.195 25.9036 135.367 25.6953C135.544 25.487 135.794 25.3047 136.117 25.1484C136.445 24.987 136.849 24.9062 137.328 24.9062C138.016 24.9062 138.628 25.0807 139.164 25.4297C139.706 25.7786 140.128 26.2839 140.43 26.9453C140.737 27.6016 140.891 28.3802 140.891 29.2812C140.891 30.1719 140.74 30.9505 140.438 31.6172C140.135 32.2786 139.716 32.7865 139.18 33.1406C138.643 33.4896 138.031 33.6667 137.344 33.6719C136.672 33.6667 136.151 33.5182 135.781 33.2266C135.411 32.9349 135.115 32.5833 134.891 32.1719H134.797V36.6875H133.125V25.0156ZM134.766 29.25C134.766 29.849 134.852 30.375 135.023 30.8281C135.195 31.276 135.445 31.625 135.773 31.875C136.107 32.125 136.505 32.25 136.969 32.25C137.443 32.25 137.846 32.1198 138.18 31.8594C138.518 31.599 138.773 31.2448 138.945 30.7969C139.117 30.3438 139.203 29.8281 139.203 29.25C139.203 28.6823 139.117 28.1797 138.945 27.7422C138.779 27.2995 138.529 26.9531 138.195 26.7031C137.862 26.4531 137.453 26.3281 136.969 26.3281C136.5 26.3281 136.099 26.4479 135.766 26.6875C135.438 26.9219 135.188 27.2604 135.016 27.7031C134.849 28.1406 134.766 28.6562 134.766 29.25ZM142.547 25.0156H144.172V26.3906H144.312C144.458 26.1354 144.617 25.9036 144.789 25.6953C144.966 25.487 145.216 25.3047 145.539 25.1484C145.867 24.987 146.271 24.9062 146.75 24.9062C147.438 24.9062 148.049 25.0807 148.586 25.4297C149.128 25.7786 149.549 26.2839 149.852 26.9453C150.159 27.6016 150.312 28.3802 150.312 29.2812C150.312 30.1719 150.161 30.9505 149.859 31.6172C149.557 32.2786 149.138 32.7865 148.602 33.1406C148.065 33.4896 147.453 33.6667 146.766 33.6719C146.094 33.6667 145.573 33.5182 145.203 33.2266C144.833 32.9349 144.536 32.5833 144.312 32.1719H144.219V36.6875H142.547V25.0156ZM144.188 29.25C144.188 29.849 144.273 30.375 144.445 30.8281C144.617 31.276 144.867 31.625 145.195 31.875C145.529 32.125 145.927 32.25 146.391 32.25C146.865 32.25 147.268 32.1198 147.602 31.8594C147.94 31.599 148.195 31.2448 148.367 30.7969C148.539 30.3438 148.625 29.8281 148.625 29.25C148.625 28.6823 148.539 28.1797 148.367 27.7422C148.201 27.2995 147.951 26.9531 147.617 26.7031C147.284 26.4531 146.875 26.3281 146.391 26.3281C145.922 26.3281 145.521 26.4479 145.188 26.6875C144.859 26.9219 144.609 27.2604 144.438 27.7031C144.271 28.1406 144.188 28.6562 144.188 29.25ZM153.641 33.5H151.969V22.1875H153.641V33.5ZM159.328 33.6719C158.505 33.6719 157.789 33.4922 157.18 33.1328C156.57 32.7734 156.104 32.2656 155.781 31.6094C155.458 30.9531 155.297 30.1875 155.297 29.3125C155.297 28.4479 155.458 27.6823 155.781 27.0156C156.104 26.349 156.562 25.8307 157.156 25.4609C157.75 25.0911 158.438 24.9062 159.219 24.9062C159.901 24.9062 160.526 25.0547 161.094 25.3516C161.661 25.6484 162.117 26.1172 162.461 26.7578C162.81 27.3932 162.984 28.1979 162.984 29.1719V29.7656H156.953C156.969 30.2969 157.078 30.7526 157.281 31.1328C157.484 31.513 157.763 31.8021 158.117 32C158.471 32.1979 158.88 32.2969 159.344 32.2969C159.792 32.2969 160.172 32.2135 160.484 32.0469C160.802 31.875 161.036 31.651 161.188 31.375H162.875C162.75 31.8333 162.526 32.237 162.203 32.5859C161.88 32.9297 161.474 33.1979 160.984 33.3906C160.495 33.5781 159.943 33.6719 159.328 33.6719ZM161.344 28.5156C161.344 28.0885 161.255 27.7057 161.078 27.3672C160.906 27.0234 160.659 26.7578 160.336 26.5703C160.018 26.3776 159.651 26.2812 159.234 26.2812C158.802 26.2812 158.417 26.3828 158.078 26.5859C157.745 26.7839 157.482 27.0547 157.289 27.3984C157.096 27.7422 156.987 28.1146 156.961 28.5156H161.344ZM170.406 33.5H168.688V22.1875H170.406V33.5ZM172.703 33.5V22.1875H176.484C177.589 22.1875 178.539 22.4141 179.336 22.8672C180.138 23.3151 180.75 23.9635 181.172 24.8125C181.599 25.6562 181.812 26.6615 181.812 27.8281C181.812 29 181.596 30.013 181.164 30.8672C180.737 31.7161 180.117 32.3672 179.305 32.8203C178.492 33.2734 177.516 33.5 176.375 33.5H172.703ZM176.281 32C177.552 31.9948 178.508 31.6354 179.148 30.9219C179.789 30.2083 180.109 29.1771 180.109 27.8281C180.109 26.4844 179.792 25.4583 179.156 24.75C178.526 24.0417 177.599 23.6875 176.375 23.6875H174.422V32H176.281Z" fill="white"/>
<defs>
<clipPath id="clip0_1037_20437">
<rect width="24" height="24" fill="white" transform="translate(77 16)"/>
</clipPath>
</defs>
</svg>
