<svg width="260" height="56" viewBox="0 0 260 56" fill="none" xmlns="http://www.w3.org/2000/svg">
<rect x="0.5" y="0.5" width="259" height="55" rx="27.5" fill="white"/>
<rect x="0.5" y="0.5" width="259" height="55" rx="27.5" stroke="#999999"/>
<g clip-path="url(#clip0_1037_20459)">
<path d="M96.0188 28C96.0199 29.6517 95.4381 31.2508 94.3758 32.5156C93.3135 33.7804 91.8389 34.6298 90.2118 34.914C88.5847 35.1982 86.9095 34.8991 85.4814 34.0694C84.0532 33.2396 82.9637 31.9324 82.4047 30.3782L78.3901 33.5898C79.6384 35.9628 81.6459 37.849 84.0918 38.9474C86.5378 40.0458 89.2812 40.293 91.8841 39.6495C94.487 39.006 96.7993 37.5089 98.4516 35.3973C100.104 33.2856 101.001 30.6813 101 28" fill="#00AC47"/>
<path d="M96.0186 28C96.0176 29.1167 95.7499 30.217 95.2377 31.2092C94.7254 32.2015 93.9835 33.057 93.0737 33.7045L97.0427 36.8796C98.2872 35.7591 99.2825 34.3897 99.9642 32.86C100.646 31.3304 100.999 29.6746 101 28" fill="#4285F4"/>
<path d="M81.9811 28C81.9828 27.1886 82.1262 26.3838 82.4047 25.6218L78.3901 22.4102C77.4773 24.132 77 26.0511 77 28C77 29.9488 77.4773 31.8679 78.3901 33.5898L82.4047 30.3781C82.1262 29.6161 81.9828 28.8113 81.9811 28Z" fill="#FFBA00"/>
<path d="M89 20.9811C90.4851 20.9815 91.9314 21.4561 93.128 22.3358L96.8049 18.904C95.44 17.7271 93.8269 16.8737 92.086 16.4075C90.3452 15.9412 88.5215 15.8741 86.751 16.2112C84.9806 16.5483 83.3092 17.2809 81.8615 18.3542C80.4137 19.4276 79.2271 20.8141 78.3901 22.4102L82.4047 25.6218C82.8943 24.2645 83.79 23.091 84.97 22.2607C86.1501 21.4304 87.5571 20.9836 89 20.9811Z" fill="#EA4435"/>
<path d="M101 27.0941V27.9998L98.962 31.1696H89.4526V26.1885H100.094C100.334 26.1885 100.565 26.2839 100.734 26.4537C100.904 26.6236 101 26.8539 101 27.0941Z" fill="#4285F4"/>
</g>
<path d="M129.828 25.7656C129.615 25.0833 129.255 24.5521 128.75 24.1719C128.245 23.7917 127.625 23.6042 126.891 23.6094C126.25 23.6042 125.674 23.7682 125.164 24.1016C124.654 24.4297 124.25 24.9141 123.953 25.5547C123.661 26.1901 123.516 26.9531 123.516 27.8438C123.516 28.7344 123.661 29.5 123.953 30.1406C124.25 30.776 124.659 31.2604 125.18 31.5938C125.701 31.9219 126.297 32.0833 126.969 32.0781C127.568 32.0781 128.094 31.9583 128.547 31.7188C129 31.4792 129.352 31.138 129.602 30.6953C129.857 30.2474 129.99 29.724 130 29.125H127.219V27.7031H131.672V28.9844C131.672 29.9219 131.471 30.7448 131.07 31.4531C130.669 32.1562 130.112 32.7005 129.398 33.0859C128.685 33.4661 127.87 33.6562 126.953 33.6562C125.938 33.6562 125.042 33.4219 124.266 32.9531C123.49 32.4792 122.885 31.8047 122.453 30.9297C122.026 30.0495 121.812 29.0208 121.812 27.8438C121.812 26.6667 122.029 25.6406 122.461 24.7656C122.893 23.8854 123.492 23.2109 124.258 22.7422C125.029 22.2682 125.901 22.0312 126.875 22.0312C127.682 22.0312 128.419 22.1901 129.086 22.5078C129.758 22.8203 130.312 23.2604 130.75 23.8281C131.188 24.3906 131.469 25.0365 131.594 25.7656H129.828ZM137.109 33.6719C136.318 33.6719 135.62 33.4896 135.016 33.125C134.417 32.7604 133.953 32.25 133.625 31.5938C133.302 30.9323 133.141 30.1667 133.141 29.2969C133.141 28.4271 133.302 27.6615 133.625 27C133.953 26.3333 134.417 25.8177 135.016 25.4531C135.62 25.0885 136.318 24.9062 137.109 24.9062C137.896 24.9062 138.589 25.0885 139.188 25.4531C139.786 25.8177 140.247 26.3333 140.57 27C140.898 27.6615 141.062 28.4271 141.062 29.2969C141.062 30.1667 140.898 30.9323 140.57 31.5938C140.247 32.25 139.786 32.7604 139.188 33.125C138.589 33.4896 137.896 33.6719 137.109 33.6719ZM134.812 29.2969C134.812 29.8542 134.898 30.3594 135.07 30.8125C135.242 31.2604 135.5 31.6172 135.844 31.8828C136.188 32.1484 136.609 32.2812 137.109 32.2812C137.599 32.2812 138.013 32.1484 138.352 31.8828C138.695 31.6172 138.951 31.2604 139.117 30.8125C139.289 30.3594 139.375 29.8542 139.375 29.2969C139.375 28.7396 139.289 28.2344 139.117 27.7812C138.951 27.3229 138.695 26.9583 138.352 26.6875C138.013 26.4167 137.599 26.2812 137.109 26.2812C136.609 26.2812 136.188 26.4167 135.844 26.6875C135.5 26.9583 135.242 27.3229 135.07 27.7812C134.898 28.2344 134.812 28.7396 134.812 29.2969ZM146.297 33.6719C145.505 33.6719 144.807 33.4896 144.203 33.125C143.604 32.7604 143.141 32.25 142.812 31.5938C142.49 30.9323 142.328 30.1667 142.328 29.2969C142.328 28.4271 142.49 27.6615 142.812 27C143.141 26.3333 143.604 25.8177 144.203 25.4531C144.807 25.0885 145.505 24.9062 146.297 24.9062C147.083 24.9062 147.776 25.0885 148.375 25.4531C148.974 25.8177 149.435 26.3333 149.758 27C150.086 27.6615 150.25 28.4271 150.25 29.2969C150.25 30.1667 150.086 30.9323 149.758 31.5938C149.435 32.25 148.974 32.7604 148.375 33.125C147.776 33.4896 147.083 33.6719 146.297 33.6719ZM144 29.2969C144 29.8542 144.086 30.3594 144.258 30.8125C144.43 31.2604 144.688 31.6172 145.031 31.8828C145.375 32.1484 145.797 32.2812 146.297 32.2812C146.786 32.2812 147.201 32.1484 147.539 31.8828C147.883 31.6172 148.138 31.2604 148.305 30.8125C148.477 30.3594 148.562 29.8542 148.562 29.2969C148.562 28.7396 148.477 28.2344 148.305 27.7812C148.138 27.3229 147.883 26.9583 147.539 26.6875C147.201 26.4167 146.786 26.2812 146.297 26.2812C145.797 26.2812 145.375 26.4167 145.031 26.6875C144.688 26.9583 144.43 27.3229 144.258 27.7812C144.086 28.2344 144 28.7396 144 29.2969ZM155.453 36.8594C154.745 36.8594 154.12 36.7578 153.578 36.5547C153.036 36.3568 152.607 36.0677 152.289 35.6875C151.977 35.3073 151.797 34.8542 151.75 34.3281H153.453C153.531 34.7188 153.742 35.013 154.086 35.2109C154.435 35.4141 154.885 35.5156 155.438 35.5156C156.135 35.5156 156.674 35.362 157.055 35.0547C157.44 34.7474 157.635 34.2708 157.641 33.625V31.9531H157.531C157.318 32.3438 157.023 32.6797 156.648 32.9609C156.279 33.237 155.75 33.375 155.062 33.375C154.385 33.375 153.779 33.2109 153.242 32.8828C152.706 32.5547 152.284 32.0755 151.977 31.4453C151.669 30.8099 151.516 30.0521 151.516 29.1719C151.516 28.2917 151.669 27.5312 151.977 26.8906C152.284 26.2448 152.706 25.7526 153.242 25.4141C153.784 25.0755 154.396 24.9062 155.078 24.9062C155.562 24.9062 155.966 24.987 156.289 25.1484C156.617 25.3047 156.87 25.487 157.047 25.6953C157.224 25.8984 157.391 26.1302 157.547 26.3906H157.656V25.0156H159.281V33.6875C159.281 34.3906 159.117 34.9792 158.789 35.4531C158.466 35.9271 158.016 36.2786 157.438 36.5078C156.865 36.7422 156.203 36.8594 155.453 36.8594ZM153.219 29.2031C153.214 30.0573 153.404 30.737 153.789 31.2422C154.174 31.7422 154.724 31.9948 155.438 32C156.146 31.9948 156.693 31.7474 157.078 31.2578C157.464 30.7682 157.656 30.0833 157.656 29.2031C157.656 28.625 157.57 28.1198 157.398 27.6875C157.227 27.2552 156.974 26.9219 156.641 26.6875C156.307 26.4479 155.906 26.3281 155.438 26.3281C154.958 26.3281 154.552 26.4531 154.219 26.7031C153.885 26.9479 153.633 27.2891 153.461 27.7266C153.294 28.1589 153.214 28.651 153.219 29.2031ZM162.984 33.5H161.312V22.1875H162.984V33.5ZM168.672 33.6719C167.849 33.6719 167.133 33.4922 166.523 33.1328C165.914 32.7734 165.448 32.2656 165.125 31.6094C164.802 30.9531 164.641 30.1875 164.641 29.3125C164.641 28.4479 164.802 27.6823 165.125 27.0156C165.448 26.349 165.906 25.8307 166.5 25.4609C167.094 25.0911 167.781 24.9062 168.562 24.9062C169.245 24.9062 169.87 25.0547 170.438 25.3516C171.005 25.6484 171.461 26.1172 171.805 26.7578C172.154 27.3932 172.328 28.1979 172.328 29.1719V29.7656H166.297C166.312 30.2969 166.422 30.7526 166.625 31.1328C166.828 31.513 167.107 31.8021 167.461 32C167.815 32.1979 168.224 32.2969 168.688 32.2969C169.135 32.2969 169.516 32.2135 169.828 32.0469C170.146 31.875 170.38 31.651 170.531 31.375H172.219C172.094 31.8333 171.87 32.237 171.547 32.5859C171.224 32.9297 170.818 33.1979 170.328 33.3906C169.839 33.5781 169.286 33.6719 168.672 33.6719ZM170.688 28.5156C170.688 28.0885 170.599 27.7057 170.422 27.3672C170.25 27.0234 170.003 26.7578 169.68 26.5703C169.362 26.3776 168.995 26.2812 168.578 26.2812C168.146 26.2812 167.76 26.3828 167.422 26.5859C167.089 26.7839 166.826 27.0547 166.633 27.3984C166.44 27.7422 166.331 28.1146 166.305 28.5156H170.688Z" fill="#111111"/>
<defs>
<clipPath id="clip0_1037_20459">
<rect width="24" height="24" fill="white" transform="translate(77 16)"/>
</clipPath>
</defs>
</svg>
