<svg width="260" height="56" viewBox="0 0 260 56" fill="none" xmlns="http://www.w3.org/2000/svg">
<rect width="260" height="56" rx="28" fill="#FFEB3B"/>
<path d="M86.4625 25.1177L85.7709 27.0683H87.152L86.4625 25.1177ZM86.4625 25.1177L85.7709 27.0683H87.152L86.4625 25.1177ZM89 16.8115C82.3738 16.8115 77 21.0181 77 26.2086C77 29.5664 79.2451 32.5097 82.6247 34.1723C80.9469 39.9213 79.9607 40.2966 86.8684 35.4595C87.5745 35.559 88.2869 35.6086 89 35.6079C95.6262 35.6079 101 31.3992 101 26.2086C101 21.0181 95.6262 16.8115 89 16.8115ZM82.3651 29.4901C81.1673 29.4901 81.8742 27.8341 81.6735 24.749C81.2371 24.6748 79.9127 25.0457 79.9127 24.0748C79.9139 23.8958 79.9859 23.7245 80.1131 23.5986C80.2403 23.4726 80.4123 23.4022 80.5913 23.4028C83.1091 23.5817 84.8153 22.9337 84.8153 24.0748C84.8153 25.0632 83.5411 24.6661 83.0567 24.749C82.856 27.8232 83.5607 29.4901 82.3651 29.4901ZM88.8756 29.3853C87.8 29.8741 87.7738 28.7723 87.5164 28.2944H85.4065C85.1469 28.7832 85.1251 29.8828 84.0473 29.3853C83.2378 29.0144 84.5556 27.1315 85.5396 24.0792C85.6026 23.8842 85.7258 23.7143 85.8914 23.5937C86.057 23.4732 86.2566 23.4082 86.4615 23.4082C86.6663 23.4082 86.8659 23.4732 87.0315 23.5937C87.1971 23.7143 87.3203 23.8842 87.3833 24.0792C88.3869 27.1904 89.6895 29.0144 88.8756 29.3853ZM90.1542 29.3853C88.9956 29.3853 89.7004 27.821 89.4996 24.0835C89.4996 23.1737 90.9135 23.1759 90.9135 24.0835V28.1286C91.5811 28.2181 93.0473 27.7992 93.0473 28.7592C93.0385 29.7737 91.4633 29.261 90.1542 29.3897V29.3853ZM96.5556 29.1868L94.9324 27.0486L94.6924 27.2886V28.7919C94.6924 28.8828 94.6744 28.9728 94.6395 29.0567C94.6045 29.1407 94.5534 29.2169 94.4889 29.281C94.4244 29.345 94.3479 29.3957 94.2637 29.4301C94.1796 29.4645 94.0895 29.4819 93.9985 29.4813C92.7964 29.4813 93.5164 27.749 93.3069 24.0879C93.3081 23.9052 93.3814 23.7304 93.511 23.6016C93.6406 23.4729 93.8159 23.4006 93.9985 23.4006C95.0436 23.4006 94.592 24.8777 94.6902 25.5672C96.6538 23.693 96.6036 23.4944 97.0073 23.4944C97.5636 23.4944 97.904 24.1861 97.5331 24.5526L95.9556 26.1192L97.6596 28.3621C98.216 29.0886 97.1055 29.9177 96.5556 29.1912V29.1868ZM85.7709 27.0683H87.152L86.4625 25.1177L85.7709 27.0683ZM86.4625 25.1177L85.7709 27.0683H87.152L86.4625 25.1177ZM86.4625 25.1177L85.7709 27.0683H87.152L86.4625 25.1177Z" fill="#3E2723"/>
<path d="M129.141 22.25C129.135 23.7448 128.945 25.1068 128.57 26.3359C128.201 27.5599 127.547 28.7031 126.609 29.7656C125.672 30.8281 124.385 31.7604 122.75 32.5625L121.938 31.4531C123.172 30.849 124.185 30.1719 124.977 29.4219C125.768 28.6719 126.378 27.8411 126.805 26.9297L122.234 27.3594L122.016 26.0781L127.266 25.7266C127.464 25.0547 127.591 24.2969 127.648 23.4531H122.75V22.25H129.141ZM131.281 20.8281H132.766V26.4219H134.938V27.6406H132.766V34.8125H131.281V20.8281ZM142.969 22.25C142.964 23.7448 142.773 25.1068 142.398 26.3359C142.029 27.5599 141.375 28.7031 140.438 29.7656C139.5 30.8281 138.214 31.7604 136.578 32.5625L135.766 31.4531C137 30.849 138.013 30.1719 138.805 29.4219C139.596 28.6719 140.206 27.8411 140.633 26.9297L136.062 27.3594L135.844 26.0781L141.094 25.7266C141.292 25.0547 141.419 24.2969 141.477 23.4531H136.578V22.25H142.969ZM145.109 20.8281H146.594V26.4219H148.766V27.6406H146.594V34.8125H145.109V20.8281ZM155.891 21.6719C156.88 21.6719 157.768 21.8281 158.555 22.1406C159.341 22.4531 159.956 22.8906 160.398 23.4531C160.841 24.0104 161.062 24.6562 161.062 25.3906C161.062 26.0781 160.875 26.6901 160.5 27.2266C160.125 27.7578 159.602 28.1849 158.93 28.5078C158.263 28.8255 157.495 29.0208 156.625 29.0938V31.8438H162.328V33.0781H149.516V31.8438H155.156V29.0938C154.292 29.0208 153.523 28.8255 152.852 28.5078C152.185 28.1849 151.664 27.7552 151.289 27.2188C150.919 26.6823 150.734 26.0729 150.734 25.3906C150.734 24.6615 150.956 24.0156 151.398 23.4531C151.841 22.8906 152.453 22.4531 153.234 22.1406C154.016 21.8281 154.901 21.6719 155.891 21.6719ZM152.172 25.3906C152.172 25.9062 152.331 26.3568 152.648 26.7422C152.966 27.1276 153.406 27.4245 153.969 27.6328C154.531 27.8411 155.172 27.9479 155.891 27.9531C156.615 27.9479 157.258 27.8411 157.82 27.6328C158.383 27.4245 158.823 27.1276 159.141 26.7422C159.464 26.3568 159.625 25.9062 159.625 25.3906C159.625 24.8906 159.464 24.4505 159.141 24.0703C158.823 23.6901 158.38 23.3984 157.812 23.1953C157.25 22.987 156.609 22.8854 155.891 22.8906C155.177 22.8854 154.536 22.987 153.969 23.1953C153.406 23.3984 152.966 23.6927 152.648 24.0781C152.331 24.4583 152.172 24.8958 152.172 25.3906ZM176.109 29.5156H163.312V28.3281H168.969V27H164.984V21.1875H174.547V22.3594H166.484V23.5H174.188V24.625H166.484V25.8594H174.641V27H170.453V28.3281H176.109V29.5156ZM164.766 30.6406H174.484V34.8281H172.969V31.8281H164.766V30.6406Z" fill="#111111"/>
</svg>
