<svg width="260" height="56" viewBox="0 0 260 56" fill="none" xmlns="http://www.w3.org/2000/svg">
<rect width="260" height="56" rx="28" fill="#03C75A"/>
<path d="M77 17.2002V38.9214H85.3571V28.0541L92.6295 38.9214H101V17.2002H92.6295V28.0541L85.3571 17.2002H77Z" fill="#EBFFF4"/>
<path d="M123.898 30.0625C124.701 30.0469 125.443 30.0078 126.125 29.9453C126.812 29.8828 127.518 29.776 128.242 29.625L128.445 30.8906C127.602 31.0677 126.784 31.1875 125.992 31.25C125.201 31.3125 124.315 31.3438 123.336 31.3438H122.414V22.2812H123.898V30.0625ZM126.336 25.4375H129.398V21.1406H130.805V34.1406H129.398V26.6562H126.336V25.4375ZM132.398 20.8281H133.805V34.8281H132.398V20.8281ZM147.195 34.8594H145.711V20.8281H147.195V34.8594ZM136.086 26.7812C136.086 25.8021 136.24 24.9427 136.547 24.2031C136.854 23.4583 137.281 22.8854 137.828 22.4844C138.38 22.0781 139.008 21.875 139.711 21.875C140.404 21.875 141.023 22.0781 141.57 22.4844C142.117 22.8854 142.544 23.4583 142.852 24.2031C143.164 24.9427 143.32 25.8021 143.32 26.7812C143.32 27.7708 143.164 28.638 142.852 29.3828C142.544 30.1276 142.117 30.7005 141.57 31.1016C141.023 31.5026 140.404 31.7031 139.711 31.7031C139.008 31.7031 138.38 31.5026 137.828 31.1016C137.281 30.7005 136.854 30.1276 136.547 29.3828C136.24 28.638 136.086 27.7708 136.086 26.7812ZM137.523 26.7812C137.523 27.5104 137.615 28.1458 137.797 28.6875C137.979 29.2292 138.234 29.6458 138.562 29.9375C138.896 30.2292 139.279 30.375 139.711 30.375C140.138 30.375 140.516 30.2292 140.844 29.9375C141.172 29.6458 141.427 29.2292 141.609 28.6875C141.792 28.1458 141.883 27.5104 141.883 26.7812C141.883 26.0625 141.792 25.4349 141.609 24.8984C141.427 24.3568 141.172 23.9401 140.844 23.6484C140.516 23.3516 140.138 23.2031 139.711 23.2031C139.279 23.2031 138.896 23.3516 138.562 23.6484C138.234 23.9401 137.979 24.3568 137.797 24.8984C137.615 25.4349 137.523 26.0625 137.523 26.7812ZM161.102 34.8594H159.633V27.1562H156.539V31.3906H149.977V21.9062H151.477V25.4844H155.086V21.9062H156.539V25.9375H159.633V20.8281H161.102V34.8594ZM155.086 30.1719V26.6562H151.477V30.1719H155.086Z" fill="white"/>
</svg>
