<svg width="220" height="186" viewBox="0 0 220 186" fill="none" xmlns="http://www.w3.org/2000/svg">
<path fill-rule="evenodd" clip-rule="evenodd" d="M146.073 26.5V69.697H86.1515C85.9717 69.697 85.7924 69.7003 85.6139 69.7066V2.93255H138.848C142.832 2.93255 146.073 6.1738 146.073 10.158V25.7001V26.5ZM149.006 25.7001V34.6339V89.842C149.006 95.443 144.449 100 138.848 100H120.503H116.422H86.1515C77.7971 100 71 93.2029 71 84.8485V40.9334V27.8592V12.7566C71 5.72258 76.7226 0 83.7566 0H138.848C144.449 0 149.006 4.55699 149.006 10.158V25.7001ZM73.9326 27.8592V12.7566C73.9326 7.70283 77.7683 3.52845 82.6813 2.9912V70.0979C79.1175 70.9363 76.0348 73.0362 73.9326 75.8987V51.3331V27.8592ZM116.422 97.0675H129.329H138.848C142.027 97.0675 144.733 95.0039 145.697 92.1458H84.9785C80.9359 92.1458 77.6471 88.8571 77.6471 84.8145C77.6471 80.7719 80.9359 77.4831 84.9785 77.4831H146.073V72.6295H86.1515C79.4139 72.6295 73.9326 78.1109 73.9326 84.8485C73.9326 91.5861 79.4139 97.0675 86.1515 97.0675H116.422ZM84.9785 80.4156C82.5531 80.4156 80.5797 82.3891 80.5797 84.8145C80.5797 87.2399 82.5531 89.2133 84.9785 89.2133H146.073V80.4156H84.9785ZM119.157 50.3273C118.143 49.9683 117.102 49.5995 115.503 49.5995C113.904 49.5995 112.863 49.9683 111.849 50.3274C110.887 50.6682 109.949 51.0002 108.583 50.9999C105.778 50.9999 104.033 49.1325 104.033 45.864C104.033 43.6557 105.711 42.1402 107.3 40.7055C108.063 40.0164 108.805 39.3459 109.331 38.6263C109.571 38.2981 109.8 37.9636 110.027 37.6317C111.334 35.7205 112.581 33.8982 115.502 33.8982C118.423 33.8982 119.67 35.7201 120.977 37.6311L120.977 37.6314C121.204 37.9633 121.433 38.298 121.673 38.6263C122.199 39.3461 122.942 40.0168 123.705 40.7061C125.294 42.1408 126.972 43.6562 126.972 45.864C126.972 49.1325 125.227 50.9999 122.422 50.9999C121.056 50.9999 120.119 50.668 119.157 50.3273ZM121.613 23.0501C123.545 23.4175 124.614 25.7068 124.002 28.1649C123.389 30.6225 121.327 32.3172 119.396 31.9503C117.464 31.5829 116.394 29.2936 117.006 26.8355C117.619 24.3784 119.681 22.6832 121.613 23.0501ZM106.172 28.1649C105.559 25.7068 106.629 23.4175 108.56 23.0501C110.492 22.6832 112.554 24.3784 113.167 26.8355C113.779 29.2936 112.71 31.5829 110.778 31.9503C108.847 32.3172 106.784 30.6225 106.172 28.1649ZM101.931 30.5473C100.1 30.8948 99.0861 33.0655 99.6664 35.3948C100.247 37.7247 102.202 39.3313 104.034 38.9832C105.865 38.6357 106.879 36.4644 106.298 34.1351C105.717 31.8058 103.762 30.1992 101.931 30.5473ZM131.339 35.3948C131.92 33.0655 130.906 30.8948 129.074 30.5473C127.244 30.1992 125.288 31.8058 124.708 34.1351C124.127 36.4644 125.141 38.6357 126.972 38.9832C128.803 39.3313 130.759 37.7247 131.339 35.3948Z" fill="white"/>
<path d="M20.3984 142.773H11.8203V149.992H9.64062V142.773H1.17969V140.922H20.3984V142.773ZM3.26562 134.453C3.26562 133.516 3.57812 132.695 4.20312 131.992C4.83594 131.281 5.71484 130.738 6.83984 130.363C7.96484 129.98 9.26562 129.789 10.7422 129.789C12.2188 129.789 13.5195 129.98 14.6445 130.363C15.7773 130.738 16.6562 131.281 17.2812 131.992C17.9062 132.695 18.2188 133.516 18.2188 134.453C18.2188 135.383 17.9062 136.195 17.2812 136.891C16.6562 137.586 15.7773 138.125 14.6445 138.508C13.5195 138.883 12.2188 139.07 10.7422 139.07C9.27344 139.07 7.97266 138.883 6.83984 138.508C5.71484 138.125 4.83594 137.586 4.20312 136.891C3.57812 136.195 3.26562 135.383 3.26562 134.453ZM5.5625 134.453C5.5625 135.031 5.77344 135.535 6.19531 135.965C6.625 136.387 7.23047 136.715 8.01172 136.949C8.80078 137.176 9.71094 137.289 10.7422 137.289C11.7812 137.289 12.6914 137.176 13.4727 136.949C14.2539 136.715 14.8594 136.387 15.2891 135.965C15.7266 135.535 15.9453 135.031 15.9453 134.453C15.9453 133.867 15.7266 133.359 15.2891 132.93C14.8594 132.5 14.2539 132.168 13.4727 131.934C12.6914 131.691 11.7812 131.57 10.7422 131.57C9.71094 131.57 8.80078 131.691 8.01172 131.934C7.23047 132.168 6.625 132.5 6.19531 132.93C5.77344 133.359 5.5625 133.867 5.5625 134.453ZM39.3828 150.039H37.1562V128.992H39.3828V150.039ZM23.1172 130.891H32.9609V138.555H25.4141V143.148C27.2344 143.141 28.918 143.082 30.4648 142.973C32.0195 142.863 33.6328 142.672 35.3047 142.398L35.5156 144.227C33.7734 144.516 32.082 144.715 30.4414 144.824C28.8008 144.934 26.9609 144.992 24.9219 145H23.1406V136.773H30.6875V132.695H23.1172V130.891ZM50.4688 132.344C50.4688 133.211 50.6836 134.043 51.1133 134.84C51.543 135.637 52.1562 136.34 52.9531 136.949C53.75 137.551 54.6797 138.008 55.7422 138.32L54.6172 140.055C53.4062 139.68 52.3477 139.113 51.4414 138.355C50.5352 137.59 49.8398 136.688 49.3555 135.648C48.8789 136.766 48.1836 137.738 47.2695 138.566C46.3555 139.395 45.2734 140.016 44.0234 140.43L42.8984 138.672C43.9688 138.344 44.9023 137.859 45.6992 137.219C46.5039 136.57 47.125 135.824 47.5625 134.98C48 134.137 48.2188 133.258 48.2188 132.344V132.109H43.5078V130.305H55.0859V132.109H50.4688V132.344ZM46.3672 141.344H48.5469V143.688H57.8984V141.344H60.1016V149.734H46.3672V141.344ZM57.8984 147.93V145.445H48.5469V147.93H57.8984ZM57.875 128.992H60.1016V140.359H57.875V128.992ZM78.1719 132.438H72.3828V138.344C73.8047 138.336 75.0273 138.293 76.0508 138.215C77.082 138.129 78.125 137.977 79.1797 137.758L79.3906 139.586C78.1797 139.82 76.9961 139.98 75.8398 140.066C74.6914 140.145 73.2656 140.188 71.5625 140.195H70.1797V130.633H78.1719V132.438ZM73.0625 146.008C73.0547 145.18 73.332 144.469 73.8945 143.875C74.4648 143.281 75.2852 142.828 76.3555 142.516C77.4258 142.203 78.6953 142.047 80.1641 142.047C81.6328 142.047 82.9023 142.203 83.9727 142.516C85.043 142.828 85.8672 143.281 86.4453 143.875C87.0234 144.469 87.3125 145.18 87.3125 146.008C87.3125 146.836 87.0234 147.543 86.4453 148.129C85.8672 148.723 85.043 149.172 83.9727 149.477C82.9023 149.789 81.6328 149.945 80.1641 149.945C78.6953 149.945 77.4258 149.789 76.3555 149.477C75.2852 149.172 74.4648 148.723 73.8945 148.129C73.332 147.543 73.0547 146.836 73.0625 146.008ZM75.2656 146.008C75.2578 146.461 75.4453 146.852 75.8281 147.18C76.2109 147.508 76.7656 147.758 77.4922 147.93C78.2188 148.102 79.0859 148.188 80.0938 148.188C81.6719 148.188 82.8945 148 83.7617 147.625C84.6367 147.242 85.0781 146.703 85.0859 146.008C85.0781 145.297 84.6445 144.754 83.7852 144.379C82.9336 143.996 81.7266 143.805 80.1641 143.805C78.6016 143.805 77.3906 143.996 76.5312 144.379C75.6797 144.754 75.2578 145.297 75.2656 146.008ZM80.4219 129.391H82.5078V134.406H85.0859V129.016H87.1953V141.859H85.0859V136.234H82.5078V141.203H80.4219V129.391ZM98.9141 132.438H93.125V138.344C94.5469 138.336 95.7695 138.293 96.793 138.215C97.8242 138.129 98.8672 137.977 99.9219 137.758L100.133 139.586C98.9219 139.82 97.7383 139.98 96.582 140.066C95.4336 140.145 94.0078 140.188 92.3047 140.195H90.9219V130.633H98.9141V132.438ZM93.8047 146.008C93.7969 145.18 94.0742 144.469 94.6367 143.875C95.207 143.281 96.0273 142.828 97.0977 142.516C98.168 142.203 99.4375 142.047 100.906 142.047C102.375 142.047 103.645 142.203 104.715 142.516C105.785 142.828 106.609 143.281 107.188 143.875C107.766 144.469 108.055 145.18 108.055 146.008C108.055 146.836 107.766 147.543 107.188 148.129C106.609 148.723 105.785 149.172 104.715 149.477C103.645 149.789 102.375 149.945 100.906 149.945C99.4375 149.945 98.168 149.789 97.0977 149.477C96.0273 149.172 95.207 148.723 94.6367 148.129C94.0742 147.543 93.7969 146.836 93.8047 146.008ZM96.0078 146.008C96 146.461 96.1875 146.852 96.5703 147.18C96.9531 147.508 97.5078 147.758 98.2344 147.93C98.9609 148.102 99.8281 148.188 100.836 148.188C102.414 148.188 103.637 148 104.504 147.625C105.379 147.242 105.82 146.703 105.828 146.008C105.82 145.297 105.387 144.754 104.527 144.379C103.676 143.996 102.469 143.805 100.906 143.805C99.3438 143.805 98.1328 143.996 97.2734 144.379C96.4219 144.754 96 145.297 96.0078 146.008ZM101.164 129.391H103.25V134.406H105.828V129.016H107.938V141.859H105.828V136.234H103.25V141.203H101.164V129.391ZM128.164 150.039H125.938V128.992H128.164V150.039ZM111.5 137.922C111.5 136.453 111.73 135.164 112.191 134.055C112.652 132.938 113.293 132.078 114.113 131.477C114.941 130.867 115.883 130.562 116.938 130.562C117.977 130.562 118.906 130.867 119.727 131.477C120.547 132.078 121.188 132.938 121.648 134.055C122.117 135.164 122.352 136.453 122.352 137.922C122.352 139.406 122.117 140.707 121.648 141.824C121.188 142.941 120.547 143.801 119.727 144.402C118.906 145.004 117.977 145.305 116.938 145.305C115.883 145.305 114.941 145.004 114.113 144.402C113.293 143.801 112.652 142.941 112.191 141.824C111.73 140.707 111.5 139.406 111.5 137.922ZM113.656 137.922C113.656 139.016 113.793 139.969 114.066 140.781C114.34 141.594 114.723 142.219 115.215 142.656C115.715 143.094 116.289 143.312 116.938 143.312C117.578 143.312 118.145 143.094 118.637 142.656C119.129 142.219 119.512 141.594 119.785 140.781C120.059 139.969 120.195 139.016 120.195 137.922C120.195 136.844 120.059 135.902 119.785 135.098C119.512 134.285 119.129 133.66 118.637 133.223C118.145 132.777 117.578 132.555 116.938 132.555C116.289 132.555 115.715 132.777 115.215 133.223C114.723 133.66 114.34 134.285 114.066 135.098C113.793 135.902 113.656 136.844 113.656 137.922ZM138.359 130.492C139.453 130.492 140.434 130.703 141.301 131.125C142.168 131.539 142.848 132.129 143.34 132.895C143.832 133.652 144.078 134.516 144.078 135.484C144.078 136.453 143.832 137.32 143.34 138.086C142.848 138.844 142.168 139.438 141.301 139.867C140.434 140.289 139.453 140.5 138.359 140.5C137.266 140.5 136.281 140.289 135.406 139.867C134.539 139.438 133.859 138.844 133.367 138.086C132.883 137.32 132.641 136.453 132.641 135.484C132.641 134.516 132.883 133.652 133.367 132.895C133.859 132.137 134.539 131.547 135.406 131.125C136.281 130.703 137.266 130.492 138.359 130.492ZM131.633 143.664C134.273 143.664 136.711 143.621 138.945 143.535C141.18 143.449 143.312 143.258 145.344 142.961L145.508 144.578C143.414 144.984 141.285 145.242 139.121 145.352C136.965 145.461 134.562 145.516 131.914 145.516L131.633 143.664ZM134.844 135.484C134.836 136.094 134.98 136.633 135.277 137.102C135.582 137.562 136 137.922 136.531 138.18C137.07 138.43 137.68 138.555 138.359 138.555C139.039 138.555 139.645 138.43 140.176 138.18C140.715 137.922 141.137 137.562 141.441 137.102C141.746 136.633 141.898 136.094 141.898 135.484C141.898 134.883 141.746 134.352 141.441 133.891C141.137 133.422 140.715 133.059 140.176 132.801C139.637 132.543 139.031 132.414 138.359 132.414C137.68 132.414 137.07 132.543 136.531 132.801C136 133.059 135.582 133.422 135.277 133.891C134.98 134.352 134.836 134.883 134.844 135.484ZM146.656 128.992H148.883V150.039H146.656V128.992ZM164.07 129.695C165.117 129.703 166.059 129.91 166.895 130.316C167.73 130.715 168.387 131.27 168.863 131.98C169.34 132.691 169.578 133.5 169.578 134.406C169.578 135.312 169.34 136.121 168.863 136.832C168.387 137.543 167.73 138.098 166.895 138.496C166.059 138.895 165.117 139.094 164.07 139.094C163.016 139.094 162.066 138.895 161.223 138.496C160.387 138.098 159.73 137.543 159.254 136.832C158.777 136.121 158.539 135.312 158.539 134.406C158.539 133.5 158.777 132.691 159.254 131.98C159.73 131.27 160.387 130.715 161.223 130.316C162.066 129.91 163.016 129.703 164.07 129.695ZM160.719 134.406C160.719 134.977 160.859 135.48 161.141 135.918C161.43 136.348 161.828 136.684 162.336 136.926C162.852 137.168 163.43 137.289 164.07 137.289C164.711 137.289 165.285 137.168 165.793 136.926C166.301 136.684 166.699 136.348 166.988 135.918C167.277 135.48 167.422 134.977 167.422 134.406C167.422 133.844 167.277 133.348 166.988 132.918C166.699 132.48 166.297 132.145 165.781 131.91C165.273 131.676 164.703 131.562 164.07 131.57C163.43 131.562 162.852 131.676 162.336 131.91C161.828 132.145 161.43 132.48 161.141 132.918C160.859 133.348 160.719 133.844 160.719 134.406ZM161.727 140.641H175.531V145.938H163.953V147.953H176.234V149.734H161.797V144.273H173.328V142.422H161.727V140.641ZM173.305 128.992H175.531V139.68H173.305V128.992ZM196.32 149.992H194.07V128.992H196.32V149.992ZM179.07 144.367C181.82 143.055 183.91 141.457 185.34 139.574C186.77 137.691 187.594 135.508 187.812 133.023H180.078V131.242H190.062C190.062 134.492 189.285 137.379 187.73 139.902C186.184 142.426 183.688 144.516 180.242 146.172L179.07 144.367ZM206.938 132.859C206.93 133.75 207.125 134.602 207.523 135.414C207.93 136.219 208.512 136.934 209.27 137.559C210.027 138.176 210.93 138.648 211.977 138.977L210.922 140.711C209.742 140.336 208.719 139.773 207.852 139.023C206.992 138.273 206.328 137.391 205.859 136.375C205.398 137.539 204.715 138.555 203.809 139.422C202.902 140.281 201.828 140.93 200.586 141.367L199.438 139.586C200.508 139.234 201.441 138.719 202.238 138.039C203.035 137.359 203.645 136.574 204.066 135.684C204.488 134.793 204.703 133.859 204.711 132.883V132.297H200.094V130.492H211.461V132.297H206.938V132.859ZM202.273 146.008C202.273 145.195 202.555 144.496 203.117 143.91C203.688 143.324 204.5 142.879 205.555 142.574C206.617 142.27 207.875 142.117 209.328 142.117C210.766 142.117 212.004 142.27 213.043 142.574C214.09 142.879 214.891 143.324 215.445 143.91C216.008 144.496 216.289 145.195 216.289 146.008C216.289 146.836 216.008 147.543 215.445 148.129C214.891 148.723 214.09 149.172 213.043 149.477C212.004 149.789 210.766 149.945 209.328 149.945C207.875 149.945 206.617 149.789 205.555 149.477C204.5 149.172 203.688 148.723 203.117 148.129C202.555 147.543 202.273 146.836 202.273 146.008ZM204.5 146.008C204.492 146.703 204.906 147.242 205.742 147.625C206.586 148 207.758 148.188 209.258 148.188C210.797 148.188 211.992 148 212.844 147.625C213.695 147.25 214.117 146.711 214.109 146.008C214.117 145.328 213.707 144.805 212.879 144.438C212.051 144.062 210.891 143.875 209.398 143.875C207.844 143.875 206.637 144.059 205.777 144.426C204.918 144.793 204.492 145.32 204.5 146.008ZM213.875 128.992H216.102V134.195H219.148V136.023H216.102V141.602H213.875V128.992ZM23.0469 180.992H20.7969V159.992H23.0469V180.992ZM5.79688 175.367C8.54688 174.055 10.6367 172.457 12.0664 170.574C13.4961 168.691 14.3203 166.508 14.5391 164.023H6.80469V162.242H16.7891C16.7891 165.492 16.0117 168.379 14.457 170.902C12.9102 173.426 10.4141 175.516 6.96875 177.172L5.79688 175.367ZM45.5234 173.258H26.3047V171.453H34.8125V169.461H28.7656V164.117H40.8828V162.242H28.7188V160.484H43.1094V165.758H30.9688V167.727H43.5312V169.461H37.0156V171.453H45.5234V173.258ZM28.4609 174.734H43.2266V180.828H40.9766V176.516H28.4609V174.734ZM63.5703 164.844H66.6406V166.672H63.5703V171.477H61.3438V159.922H63.5703V164.844ZM47.0938 161.773H52.25V159.805H54.4766V161.773H59.6094V163.531H47.0938V161.773ZM48.2422 167.773C48.2422 167.078 48.4492 166.473 48.8633 165.957C49.2852 165.434 49.8828 165.031 50.6562 164.75C51.4297 164.469 52.3281 164.328 53.3516 164.328C54.375 164.328 55.2695 164.469 56.0352 164.75C56.8008 165.031 57.3906 165.43 57.8047 165.945C58.2266 166.461 58.4375 167.07 58.4375 167.773C58.4375 168.477 58.2266 169.086 57.8047 169.602C57.3906 170.117 56.8008 170.512 56.0352 170.785C55.2695 171.059 54.375 171.195 53.3516 171.195C52.3281 171.195 51.4297 171.059 50.6562 170.785C49.8828 170.512 49.2852 170.117 48.8633 169.602C48.4492 169.086 48.2422 168.477 48.2422 167.773ZM50 172.461H63.5703V177.336H52.2266V179.094H64.2969V180.781H50.0469V175.766H61.3672V174.125H50V172.461ZM50.3984 167.773C50.3906 168.336 50.6523 168.777 51.1836 169.098C51.7148 169.418 52.4375 169.578 53.3516 169.578C54.2578 169.578 54.9805 169.418 55.5195 169.098C56.0664 168.777 56.3438 168.336 56.3516 167.773C56.3438 167.211 56.0664 166.766 55.5195 166.438C54.9805 166.102 54.2578 165.93 53.3516 165.922C52.4375 165.93 51.7148 166.102 51.1836 166.438C50.6523 166.766 50.3906 167.211 50.3984 167.773ZM91.1094 162.781H84.7109C84.75 163.531 85.082 164.242 85.707 164.914C86.3398 165.586 87.1836 166.156 88.2383 166.625C89.3008 167.094 90.4766 167.406 91.7656 167.562L90.9219 169.32C89.7266 169.164 88.6133 168.883 87.582 168.477C86.5586 168.062 85.6719 167.543 84.9219 166.918C84.1719 166.293 83.6133 165.594 83.2461 164.82C82.8711 165.594 82.3086 166.293 81.5586 166.918C80.8086 167.543 79.9219 168.062 78.8984 168.477C77.875 168.883 76.7656 169.164 75.5703 169.32L74.7266 167.562C76.0156 167.406 77.1875 167.094 78.2422 166.625C79.3047 166.156 80.1484 165.586 80.7734 164.914C81.3984 164.242 81.7266 163.531 81.7578 162.781H75.4297V161H91.1094V162.781ZM73.6484 170.68H92.8672V172.484H84.5234V176.562H82.3203V172.484H73.6484V170.68ZM76.0391 174.547H78.2656V178.742H90.7344V180.547H76.0391V174.547ZM111.805 181.039H109.578V159.992H111.805V181.039ZM95.5859 161.75H97.8125V167.141H103.461V161.75H105.664V176H95.5859V161.75ZM103.461 174.172V168.898H97.8125V174.172H103.461ZM133.531 170.703H129.102V174.594C131.273 174.5 133.188 174.359 134.844 174.172L135.008 175.812C132.945 176.117 130.816 176.32 128.621 176.422C126.426 176.523 124.023 176.578 121.414 176.586L121.133 174.734C123.281 174.734 125.195 174.715 126.875 174.676V170.703H122.656V161.938H133.438V163.742H124.859V168.875H133.531V170.703ZM136.156 159.992H138.383V181.039H136.156V159.992ZM159.266 172.227H157.039V168.266H153.078V166.461H157.039V164.188H153.078V162.383H157.039V159.992H159.266V172.227ZM141.734 170.211C142.812 169.805 143.742 169.234 144.523 168.5C145.305 167.758 145.898 166.902 146.305 165.934C146.719 164.965 146.93 163.945 146.938 162.875V160.766H149.141V162.875C149.141 163.859 149.34 164.816 149.738 165.746C150.145 166.676 150.727 167.504 151.484 168.23C152.25 168.949 153.148 169.5 154.18 169.883L152.914 171.641C151.797 171.203 150.824 170.562 149.996 169.719C149.168 168.875 148.523 167.895 148.062 166.777C147.602 167.98 146.938 169.031 146.07 169.93C145.203 170.82 144.172 171.5 142.977 171.969L141.734 170.211ZM142.93 179.047C143.797 178.742 144.539 178.316 145.156 177.77C145.781 177.215 146.254 176.598 146.574 175.918C146.902 175.23 147.07 174.539 147.078 173.844V172.977H149.211V173.844C149.211 174.797 149.449 175.711 149.926 176.586C150.402 177.453 151.098 178.168 152.012 178.73C152.629 178.332 153.148 177.855 153.57 177.301C154 176.746 154.32 176.168 154.531 175.566C154.742 174.965 154.852 174.391 154.859 173.844V172.977H157.039V173.844C157.039 174.578 157.199 175.289 157.52 175.977C157.84 176.664 158.316 177.277 158.949 177.816C159.59 178.355 160.359 178.766 161.258 179.047L160.109 180.711C159.102 180.352 158.242 179.836 157.531 179.164C156.828 178.5 156.289 177.723 155.914 176.832C155.555 177.73 155.051 178.535 154.402 179.246C153.762 179.965 152.977 180.516 152.047 180.898C151.086 180.531 150.277 180 149.621 179.305C148.965 178.617 148.465 177.82 148.121 176.914C147.723 177.773 147.176 178.531 146.48 179.188C145.793 179.844 144.969 180.352 144.008 180.711L142.93 179.047ZM182.117 170.07H178.859V180.969H176.633V159.992H178.859V168.242H182.117V170.07ZM163.297 162.031H165.5V173.844C168.711 173.828 171.82 173.516 174.828 172.906L175.086 174.781C173.383 175.117 171.707 175.355 170.059 175.496C168.41 175.637 166.734 175.703 165.031 175.695H163.297V162.031ZM202.461 178.367H183.242V176.516H187.836V171.031C186.953 170.547 186.27 169.934 185.785 169.191C185.301 168.449 185.062 167.617 185.07 166.695C185.07 165.609 185.398 164.652 186.055 163.824C186.711 162.996 187.625 162.355 188.797 161.902C189.977 161.441 191.312 161.211 192.805 161.211C194.297 161.211 195.633 161.441 196.812 161.902C197.992 162.355 198.91 162.996 199.566 163.824C200.23 164.652 200.562 165.609 200.562 166.695C200.562 167.609 200.328 168.434 199.859 169.168C199.391 169.895 198.727 170.5 197.867 170.984V176.516H202.461V178.367ZM187.227 166.695C187.227 167.438 187.461 168.09 187.93 168.652C188.398 169.215 189.055 169.652 189.898 169.965C190.742 170.27 191.711 170.422 192.805 170.422C193.891 170.422 194.855 170.266 195.699 169.953C196.551 169.641 197.215 169.207 197.691 168.652C198.168 168.09 198.406 167.438 198.406 166.695C198.406 165.953 198.168 165.305 197.691 164.75C197.215 164.188 196.551 163.754 195.699 163.449C194.855 163.145 193.891 162.992 192.805 162.992C191.711 162.992 190.742 163.145 189.898 163.449C189.055 163.754 188.398 164.188 187.93 164.75C187.461 165.305 187.227 165.953 187.227 166.695ZM195.617 176.516V171.852C194.742 172.055 193.805 172.156 192.805 172.156C191.82 172.156 190.898 172.055 190.039 171.852V176.516H195.617ZM207.43 173.961C207.438 172.977 207.535 172.18 207.723 171.57C207.918 170.953 208.188 170.461 208.531 170.094C208.875 169.719 209.336 169.352 209.914 168.992C211.07 168.289 211.648 167.391 211.648 166.297C211.648 165.82 211.535 165.402 211.309 165.043C211.09 164.676 210.785 164.395 210.395 164.199C210.012 164.004 209.586 163.906 209.117 163.906C208.68 163.906 208.27 164 207.887 164.188C207.504 164.367 207.188 164.645 206.938 165.02C206.688 165.395 206.547 165.859 206.516 166.414H203.984C204.016 165.445 204.258 164.613 204.711 163.918C205.172 163.223 205.785 162.695 206.551 162.336C207.316 161.977 208.172 161.797 209.117 161.797C210.117 161.797 211 161.988 211.766 162.371C212.539 162.746 213.137 163.273 213.559 163.953C213.988 164.633 214.203 165.414 214.203 166.297C214.203 167.203 214 167.988 213.594 168.652C213.188 169.309 212.594 169.875 211.812 170.352C211.328 170.648 210.945 170.953 210.664 171.266C210.383 171.57 210.172 171.938 210.031 172.367C209.898 172.797 209.828 173.328 209.82 173.961V174.102H207.43V173.961ZM207.055 177.523C207.055 177.219 207.129 176.938 207.277 176.68C207.426 176.422 207.625 176.219 207.875 176.07C208.133 175.914 208.414 175.836 208.719 175.836C209.016 175.836 209.289 175.91 209.539 176.059C209.797 176.207 210 176.41 210.148 176.668C210.305 176.926 210.383 177.203 210.383 177.5C210.383 177.797 210.305 178.074 210.148 178.332C210 178.582 209.797 178.785 209.539 178.941C209.289 179.09 209.016 179.164 208.719 179.164C208.422 179.164 208.145 179.09 207.887 178.941C207.637 178.793 207.434 178.594 207.277 178.344C207.129 178.094 207.055 177.82 207.055 177.523Z" fill="white"/>
</svg>
