<svg width="280" height="140" viewBox="0 0 280 140" fill="none" xmlns="http://www.w3.org/2000/svg">
<path fill-rule="evenodd" clip-rule="evenodd" d="M140.161 61C141.87 59.1526 142.774 56.289 141.824 51.5405C141.9 51.5946 141.978 51.6498 142.057 51.7061C144.394 53.3705 148.118 56.0212 148.688 61H215C223.284 61 230 67.7157 230 76C230 84.2843 223.284 91 215 91H65C56.7157 91 50 84.2843 50 76C50 67.7157 56.7157 61 65 61H140.161Z" fill="white"/>
<path d="M67.2148 73.0547H64.9297V82H62.8398V73.0547H61.1992V71.3945H62.8398V70.1641C62.8464 69.2266 63.1296 68.4974 63.6895 67.9766C64.2559 67.4557 65.0273 67.1953 66.0039 67.1953C66.4792 67.1953 66.9544 67.2409 67.4297 67.332V69.0703C67.0846 69.0182 66.7917 68.9922 66.5508 68.9922C65.9974 68.9922 65.5872 69.1126 65.3203 69.3535C65.0599 69.5879 64.9297 69.9622 64.9297 70.4766V71.3945H67.2148V73.0547ZM73.1719 82.2148C72.1823 82.2148 71.3099 81.987 70.5547 81.5312C69.806 81.0755 69.2266 80.4375 68.8164 79.6172C68.4128 78.7904 68.2109 77.8333 68.2109 76.7461C68.2109 75.6589 68.4128 74.7018 68.8164 73.875C69.2266 73.0417 69.806 72.3971 70.5547 71.9414C71.3099 71.4857 72.1823 71.2578 73.1719 71.2578C74.1549 71.2578 75.0208 71.4857 75.7695 71.9414C76.5182 72.3971 77.0944 73.0417 77.498 73.875C77.9082 74.7018 78.1133 75.6589 78.1133 76.7461C78.1133 77.8333 77.9082 78.7904 77.498 79.6172C77.0944 80.4375 76.5182 81.0755 75.7695 81.5312C75.0208 81.987 74.1549 82.2148 73.1719 82.2148ZM70.3008 76.7461C70.3008 77.4427 70.4082 78.0742 70.623 78.6406C70.8379 79.2005 71.1602 79.6465 71.5898 79.9785C72.0195 80.3105 72.5469 80.4766 73.1719 80.4766C73.7839 80.4766 74.3014 80.3105 74.7246 79.9785C75.1543 79.6465 75.4733 79.2005 75.6816 78.6406C75.8965 78.0742 76.0039 77.4427 76.0039 76.7461C76.0039 76.0495 75.8965 75.418 75.6816 74.8516C75.4733 74.2786 75.1543 73.8229 74.7246 73.4844C74.3014 73.1458 73.7839 72.9766 73.1719 72.9766C72.5469 72.9766 72.0195 73.1458 71.5898 73.4844C71.1602 73.8229 70.8379 74.2786 70.623 74.8516C70.4082 75.418 70.3008 76.0495 70.3008 76.7461ZM80.1641 71.3945H82.1758V73.0742H82.293C82.4883 72.5143 82.8268 72.0684 83.3086 71.7363C83.7969 71.4043 84.347 71.2383 84.959 71.2383C85.265 71.2383 85.5677 71.2513 85.8672 71.2773V73.2695C85.75 73.2435 85.5807 73.2174 85.3594 73.1914C85.1445 73.1654 84.9427 73.1523 84.7539 73.1523C84.2786 73.1523 83.8522 73.2565 83.4746 73.4648C83.097 73.6667 82.7975 73.9499 82.5762 74.3145C82.3613 74.6725 82.2539 75.0794 82.2539 75.5352V82H80.1641V71.3945ZM92.4883 67.8594H94.5586V73.1133H94.6758C94.8646 72.7812 95.0664 72.4883 95.2812 72.2344C95.4961 71.9805 95.8053 71.7559 96.209 71.5605C96.6191 71.3587 97.1237 71.2578 97.7227 71.2578C98.582 71.2578 99.3503 71.4759 100.027 71.9121C100.704 72.3483 101.235 72.9798 101.619 73.8066C102.003 74.627 102.195 75.6003 102.195 76.7266C102.195 77.8398 102.003 78.8132 101.619 79.6465C101.235 80.4733 100.708 81.1081 100.037 81.5508C99.3665 81.987 98.6016 82.2083 97.7422 82.2148C97.1497 82.2148 96.6484 82.1139 96.2383 81.9121C95.8346 81.7103 95.5189 81.4792 95.291 81.2188C95.0632 80.9518 94.8581 80.6589 94.6758 80.3398H94.5195V82H92.4883V67.8594ZM94.5195 76.6875C94.5195 77.4297 94.627 78.084 94.8418 78.6504C95.0566 79.2103 95.3724 79.6497 95.7891 79.9688C96.2057 80.2812 96.7005 80.4375 97.2734 80.4375C97.8659 80.4375 98.3704 80.2747 98.7871 79.9492C99.2103 79.6237 99.5293 79.181 99.7441 78.6211C99.959 78.0547 100.066 77.4102 100.066 76.6875C100.066 75.9779 99.959 75.3496 99.7441 74.8027C99.5358 74.2493 99.2233 73.8164 98.8066 73.5039C98.39 73.1914 97.8789 73.0352 97.2734 73.0352C96.6875 73.0352 96.1862 73.1849 95.7695 73.4844C95.3594 73.7773 95.0469 74.2005 94.832 74.7539C94.6237 75.3008 94.5195 75.9453 94.5195 76.6875ZM111.004 71.3945H113.074V82H111.043V80.1641H110.926C110.672 80.7565 110.271 81.235 109.725 81.5996C109.184 81.9577 108.53 82.1367 107.762 82.1367C107.072 82.1367 106.463 81.9837 105.936 81.6777C105.408 81.3717 104.998 80.9193 104.705 80.3203C104.412 79.7148 104.266 78.9857 104.266 78.1328V71.3945H106.355V77.8789C106.355 78.3542 106.447 78.7708 106.629 79.1289C106.811 79.487 107.062 79.7637 107.381 79.959C107.706 80.1478 108.081 80.2422 108.504 80.2422C108.914 80.2422 109.311 80.1445 109.695 79.9492C110.079 79.7474 110.392 79.4479 110.633 79.0508C110.88 78.6471 111.004 78.1589 111.004 77.5859V71.3945ZM121.57 74.2852C121.473 73.849 121.251 73.5104 120.906 73.2695C120.568 73.0221 120.118 72.8984 119.559 72.8984C119.168 72.8984 118.82 72.9603 118.514 73.084C118.208 73.2077 117.967 73.377 117.791 73.5918C117.615 73.8066 117.527 74.0475 117.527 74.3145C117.527 74.6335 117.658 74.9069 117.918 75.1348C118.185 75.3626 118.608 75.5417 119.188 75.6719L120.867 76.0625C121.844 76.2839 122.57 76.6322 123.045 77.1074C123.527 77.5762 123.771 78.1849 123.777 78.9336C123.771 79.5716 123.592 80.1413 123.24 80.6426C122.895 81.1374 122.397 81.5247 121.746 81.8047C121.095 82.0781 120.327 82.2148 119.441 82.2148C118.178 82.2148 117.176 81.9479 116.434 81.4141C115.691 80.8737 115.255 80.1055 115.125 79.1094H117.254C117.443 80.0599 118.152 80.5352 119.383 80.5352C120.073 80.5352 120.62 80.4082 121.023 80.1543C121.434 79.8939 121.642 79.5391 121.648 79.0898C121.642 78.7448 121.505 78.4616 121.238 78.2402C120.978 78.0124 120.568 77.8333 120.008 77.7031L118.348 77.3516C117.397 77.1432 116.674 76.7917 116.18 76.2969C115.685 75.7956 115.438 75.1771 115.438 74.4414C115.438 73.8164 115.607 73.263 115.945 72.7812C116.29 72.2995 116.772 71.9251 117.391 71.6582C118.016 71.3913 118.732 71.2578 119.539 71.2578C120.314 71.2578 120.994 71.3815 121.58 71.6289C122.166 71.8763 122.628 72.2279 122.967 72.6836C123.305 73.1393 123.51 73.6732 123.582 74.2852H121.57ZM125.809 71.3945H127.898V82H125.809V71.3945ZM126.844 69.7539C126.609 69.7539 126.391 69.6986 126.189 69.5879C125.994 69.4772 125.835 69.3275 125.711 69.1387C125.594 68.9499 125.535 68.7448 125.535 68.5234C125.535 68.3021 125.594 68.097 125.711 67.9082C125.835 67.7194 125.997 67.5697 126.199 67.459C126.408 67.3483 126.629 67.293 126.863 67.293C127.098 67.293 127.316 67.3483 127.518 67.459C127.719 67.5697 127.879 67.7194 127.996 67.9082C128.113 68.097 128.172 68.3021 128.172 68.5234C128.172 68.7513 128.11 68.9596 127.986 69.1484C127.869 69.3372 127.71 69.487 127.508 69.5977C127.306 69.7018 127.085 69.7539 126.844 69.7539ZM132.527 82H130.438V71.3945H132.449V73.1328H132.566C132.82 72.5404 133.211 72.0814 133.738 71.7559C134.272 71.4238 134.923 71.2578 135.691 71.2578C136.421 71.2578 137.055 71.4108 137.596 71.7168C138.143 72.0228 138.562 72.4753 138.855 73.0742C139.155 73.6732 139.305 74.4023 139.305 75.2617V82H137.234V75.5156C137.228 74.7409 137.026 74.1387 136.629 73.709C136.238 73.2728 135.691 73.0547 134.988 73.0547C134.507 73.0547 134.08 73.1589 133.709 73.3672C133.338 73.5755 133.048 73.8815 132.84 74.2852C132.632 74.6823 132.527 75.1576 132.527 75.7109V82ZM146.414 82.2148C145.385 82.2148 144.49 81.9902 143.729 81.541C142.967 81.0918 142.384 80.457 141.98 79.6367C141.577 78.8164 141.375 77.8594 141.375 76.7656C141.375 75.6849 141.577 74.7279 141.98 73.8945C142.384 73.0612 142.957 72.4134 143.699 71.9512C144.441 71.4889 145.301 71.2578 146.277 71.2578C147.13 71.2578 147.911 71.4434 148.621 71.8145C149.331 72.1855 149.9 72.7715 150.33 73.5723C150.766 74.3665 150.984 75.3724 150.984 76.5898V77.332H143.445C143.465 77.9961 143.602 78.5658 143.855 79.041C144.109 79.5163 144.458 79.8776 144.9 80.125C145.343 80.3724 145.854 80.4961 146.434 80.4961C146.993 80.4961 147.469 80.3919 147.859 80.1836C148.257 79.9688 148.549 79.6888 148.738 79.3438H150.848C150.691 79.9167 150.411 80.4212 150.008 80.8574C149.604 81.2871 149.096 81.6224 148.484 81.8633C147.872 82.0977 147.182 82.2148 146.414 82.2148ZM148.934 75.7695C148.934 75.2357 148.823 74.7572 148.602 74.334C148.387 73.9043 148.077 73.5723 147.674 73.3379C147.277 73.097 146.818 72.9766 146.297 72.9766C145.757 72.9766 145.275 73.1035 144.852 73.3574C144.435 73.6048 144.106 73.9434 143.865 74.373C143.624 74.8027 143.488 75.2682 143.455 75.7695H148.934ZM159.012 74.2852C158.914 73.849 158.693 73.5104 158.348 73.2695C158.009 73.0221 157.56 72.8984 157 72.8984C156.609 72.8984 156.261 72.9603 155.955 73.084C155.649 73.2077 155.408 73.377 155.232 73.5918C155.057 73.8066 154.969 74.0475 154.969 74.3145C154.969 74.6335 155.099 74.9069 155.359 75.1348C155.626 75.3626 156.049 75.5417 156.629 75.6719L158.309 76.0625C159.285 76.2839 160.011 76.6322 160.486 77.1074C160.968 77.5762 161.212 78.1849 161.219 78.9336C161.212 79.5716 161.033 80.1413 160.682 80.6426C160.337 81.1374 159.839 81.5247 159.188 81.8047C158.536 82.0781 157.768 82.2148 156.883 82.2148C155.62 82.2148 154.617 81.9479 153.875 81.4141C153.133 80.8737 152.697 80.1055 152.566 79.1094H154.695C154.884 80.0599 155.594 80.5352 156.824 80.5352C157.514 80.5352 158.061 80.4082 158.465 80.1543C158.875 79.8939 159.083 79.5391 159.09 79.0898C159.083 78.7448 158.947 78.4616 158.68 78.2402C158.419 78.0124 158.009 77.8333 157.449 77.7031L155.789 77.3516C154.839 77.1432 154.116 76.7917 153.621 76.2969C153.126 75.7956 152.879 75.1771 152.879 74.4414C152.879 73.8164 153.048 73.263 153.387 72.7812C153.732 72.2995 154.214 71.9251 154.832 71.6582C155.457 71.3913 156.173 71.2578 156.98 71.2578C157.755 71.2578 158.436 71.3815 159.021 71.6289C159.607 71.8763 160.07 72.2279 160.408 72.6836C160.747 73.1393 160.952 73.6732 161.023 74.2852H159.012ZM169.207 74.2852C169.109 73.849 168.888 73.5104 168.543 73.2695C168.204 73.0221 167.755 72.8984 167.195 72.8984C166.805 72.8984 166.456 72.9603 166.15 73.084C165.844 73.2077 165.604 73.377 165.428 73.5918C165.252 73.8066 165.164 74.0475 165.164 74.3145C165.164 74.6335 165.294 74.9069 165.555 75.1348C165.822 75.3626 166.245 75.5417 166.824 75.6719L168.504 76.0625C169.48 76.2839 170.206 76.6322 170.682 77.1074C171.163 77.5762 171.408 78.1849 171.414 78.9336C171.408 79.5716 171.229 80.1413 170.877 80.6426C170.532 81.1374 170.034 81.5247 169.383 81.8047C168.732 82.0781 167.964 82.2148 167.078 82.2148C165.815 82.2148 164.812 81.9479 164.07 81.4141C163.328 80.8737 162.892 80.1055 162.762 79.1094H164.891C165.079 80.0599 165.789 80.5352 167.02 80.5352C167.71 80.5352 168.257 80.4082 168.66 80.1543C169.07 79.8939 169.279 79.5391 169.285 79.0898C169.279 78.7448 169.142 78.4616 168.875 78.2402C168.615 78.0124 168.204 77.8333 167.645 77.7031L165.984 77.3516C165.034 77.1432 164.311 76.7917 163.816 76.2969C163.322 75.7956 163.074 75.1771 163.074 74.4414C163.074 73.8164 163.243 73.263 163.582 72.7812C163.927 72.2995 164.409 71.9251 165.027 71.6582C165.652 71.3913 166.368 71.2578 167.176 71.2578C167.951 71.2578 168.631 71.3815 169.217 71.6289C169.803 71.8763 170.265 72.2279 170.604 72.6836C170.942 73.1393 171.147 73.6732 171.219 74.2852H169.207Z" fill="#390A03"/>
<g clip-path="url(#clip0_1037_20546)">
<rect x="178.648" y="63" width="48" height="24" rx="12" fill="#7D6DFF"/>
<path d="M187.318 68.4712H191.459C192.24 68.4712 192.899 68.5988 193.436 68.854C193.972 69.1092 194.373 69.4608 194.639 69.9087C194.904 70.3566 195.037 70.867 195.037 71.4399C195.037 72.1014 194.86 72.63 194.506 73.0259C194.157 73.4165 193.699 73.6847 193.131 73.8306V73.9399C193.521 73.9608 193.896 74.0858 194.256 74.3149C194.615 74.5441 194.907 74.867 195.131 75.2837C195.36 75.6951 195.475 76.1795 195.475 76.7368C195.475 77.3306 195.337 77.8566 195.061 78.3149C194.785 78.7733 194.36 79.1326 193.787 79.3931C193.214 79.6535 192.501 79.7837 191.646 79.7837H187.318V68.4712ZM191.49 78.3149C192.266 78.3097 192.839 78.1587 193.209 77.8618C193.584 77.5597 193.771 77.1587 193.771 76.6587C193.771 76.2941 193.68 75.9634 193.498 75.6665C193.316 75.3696 193.055 75.1353 192.717 74.9634C192.383 74.7915 191.995 74.7056 191.553 74.7056H189.037V78.3149H191.49ZM191.318 73.3618C191.699 73.3566 192.042 73.2811 192.35 73.1353C192.662 72.9894 192.907 72.7837 193.084 72.5181C193.261 72.2472 193.35 71.9347 193.35 71.5806C193.35 71.091 193.178 70.6951 192.834 70.3931C192.495 70.091 192.001 69.9399 191.35 69.9399H189.037V73.3618H191.318ZM200.834 79.9556C200.011 79.9556 199.295 79.7759 198.686 79.4165C198.076 79.0571 197.61 78.5493 197.287 77.8931C196.964 77.2368 196.803 76.4712 196.803 75.5962C196.803 74.7316 196.964 73.966 197.287 73.2993C197.61 72.6326 198.068 72.1144 198.662 71.7446C199.256 71.3748 199.943 71.1899 200.725 71.1899C201.407 71.1899 202.032 71.3384 202.6 71.6353C203.167 71.9321 203.623 72.4009 203.967 73.0415C204.316 73.6769 204.49 74.4816 204.49 75.4556V76.0493H198.459C198.475 76.5806 198.584 77.0363 198.787 77.4165C198.99 77.7967 199.269 78.0858 199.623 78.2837C199.977 78.4816 200.386 78.5806 200.85 78.5806C201.298 78.5806 201.678 78.4972 201.99 78.3306C202.308 78.1587 202.542 77.9347 202.693 77.6587H204.381C204.256 78.117 204.032 78.5207 203.709 78.8696C203.386 79.2134 202.98 79.4816 202.49 79.6743C202.001 79.8618 201.449 79.9556 200.834 79.9556ZM202.85 74.7993C202.85 74.3722 202.761 73.9894 202.584 73.6509C202.412 73.3071 202.165 73.0415 201.842 72.854C201.524 72.6613 201.157 72.5649 200.74 72.5649C200.308 72.5649 199.923 72.6665 199.584 72.8696C199.251 73.0675 198.988 73.3384 198.795 73.6821C198.602 74.0259 198.493 74.3983 198.467 74.7993H202.85ZM210.115 72.6274H208.381V77.2837C208.386 77.7212 208.477 78.0207 208.654 78.1821C208.831 78.3384 209.079 78.4191 209.396 78.4243C209.646 78.4243 209.928 78.4087 210.24 78.3774V79.8306C209.938 79.8722 209.589 79.8931 209.193 79.8931C208.74 79.8931 208.326 79.8097 207.951 79.6431C207.576 79.4764 207.277 79.2238 207.053 78.8853C206.829 78.5415 206.719 78.1222 206.725 77.6274V72.6274H205.475V71.2993H206.725V69.2681H208.381V71.2993H210.115V72.6274ZM211.35 77.3931C211.344 76.5129 211.639 75.8853 212.232 75.5103C212.831 75.1353 213.594 74.9139 214.521 74.8462C215.725 74.7785 216.467 74.7394 216.748 74.729L216.74 74.0493C216.745 73.5649 216.6 73.1925 216.303 72.9321C216.011 72.6665 215.584 72.5337 215.021 72.5337C214.548 72.5337 214.16 72.6326 213.857 72.8306C213.555 73.0233 213.36 73.2837 213.271 73.6118H211.615C211.667 73.1431 211.842 72.7264 212.139 72.3618C212.436 71.992 212.837 71.7056 213.342 71.5024C213.847 71.2941 214.428 71.1899 215.084 71.1899C215.62 71.1899 216.136 71.2733 216.631 71.4399C217.131 71.6014 217.553 71.9035 217.896 72.3462C218.24 72.7837 218.412 73.3826 218.412 74.1431V79.7837H216.787V78.6274H216.725C216.532 78.9972 216.225 79.3149 215.803 79.5806C215.381 79.841 214.85 79.9712 214.209 79.9712C213.667 79.9712 213.178 79.8696 212.74 79.6665C212.308 79.4634 211.967 79.1691 211.717 78.7837C211.472 78.3931 211.35 77.9295 211.35 77.3931ZM212.975 77.4087C212.975 77.8045 213.12 78.1092 213.412 78.3228C213.709 78.5311 214.1 78.6379 214.584 78.6431C215.021 78.6431 215.404 78.5545 215.732 78.3774C216.061 78.2004 216.313 77.966 216.49 77.6743C216.667 77.3774 216.756 77.0597 216.756 76.7212L216.748 75.9478L214.756 76.0806C214.188 76.1222 213.748 76.2524 213.436 76.4712C213.128 76.6899 212.975 77.0024 212.975 77.4087Z" fill="white"/>
</g>
<path d="M94.5469 32.5938H87.8438V22.8906H80.4844V30.3906H59.8594V10.6094H80.4844V17.4531H87.8438V7.46875H94.5469V32.5938ZM64.8281 42.0156C64.8281 40.2656 65.4219 38.7578 66.6094 37.4922C67.8125 36.2266 69.5312 35.2656 71.7656 34.6094C74 33.9531 76.6406 33.625 79.6875 33.625C82.7812 33.625 85.4453 33.9531 87.6797 34.6094C89.9297 35.2656 91.6562 36.2266 92.8594 37.4922C94.0781 38.7578 94.6875 40.2656 94.6875 42.0156C94.6875 43.8125 94.0859 45.3438 92.8828 46.6094C91.6797 47.875 89.9531 48.8281 87.7031 49.4688C85.4688 50.125 82.7969 50.4531 79.6875 50.4531C76.625 50.4531 73.9766 50.125 71.7422 49.4688C69.5234 48.8281 67.8125 47.875 66.6094 46.6094C65.4219 45.3438 64.8281 43.8125 64.8281 42.0156ZM73.875 25.0469V15.9062H66.5625V25.0469H73.875ZM71.5312 42.0156C71.5312 43.1406 72.2109 43.9766 73.5703 44.5234C74.9453 45.0703 76.9844 45.3438 79.6875 45.3438C82.4531 45.3438 84.5234 45.0703 85.8984 44.5234C87.2734 43.9766 87.9688 43.1406 87.9844 42.0156C87.9688 40.9375 87.2734 40.1406 85.8984 39.625C84.5234 39.0938 82.4531 38.8125 79.6875 38.7812C76.9688 38.8125 74.9297 39.0938 73.5703 39.625C72.2109 40.1406 71.5312 40.9375 71.5312 42.0156ZM138.891 38.2656H122.531V50.5H115.781V38.2656H99.5625V32.7812H138.891V38.2656ZM104.391 9.10938H134.344V14.4062H111V16.9844H133.453V22.1406H111V24.7656H134.812V30.0625H104.391V9.10938ZM178.5 50.5H172.031V7.46875H178.5V50.5ZM142.266 12.2031H158.812V17.5938H148.875V35.5703C151.047 35.5391 153.016 35.4453 154.781 35.2891C156.547 35.1328 158.344 34.875 160.172 34.5156L160.641 40C158.484 40.4375 156.305 40.7344 154.102 40.8906C151.898 41.0469 149.281 41.125 146.25 41.125H145.312H142.266V12.2031ZM155.859 22.9375H163.031V8.125H169.266V48.625H163.031V28.4219H155.859V22.9375ZM218.719 50.5938H211.922V7.46875H218.719V50.5938ZM183.703 25.7969C183.703 22.7188 184.195 20.0156 185.18 17.6875C186.18 15.3594 187.555 13.5703 189.305 12.3203C191.055 11.0547 193.031 10.4219 195.234 10.4219C197.406 10.4219 199.359 11.0547 201.094 12.3203C202.828 13.5703 204.188 15.3594 205.172 17.6875C206.172 20.0156 206.672 22.7188 206.672 25.7969C206.672 28.9219 206.172 31.6562 205.172 34C204.188 36.3438 202.828 38.1484 201.094 39.4141C199.359 40.6797 197.406 41.3125 195.234 41.3125C193.031 41.3125 191.055 40.6797 189.305 39.4141C187.555 38.1484 186.18 36.3438 185.18 34C184.195 31.6562 183.703 28.9219 183.703 25.7969ZM190.266 25.7969C190.25 28.8438 190.688 31.1719 191.578 32.7812C192.469 34.375 193.688 35.1719 195.234 35.1719C196.734 35.1719 197.922 34.375 198.797 32.7812C199.688 31.1719 200.141 28.8438 200.156 25.7969C200.156 23.7969 199.945 22.1016 199.523 20.7109C199.117 19.3047 198.547 18.25 197.812 17.5469C197.078 16.8438 196.219 16.5 195.234 16.5156C194.219 16.5 193.336 16.8438 192.586 17.5469C191.836 18.25 191.258 19.3047 190.852 20.7109C190.445 22.1016 190.25 23.7969 190.266 25.7969Z" fill="white"/>
<path opacity="0.8" d="M28.6953 123.592H23.1582V131.273C24.5703 131.262 25.7627 131.221 26.7354 131.15C27.708 131.08 28.6895 130.951 29.6797 130.764L29.873 132.135C28.7891 132.34 27.7168 132.48 26.6562 132.557C25.6016 132.627 24.2891 132.662 22.7188 132.662H21.4707V122.203H28.6953V123.592ZM27.7988 126.369H32.1758V120.744H33.8457V136.529H32.1758V127.758H27.7988V126.369ZM44.7793 132.117H52.0039V130.518H53.6562V136.301H43.1094V130.518H44.7793V132.117ZM41.7998 127.547C43.5693 127.547 45.2041 127.518 46.7041 127.459C48.21 127.4 49.6367 127.283 50.9844 127.107L51.0898 128.303C49.8652 128.508 48.4883 128.66 46.959 128.76V130.957H45.3066V128.848C44.0938 128.895 42.6172 128.918 40.877 128.918L40.666 127.547H41.7998ZM41.3164 125.402C42.0957 125.227 42.7725 124.966 43.3467 124.62C43.9209 124.269 44.3604 123.855 44.665 123.381C44.9756 122.906 45.1309 122.402 45.1309 121.869V121.131H46.8359V121.869C46.8359 122.373 46.9883 122.848 47.293 123.293C47.6035 123.738 48.0459 124.125 48.6201 124.453C49.1943 124.781 49.8652 125.027 50.6328 125.191L49.8945 126.439C48.9805 126.24 48.1895 125.921 47.5215 125.481C46.8535 125.042 46.3467 124.506 46.001 123.873C45.6611 124.553 45.1543 125.139 44.4805 125.631C43.8066 126.117 43.0039 126.475 42.0723 126.703L41.3164 125.402ZM52.0039 134.947V133.4H44.7793V134.947H52.0039ZM51.9863 120.762H53.6562V129.797H51.9863V120.762ZM68.9492 123.803C68.9434 124.711 68.9287 125.487 68.9053 126.132C68.8877 126.771 68.835 127.518 68.7471 128.373C68.665 129.229 68.5332 130.154 68.3516 131.15L66.6641 130.975C66.8516 130.031 66.9893 129.144 67.0771 128.312C67.165 127.474 67.2178 126.735 67.2354 126.097C67.2588 125.458 67.2734 124.693 67.2793 123.803V123.609H57.7168V122.256H68.9492V123.803ZM56.2051 132.979H61.6719V127.424H63.3242V132.979H70.5664V134.367H56.2051V132.979ZM89.2871 132.434H87.6172V128.092H85.1562V126.686H87.6172V125.033H85.1562V123.662H87.6172V120.744H89.2871V132.434ZM78.0898 128.786V123.328H76.6133V121.975H84.9805V123.328H83.4688V128.602C84.3008 128.537 84.9453 128.479 85.4023 128.426L85.4727 129.656C84.1309 129.867 82.6982 130.011 81.1748 130.087C79.6514 130.157 78.0547 130.195 76.3848 130.201L76.1738 128.795L78.0898 128.786ZM79.0215 131.484H80.709V134.807H89.6914V136.16H79.0215V131.484ZM79.707 128.76C80.1641 128.748 80.8848 128.725 81.8691 128.689V123.328H79.707V128.76ZM104.791 136.529H103.121V120.744H104.791V136.529ZM92.5918 122.168H99.9746V127.916H94.3145V131.361C95.6797 131.355 96.9424 131.312 98.1025 131.229C99.2686 131.147 100.479 131.004 101.732 130.799L101.891 132.17C100.584 132.387 99.3154 132.536 98.085 132.618C96.8545 132.7 95.4746 132.744 93.9453 132.75H92.6094V126.58H98.2695V123.521H92.5918V122.168ZM119.645 125.824H121.93V127.213H119.645V132.539H117.975V120.762H119.645V125.824ZM107.287 122.59H111.154V120.744H112.824V122.59H116.674V123.943H107.287V122.59ZM108.148 127.67C108.148 127.078 108.307 126.557 108.623 126.105C108.945 125.654 109.396 125.309 109.977 125.068C110.557 124.822 111.225 124.699 111.98 124.699C112.73 124.699 113.393 124.822 113.967 125.068C114.547 125.309 114.995 125.654 115.312 126.105C115.634 126.557 115.795 127.078 115.795 127.67C115.795 128.256 115.634 128.771 115.312 129.217C114.995 129.662 114.547 130.008 113.967 130.254C113.393 130.5 112.73 130.623 111.98 130.623C111.225 130.623 110.557 130.5 109.977 130.254C109.396 130.008 108.945 129.662 108.623 129.217C108.307 128.771 108.148 128.256 108.148 127.67ZM109.66 131.607H111.33V134.807H120.312V136.16H109.66V131.607ZM109.766 127.67C109.76 128.004 109.848 128.297 110.029 128.549C110.211 128.795 110.466 128.985 110.794 129.12C111.128 129.255 111.515 129.322 111.954 129.322C112.634 129.322 113.182 129.176 113.598 128.883C114.014 128.59 114.225 128.186 114.23 127.67C114.225 127.154 114.017 126.747 113.606 126.448C113.196 126.144 112.654 125.988 111.98 125.982C111.535 125.982 111.143 126.053 110.803 126.193C110.469 126.328 110.211 126.524 110.029 126.782C109.848 127.034 109.76 127.33 109.766 127.67ZM140.703 131.555H139.121V120.744H140.703V131.555ZM127.133 128.18C127.777 128.18 128.281 128.177 128.645 128.171V123.416H127.414V122.045H134.779V123.416H133.496V127.986C134.076 127.939 134.615 127.887 135.113 127.828L135.184 129.076C134.076 129.275 132.86 129.404 131.536 129.463C130.212 129.521 128.803 129.551 127.309 129.551L127.133 128.18ZM129.207 135.123C130.191 135 131.088 134.754 131.896 134.385C132.705 134.016 133.344 133.562 133.812 133.022C134.281 132.478 134.516 131.9 134.516 131.291V130.816H136.186V131.291C136.186 131.9 136.423 132.478 136.897 133.022C137.372 133.562 138.017 134.016 138.831 134.385C139.651 134.754 140.557 135 141.547 135.123L140.914 136.424C139.672 136.248 138.556 135.888 137.565 135.343C136.581 134.804 135.846 134.139 135.359 133.348C134.873 134.139 134.138 134.804 133.153 135.343C132.169 135.888 131.053 136.248 129.805 136.424L129.207 135.123ZM130.191 128.145C131.012 128.121 131.609 128.101 131.984 128.083V123.416H130.191V128.145ZM134.27 125.051H136.168V121.078H137.732V130.113H136.168V126.404H134.27V125.051ZM160.215 136.529H158.545V120.744H160.215V136.529ZM148.051 122.062H149.721V126.105H153.957V122.062H155.609V132.75H148.051V122.062ZM153.957 131.379V127.424H149.721V131.379H153.957ZM177.143 134.455H162.729V133.084H177.143V134.455ZM163.396 129.146C164.369 128.988 165.289 128.66 166.156 128.162C167.023 127.658 167.721 127.049 168.248 126.334C168.775 125.613 169.039 124.863 169.039 124.084V123.592H163.924V122.238H175.895V123.592H170.779V124.084C170.779 124.863 171.043 125.607 171.57 126.316C172.104 127.025 172.81 127.626 173.688 128.118C174.567 128.61 175.508 128.936 176.51 129.094L175.842 130.412C174.986 130.254 174.169 129.99 173.39 129.621C172.616 129.246 171.928 128.783 171.324 128.232C170.721 127.682 170.252 127.066 169.918 126.387C169.59 127.072 169.127 127.696 168.529 128.259C167.932 128.815 167.249 129.284 166.481 129.665C165.72 130.046 164.92 130.318 164.082 130.482L163.396 129.146ZM191.363 136.494H189.693V120.744H191.363V136.494ZM179.252 122.273H180.904V131.045C183.4 131.033 185.814 130.793 188.146 130.324L188.375 131.73C187.039 132.006 185.732 132.202 184.455 132.319C183.178 132.437 181.883 132.492 180.57 132.486H179.252V122.273ZM201.84 122.977C201.84 123.809 202.106 124.617 202.64 125.402C203.173 126.188 203.882 126.858 204.767 127.415C205.657 127.966 206.604 128.332 207.605 128.514L206.832 129.902C205.988 129.721 205.183 129.422 204.415 129.006C203.647 128.59 202.965 128.083 202.367 127.485C201.775 126.882 201.312 126.217 200.979 125.49C200.639 126.211 200.17 126.873 199.572 127.477C198.975 128.074 198.292 128.581 197.524 128.997C196.757 129.413 195.951 129.715 195.107 129.902L194.369 128.514C195.359 128.326 196.291 127.957 197.164 127.406C198.043 126.85 198.749 126.182 199.282 125.402C199.815 124.617 200.082 123.809 200.082 122.977V121.781H201.84V122.977ZM193.842 133.031H208.256V134.42H193.842V133.031ZM221.791 127.477H228.154V128.812H213.793V127.477H220.139V125.525H221.791V127.477ZM214.549 125.121C215.592 125.016 216.535 124.787 217.379 124.436C218.229 124.084 218.896 123.645 219.383 123.117C219.875 122.584 220.121 122.004 220.121 121.377V120.867H221.809V121.377C221.809 122.004 222.049 122.584 222.529 123.117C223.016 123.645 223.681 124.084 224.524 124.436C225.368 124.787 226.309 125.016 227.346 125.121L226.766 126.404C225.441 126.229 224.264 125.883 223.232 125.367C222.207 124.852 221.448 124.195 220.956 123.398C220.464 124.195 219.702 124.852 218.671 125.367C217.646 125.883 216.471 126.229 215.146 126.404L214.549 125.121ZM215.516 129.955H226.344V133.699H217.168V135.053H226.783V136.336H215.533V132.486H224.691V131.238H215.516V129.955ZM242.041 125.613H232.76V127.424H242.375V128.777H231.09V124.33H240.336V122.678H231.037V121.324H242.041V125.613ZM229.332 130.271H243.746V131.607H237.348V136.529H235.678V131.607H229.332V130.271ZM250.461 123.592C250.467 124.348 250.619 125.08 250.918 125.789C251.223 126.492 251.656 127.119 252.219 127.67C252.787 128.221 253.455 128.643 254.223 128.936L253.309 130.236C252.465 129.896 251.729 129.398 251.103 128.742C250.476 128.086 249.992 127.324 249.652 126.457C249.307 127.389 248.806 128.203 248.149 128.9C247.493 129.598 246.711 130.125 245.803 130.482L244.906 129.146C245.703 128.854 246.395 128.426 246.98 127.863C247.566 127.295 248.018 126.642 248.334 125.903C248.65 125.165 248.809 124.395 248.809 123.592V121.641H250.461V123.592ZM247.754 131.309H249.441V134.807H258.389V136.16H247.754V131.309ZM253.309 126.176H256.367V124.348H253.309V122.994H256.367V120.762H258.037V132.486H256.367V127.529H253.309V126.176Z" fill="white"/>
<defs>
<clipPath id="clip0_1037_20546">
<rect x="178.648" y="63" width="48" height="24" rx="12" fill="white"/>
</clipPath>
</defs>
</svg>
