<svg width="24" height="24" viewBox="0 0 24 24" fill="none" xmlns="http://www.w3.org/2000/svg">
<path fill-rule="evenodd" clip-rule="evenodd" d="M20.1 12C20.1 16.4735 16.4735 20.1 12 20.1C7.52649 20.1 3.9 16.4735 3.9 12C3.9 7.52649 7.52649 3.9 12 3.9C16.4735 3.9 20.1 7.52649 20.1 12ZM21.5 12C21.5 17.2467 17.2467 21.5 12 21.5C6.75329 21.5 2.5 17.2467 2.5 12C2.5 6.75329 6.75329 2.5 12 2.5C17.2467 2.5 21.5 6.75329 21.5 12ZM12 8.30005C12.3866 8.30005 12.7 8.61345 12.7 9.00005V11.3H15C15.3866 11.3 15.7 11.6134 15.7 12C15.7 12.3866 15.3866 12.7 15 12.7H12.7V15C12.7 15.3866 12.3866 15.7 12 15.7C11.6134 15.7 11.3 15.3866 11.3 15V12.7H9C8.6134 12.7 8.3 12.3866 8.3 12C8.3 11.6134 8.6134 11.3 9 11.3H11.3V9.00005C11.3 8.61345 11.6134 8.30005 12 8.30005Z" fill="#666666"/>
</svg>
