<svg width="24" height="24" viewBox="0 0 24 24" fill="none" xmlns="http://www.w3.org/2000/svg">
<g opacity="0.6" clip-path="url(#clip0_1037_2574)">
<path fill-rule="evenodd" clip-rule="evenodd" d="M16.3674 20.2768C18.3915 19.1082 19.5646 19.6438 21.3862 18.592C23.2083 17.54 23.6416 15.6726 22.4159 13.5497C21.1903 11.4268 18.145 11.6687 16.26 10.8358C14.3756 10.003 12.706 8.79306 10.479 10.0788C8.25213 11.3645 8.46471 13.4157 8.24371 15.464C8.02271 17.5123 6.29058 20.0286 7.51647 22.1519C8.74215 24.2748 10.576 24.8333 12.3981 23.7813C14.2204 22.7297 14.3429 21.4457 16.3674 20.2768Z" fill="white"/>
<path fill-rule="evenodd" clip-rule="evenodd" d="M10.3795 0.741318C11.7725 0.255282 13.3252 1.34133 13.8494 3.16749C14.3731 4.99351 13.669 6.86763 12.277 7.35359C10.8844 7.83942 9.33126 6.75358 8.80708 4.92742C8.28364 3.10174 8.98748 1.22728 10.3795 0.741318Z" fill="white"/>
<path fill-rule="evenodd" clip-rule="evenodd" d="M1.90159 5.63638C0.784904 6.59929 0.948364 8.48744 2.26813 9.85427C3.58733 11.221 5.56274 11.5481 6.67962 10.5855C7.79666 9.62242 7.63285 7.73448 6.31309 6.36765C4.99371 5.00149 3.01882 4.6736 1.90159 5.63638Z" fill="white"/>
<path fill-rule="evenodd" clip-rule="evenodd" d="M0.407494 12.9913C-0.651543 13.9037 -0.496137 15.6939 0.754274 16.9892C2.0049 18.2848 3.87724 18.5952 4.93646 17.6822C5.9955 16.7698 5.83988 14.9793 4.58908 13.6842C3.33866 12.3889 1.46632 12.0785 0.407494 12.9913Z" fill="white"/>
<path fill-rule="evenodd" clip-rule="evenodd" d="M18.0374 2.81241C19.3571 2.35146 20.8301 3.38091 21.3263 5.11168C21.8231 6.84259 21.1553 8.61951 19.8354 9.08009C18.5157 9.54104 17.0429 8.51099 16.5467 6.78023C16.0502 5.04969 16.7179 3.27276 18.0374 2.81241Z" fill="white"/>
</g>
<defs>
<clipPath id="clip0_1037_2574">
<rect width="24" height="24" fill="white"/>
</clipPath>
</defs>
</svg>
