<svg width="30" height="29" viewBox="0 0 30 29" fill="none" xmlns="http://www.w3.org/2000/svg">
<path d="M5.46097 10.0179C6.52997 11.8387 6.72537 14.5737 4.79562 15.3975C3.22381 16.0685 1.58989 15.5198 0.743087 13.7469C-0.10372 11.9741 -0.224697 8.4284 1.22697 7.87822C2.67864 7.32804 4.5176 8.41103 5.46097 10.0179Z" fill="#F59245"/>
<path d="M13.3296 5.47488C13.3897 6.75866 12.3842 9.94575 10.2448 10.0598C8.02277 10.1782 6.5552 7.61451 6.79715 5.47488C7.0391 3.33525 7.90834 0.401954 10.2448 0.52317C12.5028 0.640314 13.2695 4.1911 13.3296 5.47488Z" fill="#F59245"/>
<path d="M19.3782 10.0598C17.2901 10.0876 16.1724 7.30884 16.1724 5.71941C16.1724 4.12997 17.0204 0.714424 19.3782 0.64543C21.8766 0.572321 22.7654 4.55789 22.6444 6.20846C22.5234 7.85903 21.338 10.0337 19.3782 10.0598Z" fill="#F59245"/>
<path d="M24.8824 15.4394C26.418 16.1708 27.8854 15.1986 28.9349 13.85C30.4075 11.9577 29.7817 8.22583 28.1486 7.73677C26.5155 7.24771 24.1463 8.94529 23.6122 11.099C23.187 12.8136 23.3003 14.686 24.8824 15.4394Z" fill="#F59245"/>
<path d="M14.6487 12.2643C9.08406 12.5087 5.092 19.1721 3.64032 21.801C2.18865 24.4298 4.07471 28.6924 7.14849 28.9534C8.7745 29.0915 9.38804 27.3899 11.0196 27.364C12.717 27.337 13.3746 28.9712 15.0721 28.9534C16.7257 28.9362 17.35 27.3727 19.0037 27.364C20.6793 27.3551 20.9392 28.9534 22.9957 28.9534C25.0522 28.9534 28.137 25.591 26.2619 21.801C24.3869 18.0109 20.2134 12.0199 14.6487 12.2643Z" fill="#F59245"/>
</svg>
