<svg width="180" height="192" viewBox="0 0 180 192" fill="none" xmlns="http://www.w3.org/2000/svg">
<path d="M18.1751 18.4642C36.4379 0.0114383 57.8509 -0.0853067 90.2103 0.0114397C122.402 0.107686 143.504 0.0114402 161.752 18.4642C214.382 71.6831 141.523 192 90.2103 192C38.8972 192 -34.4575 71.6443 18.1751 18.4642Z" fill="white"/>
<path d="M56.9804 69.2919C60.6808 75.5947 61.3572 85.062 54.6773 87.9138C49.2364 90.2366 43.5805 88.337 40.6493 82.2003C37.718 76.0635 37.2992 63.79 42.3242 61.8855C47.3493 59.9811 53.7149 63.7299 56.9804 69.2919Z" fill="#F59245"/>
<path d="M84.2179 53.5672C84.426 58.011 80.9454 69.0433 73.5398 69.4381C65.8481 69.8481 60.768 60.9736 61.6055 53.5672C62.4431 46.1608 65.452 36.0071 73.5398 36.4267C81.356 36.8322 84.0098 49.1234 84.2179 53.5672Z" fill="#F59245"/>
<path d="M105.155 69.4381C97.9271 69.5343 94.0585 59.9155 94.0585 54.4136C94.0585 48.9117 96.9936 37.0887 105.155 36.8499C113.804 36.5968 116.88 50.393 116.461 56.1065C116.043 61.82 111.939 69.3477 105.155 69.4381Z" fill="#F59245"/>
<path d="M124.208 88.0599C129.524 90.5915 134.603 87.2262 138.236 82.558C143.334 76.0077 141.167 63.0897 135.514 61.3968C129.861 59.7039 121.66 65.5801 119.811 73.0354C118.34 78.9705 118.732 85.4517 124.208 88.0599Z" fill="#F59245"/>
<path d="M88.7842 77.0686C69.5219 77.9146 55.7032 100.98 50.6782 110.08C45.6532 119.18 52.1818 133.935 62.8219 134.839C68.4503 135.316 70.5741 129.426 76.2218 129.337C82.0973 129.243 84.3738 134.9 90.2498 134.839C95.9736 134.779 98.1349 129.367 103.859 129.337C109.659 129.306 110.559 134.839 117.678 134.839C124.796 134.839 135.474 123.199 128.984 110.08C122.493 96.9605 108.046 76.2226 88.7842 77.0686Z" fill="#F59245"/>
</svg>
