<svg width="280" height="437" viewBox="0 0 280 437" fill="none" xmlns="http://www.w3.org/2000/svg">
<circle cx="140" cy="128.5" r="100" fill="white"/>
<circle cx="140" cy="128.5" r="110" stroke="white" stroke-opacity="0.3" stroke-width="20"/>
<g clip-path="url(#clip0_1037_20414)">
<path d="M54.8786 258.555C55.8018 258.024 56.8132 257.955 57.848 257.96C60.328 257.972 62.8083 257.964 65.7125 257.964C59.8909 252.747 57.2699 246.56 57.7366 239.098C58.2062 231.589 62.167 226.133 67.9416 221.74C60.309 215.164 61.2661 203.828 67.9883 197.573C69.4966 196.17 71.0527 194.833 72.6939 193.596C73.2148 193.203 73.5221 192.783 73.4283 192.128C73.2667 191.002 73.7871 190.146 74.4932 189.352C76.0867 187.56 77.657 185.748 79.2732 183.977C79.7714 183.431 79.9775 182.859 79.9777 182.13C79.9814 174.785 79.9912 167.44 80.0433 160.095C80.0497 159.185 79.743 159.172 79.015 159.361C73.7873 160.719 68.7926 160.249 64.2684 157.132C58.8519 153.401 55.7266 148.147 54.843 141.687C53.7303 133.551 56.0098 126.313 61.5971 120.318C68.585 112.819 76.3113 106.094 84.6575 100.16C90.1422 96.2595 96.3004 95.3022 102.765 97.7477C103.234 97.9253 103.554 97.8778 103.961 97.5798C110.835 92.5481 118.608 89.5892 126.876 87.8833C139.303 85.3192 151.484 86.35 163.383 90.7233C167.999 92.4196 172.297 94.7297 176.283 97.6065C176.712 97.9161 176.976 98.0648 177.551 97.8401C184.291 95.2097 190.593 96.3477 196.224 100.61C203.602 106.194 210.617 112.243 217.161 118.791C222.756 124.389 225.932 131.155 225.541 139.213C225.105 148.194 219.611 157.297 209.709 159.599C206.881 160.256 204.079 160.249 201.305 159.432C200.382 159.16 200.047 159.173 200.053 160.298C200.092 167.398 200.085 174.498 200.032 181.598C200.024 182.666 200.341 183.456 201.054 184.211C202.699 185.955 204.291 187.75 205.905 189.524C206.583 190.27 207.128 191.058 206.808 192.152C206.597 192.872 207.134 193.222 207.58 193.584C209.444 195.095 211.253 196.658 212.935 198.38C218.776 204.36 220.066 215.281 212.007 221.986C217.858 226.347 221.638 231.979 221.986 239.393C222.331 246.753 219.6 252.917 213.778 257.945C217.693 257.945 221.339 257.961 224.985 257.934C225.937 257.927 226.832 258.05 227.665 258.521C228.466 258.921 229.021 259.476 228.918 260.463C228.817 261.439 228.241 262.061 227.409 262.482C226.592 262.896 225.7 262.864 224.82 262.866C219.24 262.873 213.66 262.87 208.08 262.867C206.998 262.867 205.92 262.891 204.895 263.282C202.568 264.17 200.158 264.405 197.684 264.352C194.797 264.291 191.904 264.438 189.022 264.315C184.545 264.123 180.163 264.85 175.739 265.292C171.079 265.758 166.64 264.726 163.056 261.446C161.963 260.446 160.97 260.298 159.617 260.646C154.072 262.071 148.497 263.375 142.89 264.544C140.666 265.008 138.527 264.86 136.352 264.386C130.66 263.146 125.011 261.729 119.343 260.39C118.209 260.122 117.386 260.284 116.587 261.128C113.164 264.745 108.567 265.904 104.062 265.281C96.4417 264.228 88.8445 264.401 81.2261 264.356C79.0463 264.343 76.9301 264.117 74.8846 263.358C73.8104 262.959 72.7008 262.863 71.5656 262.865C66.9158 262.872 62.2658 262.876 57.6159 262.864C56.5763 262.861 55.554 262.789 54.7116 262.064C53.465 260.991 53.5365 259.472 54.8786 258.555Z" fill="#390A03"/>
<path d="M54.8785 258.555C54.243 259.318 53.8799 260.168 54.3814 261.113C54.8913 262.075 55.781 262.369 56.8482 262.364C61.5957 262.341 66.3454 262.435 71.0897 262.313C73.1211 262.26 74.9107 262.968 76.8007 263.42C79.6878 264.111 82.6475 263.787 85.5768 263.808C89.2469 263.835 92.919 263.704 96.5875 263.777C98.9319 263.823 101.163 264.804 103.526 264.845C108.663 264.936 113.509 264.193 117.05 259.93C117.507 259.38 117.877 259.504 118.437 259.632C125.107 261.158 131.72 262.929 138.44 264.247C140.471 264.646 142.342 264.125 144.229 263.73C149.875 262.55 155.498 261.259 161.06 259.726C161.598 259.577 161.937 259.573 162.333 260.01C166.513 264.625 171.955 265.556 177.66 264.558C181.465 263.892 185.22 263.821 189.022 263.802C193.035 263.783 197.241 264.52 201.02 263.567C208.796 261.607 216.579 262.78 224.342 262.378C224.83 262.353 225.321 262.362 225.81 262.38C226.928 262.421 227.845 262.07 228.361 261.022C228.862 260.003 228.274 259.251 227.665 258.522C231.047 259.205 234.552 259.228 237.839 260.414C238.337 260.594 238.836 260.822 239.272 261.119C240.287 261.81 240.246 262.593 239.118 263.049C237.168 263.839 235.12 264.354 233.05 264.679C229.015 265.312 224.968 265.876 220.916 266.385C218.503 266.689 216.071 266.854 213.645 267.049C208.742 267.444 203.837 267.82 198.933 268.198C197.427 268.314 195.921 268.474 194.413 268.508C188.164 268.646 181.923 268.999 175.677 269.199C172.209 269.31 168.739 269.267 165.275 269.419C151.087 270.04 136.892 269.663 122.703 269.623C117.772 269.61 112.826 269.574 107.896 269.364C102.923 269.153 97.9498 268.969 92.9754 268.789C87.7642 268.6 82.5469 268.362 77.3559 267.887C70.5245 267.261 63.6741 266.853 56.8637 265.942C52.3762 265.341 47.9028 264.704 43.4648 263.821C42.702 263.669 41.9534 263.416 41.2219 263.146C40.6823 262.947 39.9675 262.726 40.0011 262.049C40.0338 261.392 40.659 260.924 41.235 260.716C42.1934 260.371 43.2103 260.178 44.2122 259.966C47.4047 259.291 50.6169 258.732 53.8708 258.448C54.2011 258.419 54.5425 258.516 54.8785 258.555Z" fill="#CD6E23"/>
<path d="M110.363 186.213C106.765 185.341 103.163 184.485 99.5702 183.592C95.0657 182.472 90.4967 181.694 85.9111 181.014C85.1592 180.902 84.8009 180.747 84.8077 179.894C84.8523 174.27 84.8489 168.647 84.861 163.023C84.9341 162.249 85.3351 161.729 85.9528 161.237C91.4671 156.845 94.5379 151.138 95.2204 144.101C95.708 139.074 95.4685 134.043 95.4717 129.016C95.4764 121.56 97.5033 114.651 100.779 108.042C101.039 107.516 101.318 106.988 101.951 106.808C102.62 106.947 103.046 106.514 103.491 106.138C106.726 103.408 110.233 101.051 114.091 99.351C118.15 97.563 122.348 96.1285 126.67 94.9998C132.518 93.4724 138.442 92.7137 144.402 93.3263C150.332 93.9357 156.183 95.2095 161.75 97.5233C165.918 99.2559 169.941 101.247 173.727 103.713C174.799 104.411 175.782 105.211 176.792 106.056C176.824 105.511 176.117 104.882 176.984 104.482C177.863 104.989 178.51 105.759 178.95 106.615C182.018 112.577 184.237 118.779 184.708 125.564C185.078 130.899 184.831 136.228 184.962 141.558C185.07 145.965 186.239 150.067 188.778 153.698C189.775 155.124 190.277 156.592 190.266 158.34C190.22 165.291 190.251 172.241 190.242 179.192C190.241 180.014 190.357 180.874 189.748 181.575C185.866 182.448 181.979 183.296 178.106 184.201C175.319 184.852 172.55 185.579 169.774 186.273C169.141 185.151 169.739 184.064 169.935 182.999C170.943 177.515 171.111 172.074 169.951 166.562C168.857 161.36 166.537 156.781 163.411 152.598C160.167 148.255 156.074 144.768 151.013 142.789C146.302 140.948 141.39 140.114 136.219 140.97C130.958 141.842 126.263 143.763 122.169 147.138C118.976 149.77 116.294 152.821 114.245 156.474C112.085 160.323 110.707 164.397 109.895 168.701C109.483 170.888 109.777 173.094 109.674 175.289C109.53 178.341 109.818 181.342 110.632 184.293C110.814 184.952 110.962 185.645 110.363 186.213Z" fill="#FCD1A2"/>
<path d="M110.363 186.213C110.586 184.803 109.902 183.536 109.706 182.189C108.618 174.726 108.863 167.455 111.818 160.352C114.942 152.841 119.955 147.035 127.124 143.334C132.442 140.59 138.18 139.481 144.267 140.507C146.591 140.898 148.917 141.346 151.014 142.247C154.391 143.699 157.516 145.664 160.2 148.301C165.037 153.054 168.377 158.645 170.127 165.185C171.325 169.665 171.419 174.2 171.025 178.813C170.807 181.354 170.123 183.777 169.774 186.272C167.087 187.147 164.395 188.005 161.715 188.9C155.585 190.947 149.602 193.321 144.186 196.928C143.942 197.091 143.693 197.247 143.458 197.422C142.298 198.287 141.157 199.809 139.981 199.835C138.881 199.86 137.77 198.266 136.621 197.445C131.115 193.513 124.896 191.068 118.562 188.881C115.846 187.943 113.097 187.1 110.363 186.213Z" fill="#FEFEFE"/>
<path d="M85.4551 221.833C91.3556 216.312 90.7433 207.67 84.1251 202.955C82.4057 201.73 80.5831 200.655 78.6534 199.844C77.1028 199.192 76.9089 198.121 76.9387 196.696C76.9919 194.137 76.939 194.161 79.3508 194.824C95.7032 199.321 112.057 203.813 128.418 208.282C129.352 208.537 129.962 208.799 129.954 209.975C129.883 221.281 129.864 232.587 129.831 243.894C129.819 248.055 129.782 252.216 129.817 256.376C129.826 257.465 129.553 257.712 128.473 257.398C125.896 256.651 123.293 255.982 120.678 255.381C119.735 255.164 119.444 254.737 119.362 253.805C118.771 247.032 114.517 243.206 108.671 240.703C108.413 240.592 108.096 240.621 107.806 240.585C105.009 239.819 102.164 239.64 99.2693 239.706C94.5226 239.815 89.772 239.644 85.0245 239.792C84.1888 239.818 83.6607 239.533 83.6581 238.668C83.6432 233.725 83.5814 228.78 83.6907 223.837C83.695 223.645 83.8027 223.464 83.8862 223.286C83.9425 223.223 83.9682 223.149 83.9631 223.065C84.3863 222.565 84.8387 222.1 85.4551 221.833Z" fill="#7D6DFF"/>
<path d="M150.593 208.902C152.572 207.766 154.827 207.473 156.972 206.879C171.757 202.779 186.56 198.748 201.356 194.688C203.245 194.17 203.045 194.178 203.288 196.101C203.618 198.715 202.648 200.185 200.393 201.554C195.901 204.281 193.264 208.291 193.526 213.815C193.633 216.093 194.403 218.125 195.74 219.928C196.313 220.701 196.393 221.455 196.377 222.381C196.289 227.421 196.29 232.462 196.265 237.503C196.256 239.426 196.263 239.412 194.355 239.412C188.529 239.412 182.681 239.099 176.884 239.514C170.309 239.985 164.68 242.596 161.399 248.818C160.514 250.497 160.16 252.313 160.104 254.19C160.086 254.81 160.082 255.366 159.309 255.527C156.397 256.135 153.588 257.17 150.636 257.611C150.413 257.25 150.502 256.848 150.502 256.464C150.497 240.948 150.498 225.433 150.5 209.917C150.5 209.577 150.454 209.23 150.593 208.902Z" fill="#7D6DFF"/>
<path d="M181.642 101.366C185.452 100.862 188.869 101.726 192.044 103.733C195.578 105.966 198.6 108.836 201.781 111.505C206.053 115.09 210.282 118.743 214.159 122.747C220.027 128.807 222.219 136.06 219.672 144.198C217.734 150.392 213.48 154.516 206.722 155.163C202.244 155.592 198.676 153.546 195.905 150.111C193.438 147.055 192.464 143.455 192.401 139.6C192.334 135.49 192.327 131.377 192.367 127.267C192.463 117.418 189.077 109.012 182.059 102.083C181.922 101.948 181.788 101.81 181.66 101.666C181.637 101.64 181.653 101.579 181.642 101.366Z" fill="#CD8856"/>
<path d="M93.0561 101.568C94.5751 101.047 96.1441 101.29 97.6917 101.297C98.679 101.301 98.4218 101.821 97.985 102.305C97.003 103.393 95.9603 104.431 95.0336 105.563C90.4406 111.177 88.1143 117.639 88.0122 124.879C87.9425 129.818 88.0472 134.761 87.9384 139.699C87.8328 144.49 86.2315 148.668 82.5139 151.909C76.8755 156.823 68.7978 156.212 63.9766 150.46C58.7936 144.277 58.0431 135.022 62.1684 127.788C62.7679 126.737 63.2806 125.611 64.2153 124.781C68.4327 121.382 72.6245 117.951 76.7813 114.478C82.0666 110.062 87.2523 105.52 93.01 101.704C93.0415 101.683 93.0413 101.614 93.0561 101.568Z" fill="#CD8757"/>
<path d="M63.0859 244.721C62.8907 244.459 62.6946 244.197 62.8226 243.839C63.4754 243.317 63.5053 242.586 63.5028 241.838C63.4796 234.768 67.3417 229.972 72.7382 226.076C73.2815 225.684 74.0157 225.518 74.2637 224.779C75.4809 224.859 76.701 225.035 77.9161 224.805C78.9215 224.615 79.2526 224.93 79.2425 226.006C79.1948 231.095 79.2361 236.185 79.2487 241.275C79.2547 243.663 79.6984 244.112 82.0505 244.115C88.4628 244.122 94.875 244.124 101.287 244.133C104.014 244.137 106.576 244.749 108.895 246.236C108.969 246.523 108.815 246.743 108.587 246.812C107.734 247.07 107.745 247.499 108.163 248.185C108.471 248.691 108.528 249.291 108.033 249.789C107.359 249.9 106.984 249.371 106.508 249.068C105.436 248.385 104.366 247.718 103.01 247.834C102.019 247.92 101.236 248.326 100.804 249.257C100.355 250.224 100.698 251.049 101.313 251.811C101.871 252.503 102.644 252.933 103.327 253.473C103.638 253.719 104.206 253.754 104.135 254.356C102.609 254.523 102.182 255.052 102.427 256.513C102.507 256.987 102.645 257.452 102.757 257.921C103.034 258.447 102.738 258.639 102.28 258.7C101.743 258.771 101.2 258.728 100.675 258.614C93.7289 257.108 86.6137 256.845 79.6147 255.743C75.2201 255.051 71.0642 253.698 67.5652 250.768C65.9595 249.424 64.6921 247.849 63.8587 245.927C63.6662 245.484 63.5364 245 63.0859 244.721Z" fill="#FDD1A4"/>
<path d="M176.197 258.231C176.331 257.778 176.447 257.319 176.602 256.874C177.046 255.598 176.694 254.735 175.341 254.369C175.455 253.335 176.36 253.006 177.047 252.513C178.517 251.461 178.99 250.495 178.493 249.373C178.01 248.285 176.607 247.7 175.094 247.958C172.179 248.454 169.914 251.406 170.215 254.341C170.324 255.399 170.696 256.333 171.6 256.988C171.954 257.244 172.337 257.488 172.431 257.969C171.984 260.341 171.887 260.4 169.673 259.658C164.806 258.026 163.341 253.948 166.253 249.745C168.948 245.856 172.972 244.278 177.516 244.176C184.315 244.023 191.12 244.115 197.922 244.098C200.5 244.091 200.918 243.684 200.921 241.152C200.928 235.579 200.923 230.007 200.923 224.318C201.761 224.494 202.511 224.651 203.261 224.808C204.993 224.657 206.159 225.568 207.287 226.759C212.041 231.774 213.449 239.769 210.325 245.864C207.894 250.605 203.856 253.502 198.719 254.859C194.072 256.087 189.318 256.759 184.583 257.516C182.455 257.856 180.347 258.317 178.213 258.599C177.557 258.686 176.7 259.231 176.197 258.231Z" fill="#FCD1A5"/>
<path d="M145.645 210.701C146.191 211.044 145.935 211.595 145.936 212.034C145.949 227.247 145.93 242.459 145.955 257.672C145.957 258.773 145.511 258.977 144.525 259.179C141.546 259.791 138.615 259.51 135.657 259.131C134.868 259.03 134.732 258.671 134.672 257.998C134.442 255.455 134.668 252.916 134.671 250.375C134.684 239.075 134.682 227.775 134.69 216.474C134.691 215.693 134.739 214.911 134.765 214.13C135.371 213.588 136.122 213.636 136.852 213.631C139.005 213.614 141.158 213.595 143.31 213.636C144.474 213.659 145.215 213.379 145.143 212.03C145.117 211.543 145.238 211.053 145.645 210.701Z" fill="#7D6DFF"/>
<path d="M200.115 190.322C180.156 195.513 160.643 201.193 140.948 206.327C142.558 203.86 144.66 202.065 147.023 200.604C153.863 196.373 161.415 193.841 169.06 191.557C177.163 189.136 185.399 187.283 193.705 185.703C195.145 185.429 196.1 185.705 196.987 186.832C197.887 187.976 198.927 189.009 200.115 190.322Z" fill="#FCFDFD"/>
<path d="M139.202 206.241C136.864 206.257 134.82 205.581 132.801 204.962C121.965 201.637 111.021 198.697 100.102 195.666C93.9852 193.967 87.858 192.304 81.7231 190.671C80.5963 190.371 80.1248 190.191 81.0812 189.002C84.0087 185.364 83.9538 185.367 88.6385 186.206C98.424 187.958 108.061 190.304 117.44 193.602C123.903 195.875 130.288 198.381 135.746 202.701C136.997 203.69 138.266 204.681 139.202 206.241Z" fill="#FCFEFD"/>
<path d="M189.748 181.575C189.741 173.6 189.717 165.624 189.747 157.649C189.751 156.401 189.359 155.409 188.636 154.417C185.944 150.725 184.581 146.536 184.464 141.995C184.352 137.643 184.506 133.285 184.414 128.933C184.297 123.395 183.364 117.991 181.252 112.839C180.383 110.721 179.453 108.626 178.478 106.555C178.109 105.772 177.636 105 176.806 104.568C176.538 104.467 176.386 104.303 176.5 103.997C179.003 105.378 180.668 107.619 182.268 109.857C185.687 114.639 187.388 120.007 187.43 125.911C187.467 131.044 187.271 136.179 187.567 141.308C187.903 147.127 190.383 151.908 194.685 155.769C195.326 156.344 195.596 156.917 195.584 157.782C195.487 164.969 195.412 172.156 195.396 179.343C195.393 180.448 195.2 181.039 193.961 181.098C192.552 181.164 191.152 181.408 189.748 181.575Z" fill="#E4AC7C"/>
<path d="M176.197 258.231C178.359 258.399 180.4 257.682 182.492 257.352C187.869 256.507 193.271 255.787 198.552 254.419C203.357 253.174 207.21 250.52 209.647 246.2C211.907 242.193 211.95 237.849 210.698 233.466C209.883 230.612 208.149 228.377 206.156 226.248C205.312 225.347 204.312 225.109 203.261 224.809C204.334 224.773 205.408 224.756 206.479 224.695C206.989 224.667 207.445 224.759 207.873 225.034C214.17 229.065 218.069 234.702 217.074 242.955C216.219 250.058 210.481 256.319 203.421 258.258C199.662 259.291 195.857 259.031 192.056 259.02C188.831 259.01 185.605 258.896 182.381 258.783C181.158 258.74 180.112 259.303 178.986 259.595C177.917 259.872 176.878 260.308 175.628 260.234C175.882 259.516 175.781 258.812 176.197 258.231Z" fill="#E5A876"/>
<path d="M102.187 106.946C100.857 107.895 100.589 109.505 100.014 110.835C98.6512 113.99 97.4001 117.209 96.8009 120.639C96.2283 123.915 95.9048 127.198 95.9621 130.527C96.0159 133.658 95.9154 136.791 95.9818 139.921C96.1258 146.708 94.2101 152.809 90.0169 158.161C88.8676 159.628 87.5106 160.912 85.9014 161.868C85.3956 162.168 85.1411 162.58 84.8612 163.023C84.8458 162.78 84.8399 162.536 84.8135 162.294C84.4132 158.64 85.0863 155.643 88.0748 152.871C91.5611 149.637 92.6163 144.971 92.7207 140.254C92.8278 135.416 92.7126 130.574 92.791 125.735C92.9556 115.597 97.5118 107.799 105.648 101.957C105.996 101.707 106.412 101.553 106.796 101.354C107.04 101.799 106.745 102.115 106.487 102.379C105.227 103.669 104.066 105.038 103.037 106.519C102.839 106.806 102.587 107.037 102.187 106.946Z" fill="#E7AC79"/>
<path d="M102.187 106.946C103.543 104.933 105.284 103.237 106.797 101.354C112.986 96.8201 120.001 94.2539 127.433 92.651C140.703 89.7888 153.472 91.3829 165.764 96.9935C169.145 98.5369 172.347 100.436 175.224 102.828C175.667 103.197 176.075 103.606 176.5 103.997C176.602 104.187 176.704 104.377 176.806 104.568C176.708 105.117 177.02 105.476 177.35 105.858C177.602 106.151 178.201 106.468 177.682 106.921C177.336 107.223 176.936 106.845 176.672 106.583C175.066 104.991 173.143 103.831 171.22 102.703C165.618 99.4167 159.728 96.8324 153.353 95.3852C148.293 94.2365 143.225 93.4586 138.007 93.6531C133.994 93.8026 130.142 94.7316 126.263 95.5985C123.286 96.2638 120.406 97.2483 117.598 98.3953C114.16 99.7994 110.729 101.265 107.736 103.542C106.072 104.807 104.399 106.06 102.749 107.342C102.036 107.896 102.228 107.282 102.187 106.946Z" fill="#FBFCFB"/>
<path d="M198.595 214.735C197.507 212.612 198.841 208.219 201.672 206.212C202.669 205.506 203.68 204.82 204.69 204.133C206.151 203.14 207.207 201.838 207.806 200.023C209.548 201.257 210.708 202.897 211.638 204.716C214.168 209.667 212.898 215.551 208.647 218.684C205.548 220.967 201.263 220.085 199.428 216.786C199.151 215.959 199.805 216.054 200.23 216.038C201.4 215.994 202.572 216.035 203.743 216.026C204.035 216.023 204.33 216.036 204.62 215.992C205.042 215.927 205.642 215.966 205.656 215.409C205.673 214.769 205.036 214.728 204.567 214.704C202.96 214.619 201.35 214.584 199.743 214.736C199.36 214.772 198.978 214.926 198.595 214.735Z" fill="#FBD0A3"/>
<path d="M73.3565 200.995C74.8601 202.989 76.8701 204.308 79.0687 205.429C81.4121 206.624 83.4593 208.165 84.2699 210.858C84.4409 211.752 84.0349 211.715 83.5614 211.233C82.9919 210.654 82.3708 210.236 81.5697 210.086C81.0407 209.987 80.591 210.09 80.2951 210.57C80.0245 211.008 80.1879 211.422 80.4362 211.803C80.8938 212.505 81.5841 213.003 82.0943 213.658C82.8648 214.646 82.6158 215.248 81.3594 215.44C80.7789 215.53 80.1887 215.489 79.6025 215.489C78.8684 215.489 78.1301 215.484 77.4177 215.674C77.0328 215.776 76.3747 215.686 76.4352 216.283C76.4819 216.745 77.066 216.645 77.4334 216.643C78.7122 216.635 79.9547 216.941 81.2206 217.044C81.9073 217.099 82.5371 217.289 82.1541 218.229C78.8984 221.065 73.3954 220.541 70.1686 217.087C67.5643 211.373 68.4424 205.904 72.6669 201.517C72.8701 201.305 73.0623 201.084 73.3565 200.995Z" fill="#FCD0A4"/>
<path d="M63.0859 244.721C63.4213 244.295 63.6271 244.338 63.8743 244.842C64.3858 245.885 64.7733 246.979 65.5037 247.927C68.4218 251.716 72.4182 253.668 76.9404 254.695C82.111 255.87 87.4055 256.166 92.6528 256.799C95.2531 257.113 97.8472 257.494 100.41 258.074C101.163 258.243 102.027 258.697 102.757 257.921C102.816 257.998 102.91 258.067 102.929 258.153C103.06 258.763 103.631 259.515 103.227 259.943C102.765 260.433 101.947 259.993 101.3 259.826C99.2329 259.293 97.2344 258.798 94.997 258.9C89.678 259.143 84.3332 259.31 79.0123 258.842C71.4399 258.175 64.1519 251.665 63.0859 244.721Z" fill="#E2A879"/>
<path d="M108.02 249.73C108.081 248.999 107.988 248.361 107.445 247.753C106.845 247.081 106.611 246.402 108.036 246.664C108.288 246.71 108.607 246.388 108.895 246.236C111.751 247.534 113.805 249.594 114.517 252.693C115.11 255.275 113.813 257.673 111.395 258.872C110.655 259.239 109.865 259.52 109.077 259.774C107.177 260.387 107.069 260.306 106.77 258.31C106.874 257.808 107.214 257.477 107.572 257.141C109.462 255.361 109.709 253.996 108.693 251.575C108.441 250.976 107.827 250.494 108.02 249.73Z" fill="#ECB886"/>
<path d="M108.02 249.73C110.523 252.771 110.548 256.009 106.77 258.31C106.066 256.876 105.734 255.196 104.137 254.356C102.93 253.752 101.778 253.085 100.893 252.024C100.183 251.174 99.8338 250.239 100.273 249.196C100.743 248.079 101.642 247.481 102.878 247.379C105.041 247.2 106.52 248.481 108.02 249.73Z" fill="#FDFDFC"/>
<path d="M172.431 257.969C168.886 256.904 169.151 251.744 171.411 249.607C172.577 248.504 173.744 247.613 175.378 247.411C176.818 247.234 178.559 248.079 179.042 249.274C179.551 250.532 178.914 251.867 177.433 252.81C176.702 253.276 176.036 253.846 175.341 254.369C173.459 254.832 173.182 256.592 172.431 257.969Z" fill="#FDFDFC"/>
<path d="M93.0564 101.567C93.443 101.728 93.441 101.864 93.0852 102.109C88.0479 105.567 83.3979 109.516 78.696 113.404C74.4841 116.887 70.4138 120.547 65.9883 123.767C65.4411 124.165 65.0645 124.899 64.2153 124.781C66.0833 122.181 68.4247 120.025 70.8023 117.925C76.1477 113.202 81.3899 108.351 87.2224 104.212C88.9923 102.955 90.9215 102.029 93.0564 101.567Z" fill="#FAF8F5"/>
<path d="M74.2639 224.779C74.2851 225.036 75.3442 225.056 74.4013 225.549C72.0486 226.778 70.0737 228.514 68.362 230.505C65.4592 233.881 63.6898 237.728 63.9389 242.31C63.9822 243.105 64.0608 243.962 62.8229 243.839C61.6986 238.306 63.1693 233.447 66.6765 229.134C67.7897 227.765 69.2106 226.724 70.555 225.594C71.7089 224.623 72.8285 224.155 74.2639 224.779Z" fill="#F9F8F6"/>
<path d="M145.645 210.701C145.717 214.131 145.718 214.122 142.256 214.11C139.759 214.102 137.262 214.123 134.765 214.13C134.356 210.682 134.356 210.689 137.787 210.702C140.406 210.712 143.026 210.702 145.645 210.701Z" fill="#F7FBFB"/>
<path d="M82.1537 218.229C81.9654 217.924 82.1113 217.489 81.3877 217.487C79.8451 217.484 78.3219 217.014 76.7551 217.095C76.1602 217.125 75.7064 217 75.6969 216.238C75.6874 215.503 76.1054 215.42 76.7008 215.299C78.1989 214.996 79.7054 215.073 81.2113 215.039C81.5939 215.03 82.0801 215.118 82.2379 214.68C82.3689 214.316 81.9533 214.102 81.7244 213.865C81.1498 213.268 80.5093 212.727 79.9962 212.083C79.5228 211.489 79.2832 210.796 79.9118 210.098C80.4646 209.484 81.069 209.315 81.8696 209.633C82.7235 209.972 83.5978 210.194 84.004 211.183C84.0807 211.37 84.1599 210.963 84.2695 210.858C85.4072 213.655 84.511 216.777 82.1537 218.229Z" fill="#E1A875"/>
<path d="M73.3563 200.994C73.1415 202.383 71.8609 203.056 71.1826 204.157C69.2157 207.352 68.7852 210.728 69.2931 214.311C69.4283 215.264 70.519 215.953 70.1682 217.087C67.1981 213.993 66.797 210.352 67.9299 206.407C68.7323 203.612 70.3521 201.364 72.6987 199.517C72.9292 200.035 73.1427 200.515 73.3563 200.994Z" fill="#FAF5F3"/>
<path d="M83.886 223.286C83.9076 228.176 83.9634 233.067 83.9253 237.956C83.9163 239.103 84.2268 239.462 85.4015 239.448C90.9767 239.382 96.553 239.407 102.129 239.399C104.104 239.396 106.004 239.752 107.805 240.586C101.022 239.6 94.1959 240.156 87.389 240.035C86.5403 240.02 85.6432 239.794 84.8616 240.468C84.5424 240.743 84.1379 240.587 83.9211 240.126C83.6324 239.511 83.3178 238.948 83.3238 238.208C83.3604 233.704 83.343 229.201 83.3419 224.698C83.3419 224.155 83.2985 223.6 83.886 223.286Z" fill="#2E0A09"/>
<path d="M198.595 214.735C199.031 214.421 199.457 214.146 200.049 214.157C201.705 214.19 203.364 214.127 205.019 214.192C205.698 214.218 206.463 214.451 206.442 215.342C206.421 216.269 205.734 216.521 204.912 216.514C203.304 216.501 201.696 216.509 200.089 216.471C199.775 216.463 199.511 216.385 199.428 216.786C198.921 216.196 198.677 215.499 198.595 214.735Z" fill="#E9AE7B"/>
<path d="M150.593 208.902C150.616 215.601 150.655 222.301 150.659 229C150.665 238.538 150.646 248.075 150.637 257.612C150.172 257.172 150.358 256.599 150.357 256.084C150.346 240.823 150.345 225.562 150.349 210.301C150.349 209.827 150.203 209.313 150.593 208.902Z" fill="#101015"/>
<path d="M85.4553 221.833C85.0566 222.364 84.5707 222.788 83.9629 223.065C84.1402 222.267 84.5695 221.773 85.4553 221.833Z" fill="#2E0A09"/>
<path d="M170.719 141.655C170.708 144.83 167.989 147.467 164.764 147.433C161.687 147.401 159.237 144.79 159.261 141.57C159.285 138.431 161.944 135.769 165.073 135.75C168.165 135.732 170.73 138.415 170.719 141.655Z" fill="#360A02"/>
<path d="M120.969 141.592C120.981 144.768 118.429 147.345 115.204 147.411C112.12 147.474 109.588 144.821 109.561 141.499C109.535 138.399 112.288 135.688 115.406 135.74C118.499 135.793 120.957 138.377 120.969 141.592Z" fill="#380A03"/>
<path d="M182.08 153.784C182.451 156.597 178.884 159.13 175.367 158.565C174.063 158.356 172.788 158 171.872 156.956C170.208 155.06 169.913 153.35 170.903 151.633C172.072 149.606 174.747 148.303 177.01 148.699C178.011 148.875 178.99 149.109 179.863 149.711C181.325 150.719 182.287 151.957 182.08 153.784Z" fill="#FE8F8B"/>
<path d="M109.805 153.848C110.169 156.041 107.776 158.106 105.891 158.365C104.571 158.547 103.304 158.688 101.989 158.34C100.113 157.845 98.8613 156.654 98.4413 154.84C98.016 153.002 98.3097 151.291 100.098 150.068C102.622 148.341 105.377 148.209 107.706 149.778C109.18 150.771 109.867 152.098 109.805 153.848Z" fill="#FD908B"/>
<path d="M140.341 146.863C141.712 146.814 143.08 146.806 144.421 147.172C147.107 147.903 149.093 150.228 149.022 152.581C148.95 154.953 146.777 157.613 144.237 158.032C142.788 158.27 142.659 158.937 142.847 160.092C142.997 161.011 143.084 161.935 143.572 162.759C144.634 164.549 146.063 165.858 148.266 165.713C150.393 165.574 151.879 164.376 152.751 162.422C153.528 160.677 154.312 160.207 155.514 160.73C156.616 161.209 157.098 162.67 156.535 164.151C155.378 167.195 153.205 169.205 150.033 169.932C149.018 170.165 148.884 170.519 148.902 171.433C148.986 175.674 146.913 179.042 143.441 180.477C137.884 182.773 131.815 178.958 131.473 172.952C131.464 172.805 131.442 172.656 131.461 172.512C131.655 171.008 131.299 170.183 129.549 169.721C126.766 168.987 124.911 166.934 123.833 164.235C123.569 163.573 123.494 162.891 123.66 162.219C123.891 161.282 124.494 160.689 125.501 160.6C126.432 160.518 127.129 160.831 127.453 161.771C127.548 162.047 127.655 162.321 127.779 162.585C128.78 164.728 130.878 166.012 132.919 165.738C135.229 165.428 137.023 163.727 137.479 161.386C137.581 160.86 137.601 160.318 137.687 159.788C137.846 158.805 137.527 158.425 136.459 158.182C132.162 157.201 130.203 152.656 132.591 149.401C133.88 147.644 135.799 147.08 137.845 146.876C138.669 146.794 139.508 146.863 140.341 146.863Z" fill="#370902"/>
<path d="M187.457 218.252C187.457 221.582 187.418 224.912 187.476 228.241C187.5 229.618 186.879 230.296 185.618 230.631C177.114 232.885 168.639 235.243 160.202 237.736C157.929 238.408 157.09 237.769 157.09 235.404C157.09 228.94 157.125 222.476 157.103 216.012C157.098 214.601 157.578 213.695 159 213.304C167.585 210.944 176.161 208.553 184.745 206.19C186.578 205.686 187.431 206.346 187.444 208.263C187.467 211.592 187.45 214.922 187.45 218.252C187.453 218.252 187.455 218.252 187.457 218.252Z" fill="#FDFEFE"/>
<path d="M144.945 171.052C144.813 172.693 144.643 174.212 143.391 175.403C141.12 177.564 137.696 177.01 136.26 174.21C135.687 173.092 135.565 171.888 135.463 170.67C135.417 170.123 135.592 169.732 136.131 169.515C137.425 168.995 138.468 168.111 139.41 167.116C139.928 166.568 140.345 166.534 140.828 167.106C141.757 168.205 142.866 169.055 144.232 169.543C145.02 169.825 144.946 170.494 144.945 171.052Z" fill="#FC9588"/>
<path fill-rule="evenodd" clip-rule="evenodd" d="M171.798 216.752C171.784 216.211 171.876 215.693 172.099 215.195C172.402 214.518 172.872 214.102 173.652 214.095C174.38 214.089 174.854 214.477 175.099 215.104C175.307 215.638 175.491 216.21 175.53 216.776C175.626 218.146 174.736 219.35 173.719 219.349C172.532 219.348 171.77 218.318 171.798 216.752ZM168.028 222.32C169.016 222.036 169.535 221.281 169.443 220.188C169.298 218.951 169.047 217.735 167.752 217.175C167.145 216.912 166.469 217.034 166.018 217.592C165.136 218.684 165.341 219.901 165.834 221.045C166.221 221.941 166.949 222.63 168.028 222.32ZM172.585 227.891L172.586 227.891L172.587 227.891C172.81 227.823 173.03 227.755 173.248 227.69C173.568 227.767 173.879 227.848 174.185 227.928C174.861 228.104 175.51 228.273 176.169 228.378C177.162 228.535 178.119 228.398 178.782 227.494C179.404 226.647 179.111 225.835 178.691 225.025C176.358 220.512 172.864 219.958 169.429 223.563C169.059 223.951 168.688 224.348 168.385 224.787C167.779 225.663 167.337 226.618 168.026 227.634C168.743 228.692 169.804 228.706 170.913 228.39C171.477 228.229 172.037 228.058 172.585 227.891ZM179.371 222.333C180.555 222.387 181.528 221.064 181.579 219.332C181.619 217.959 181.058 217.141 180.04 217.09C178.869 217.03 177.771 218.459 177.69 220.147C177.632 221.362 178.343 222.286 179.371 222.333Z" fill="#7D6DFF"/>
</g>
<path fill-rule="evenodd" clip-rule="evenodd" d="M140.161 357.5C141.87 355.653 142.774 352.789 141.824 348.041C141.9 348.095 141.978 348.15 142.057 348.206C144.394 349.87 148.118 352.521 148.688 357.5H215C223.284 357.5 230 364.216 230 372.5C230 380.784 223.284 387.5 215 387.5H65C56.7157 387.5 50 380.784 50 372.5C50 364.216 56.7157 357.5 65 357.5H140.161Z" fill="white"/>
<path d="M67.2148 369.555H64.9297V378.5H62.8398V369.555H61.1992V367.895H62.8398V366.664C62.8464 365.727 63.1296 364.997 63.6895 364.477C64.2559 363.956 65.0273 363.695 66.0039 363.695C66.4792 363.695 66.9544 363.741 67.4297 363.832V365.57C67.0846 365.518 66.7917 365.492 66.5508 365.492C65.9974 365.492 65.5872 365.613 65.3203 365.854C65.0599 366.088 64.9297 366.462 64.9297 366.977V367.895H67.2148V369.555ZM73.1719 378.715C72.1823 378.715 71.3099 378.487 70.5547 378.031C69.806 377.576 69.2266 376.938 68.8164 376.117C68.4128 375.29 68.2109 374.333 68.2109 373.246C68.2109 372.159 68.4128 371.202 68.8164 370.375C69.2266 369.542 69.806 368.897 70.5547 368.441C71.3099 367.986 72.1823 367.758 73.1719 367.758C74.1549 367.758 75.0208 367.986 75.7695 368.441C76.5182 368.897 77.0944 369.542 77.498 370.375C77.9082 371.202 78.1133 372.159 78.1133 373.246C78.1133 374.333 77.9082 375.29 77.498 376.117C77.0944 376.938 76.5182 377.576 75.7695 378.031C75.0208 378.487 74.1549 378.715 73.1719 378.715ZM70.3008 373.246C70.3008 373.943 70.4082 374.574 70.623 375.141C70.8379 375.701 71.1602 376.146 71.5898 376.479C72.0195 376.811 72.5469 376.977 73.1719 376.977C73.7839 376.977 74.3014 376.811 74.7246 376.479C75.1543 376.146 75.4733 375.701 75.6816 375.141C75.8965 374.574 76.0039 373.943 76.0039 373.246C76.0039 372.549 75.8965 371.918 75.6816 371.352C75.4733 370.779 75.1543 370.323 74.7246 369.984C74.3014 369.646 73.7839 369.477 73.1719 369.477C72.5469 369.477 72.0195 369.646 71.5898 369.984C71.1602 370.323 70.8379 370.779 70.623 371.352C70.4082 371.918 70.3008 372.549 70.3008 373.246ZM80.1641 367.895H82.1758V369.574H82.293C82.4883 369.014 82.8268 368.568 83.3086 368.236C83.7969 367.904 84.347 367.738 84.959 367.738C85.265 367.738 85.5677 367.751 85.8672 367.777V369.77C85.75 369.743 85.5807 369.717 85.3594 369.691C85.1445 369.665 84.9427 369.652 84.7539 369.652C84.2786 369.652 83.8522 369.757 83.4746 369.965C83.097 370.167 82.7975 370.45 82.5762 370.814C82.3613 371.173 82.2539 371.579 82.2539 372.035V378.5H80.1641V367.895ZM92.4883 364.359H94.5586V369.613H94.6758C94.8646 369.281 95.0664 368.988 95.2812 368.734C95.4961 368.48 95.8053 368.256 96.209 368.061C96.6191 367.859 97.1237 367.758 97.7227 367.758C98.582 367.758 99.3503 367.976 100.027 368.412C100.704 368.848 101.235 369.48 101.619 370.307C102.003 371.127 102.195 372.1 102.195 373.227C102.195 374.34 102.003 375.313 101.619 376.146C101.235 376.973 100.708 377.608 100.037 378.051C99.3665 378.487 98.6016 378.708 97.7422 378.715C97.1497 378.715 96.6484 378.614 96.2383 378.412C95.8346 378.21 95.5189 377.979 95.291 377.719C95.0632 377.452 94.8581 377.159 94.6758 376.84H94.5195V378.5H92.4883V364.359ZM94.5195 373.188C94.5195 373.93 94.627 374.584 94.8418 375.15C95.0566 375.71 95.3724 376.15 95.7891 376.469C96.2057 376.781 96.7005 376.938 97.2734 376.938C97.8659 376.938 98.3704 376.775 98.7871 376.449C99.2103 376.124 99.5293 375.681 99.7441 375.121C99.959 374.555 100.066 373.91 100.066 373.188C100.066 372.478 99.959 371.85 99.7441 371.303C99.5358 370.749 99.2233 370.316 98.8066 370.004C98.39 369.691 97.8789 369.535 97.2734 369.535C96.6875 369.535 96.1862 369.685 95.7695 369.984C95.3594 370.277 95.0469 370.701 94.832 371.254C94.6237 371.801 94.5195 372.445 94.5195 373.188ZM111.004 367.895H113.074V378.5H111.043V376.664H110.926C110.672 377.257 110.271 377.735 109.725 378.1C109.184 378.458 108.53 378.637 107.762 378.637C107.072 378.637 106.463 378.484 105.936 378.178C105.408 377.872 104.998 377.419 104.705 376.82C104.412 376.215 104.266 375.486 104.266 374.633V367.895H106.355V374.379C106.355 374.854 106.447 375.271 106.629 375.629C106.811 375.987 107.062 376.264 107.381 376.459C107.706 376.648 108.081 376.742 108.504 376.742C108.914 376.742 109.311 376.645 109.695 376.449C110.079 376.247 110.392 375.948 110.633 375.551C110.88 375.147 111.004 374.659 111.004 374.086V367.895ZM121.57 370.785C121.473 370.349 121.251 370.01 120.906 369.77C120.568 369.522 120.118 369.398 119.559 369.398C119.168 369.398 118.82 369.46 118.514 369.584C118.208 369.708 117.967 369.877 117.791 370.092C117.615 370.307 117.527 370.548 117.527 370.814C117.527 371.133 117.658 371.407 117.918 371.635C118.185 371.863 118.608 372.042 119.188 372.172L120.867 372.562C121.844 372.784 122.57 373.132 123.045 373.607C123.527 374.076 123.771 374.685 123.777 375.434C123.771 376.072 123.592 376.641 123.24 377.143C122.895 377.637 122.397 378.025 121.746 378.305C121.095 378.578 120.327 378.715 119.441 378.715C118.178 378.715 117.176 378.448 116.434 377.914C115.691 377.374 115.255 376.605 115.125 375.609H117.254C117.443 376.56 118.152 377.035 119.383 377.035C120.073 377.035 120.62 376.908 121.023 376.654C121.434 376.394 121.642 376.039 121.648 375.59C121.642 375.245 121.505 374.962 121.238 374.74C120.978 374.512 120.568 374.333 120.008 374.203L118.348 373.852C117.397 373.643 116.674 373.292 116.18 372.797C115.685 372.296 115.438 371.677 115.438 370.941C115.438 370.316 115.607 369.763 115.945 369.281C116.29 368.799 116.772 368.425 117.391 368.158C118.016 367.891 118.732 367.758 119.539 367.758C120.314 367.758 120.994 367.882 121.58 368.129C122.166 368.376 122.628 368.728 122.967 369.184C123.305 369.639 123.51 370.173 123.582 370.785H121.57ZM125.809 367.895H127.898V378.5H125.809V367.895ZM126.844 366.254C126.609 366.254 126.391 366.199 126.189 366.088C125.994 365.977 125.835 365.827 125.711 365.639C125.594 365.45 125.535 365.245 125.535 365.023C125.535 364.802 125.594 364.597 125.711 364.408C125.835 364.219 125.997 364.07 126.199 363.959C126.408 363.848 126.629 363.793 126.863 363.793C127.098 363.793 127.316 363.848 127.518 363.959C127.719 364.07 127.879 364.219 127.996 364.408C128.113 364.597 128.172 364.802 128.172 365.023C128.172 365.251 128.11 365.46 127.986 365.648C127.869 365.837 127.71 365.987 127.508 366.098C127.306 366.202 127.085 366.254 126.844 366.254ZM132.527 378.5H130.438V367.895H132.449V369.633H132.566C132.82 369.04 133.211 368.581 133.738 368.256C134.272 367.924 134.923 367.758 135.691 367.758C136.421 367.758 137.055 367.911 137.596 368.217C138.143 368.523 138.562 368.975 138.855 369.574C139.155 370.173 139.305 370.902 139.305 371.762V378.5H137.234V372.016C137.228 371.241 137.026 370.639 136.629 370.209C136.238 369.773 135.691 369.555 134.988 369.555C134.507 369.555 134.08 369.659 133.709 369.867C133.338 370.076 133.048 370.382 132.84 370.785C132.632 371.182 132.527 371.658 132.527 372.211V378.5ZM146.414 378.715C145.385 378.715 144.49 378.49 143.729 378.041C142.967 377.592 142.384 376.957 141.98 376.137C141.577 375.316 141.375 374.359 141.375 373.266C141.375 372.185 141.577 371.228 141.98 370.395C142.384 369.561 142.957 368.913 143.699 368.451C144.441 367.989 145.301 367.758 146.277 367.758C147.13 367.758 147.911 367.943 148.621 368.314C149.331 368.686 149.9 369.271 150.33 370.072C150.766 370.867 150.984 371.872 150.984 373.09V373.832H143.445C143.465 374.496 143.602 375.066 143.855 375.541C144.109 376.016 144.458 376.378 144.9 376.625C145.343 376.872 145.854 376.996 146.434 376.996C146.993 376.996 147.469 376.892 147.859 376.684C148.257 376.469 148.549 376.189 148.738 375.844H150.848C150.691 376.417 150.411 376.921 150.008 377.357C149.604 377.787 149.096 378.122 148.484 378.363C147.872 378.598 147.182 378.715 146.414 378.715ZM148.934 372.27C148.934 371.736 148.823 371.257 148.602 370.834C148.387 370.404 148.077 370.072 147.674 369.838C147.277 369.597 146.818 369.477 146.297 369.477C145.757 369.477 145.275 369.604 144.852 369.857C144.435 370.105 144.106 370.443 143.865 370.873C143.624 371.303 143.488 371.768 143.455 372.27H148.934ZM159.012 370.785C158.914 370.349 158.693 370.01 158.348 369.77C158.009 369.522 157.56 369.398 157 369.398C156.609 369.398 156.261 369.46 155.955 369.584C155.649 369.708 155.408 369.877 155.232 370.092C155.057 370.307 154.969 370.548 154.969 370.814C154.969 371.133 155.099 371.407 155.359 371.635C155.626 371.863 156.049 372.042 156.629 372.172L158.309 372.562C159.285 372.784 160.011 373.132 160.486 373.607C160.968 374.076 161.212 374.685 161.219 375.434C161.212 376.072 161.033 376.641 160.682 377.143C160.337 377.637 159.839 378.025 159.188 378.305C158.536 378.578 157.768 378.715 156.883 378.715C155.62 378.715 154.617 378.448 153.875 377.914C153.133 377.374 152.697 376.605 152.566 375.609H154.695C154.884 376.56 155.594 377.035 156.824 377.035C157.514 377.035 158.061 376.908 158.465 376.654C158.875 376.394 159.083 376.039 159.09 375.59C159.083 375.245 158.947 374.962 158.68 374.74C158.419 374.512 158.009 374.333 157.449 374.203L155.789 373.852C154.839 373.643 154.116 373.292 153.621 372.797C153.126 372.296 152.879 371.677 152.879 370.941C152.879 370.316 153.048 369.763 153.387 369.281C153.732 368.799 154.214 368.425 154.832 368.158C155.457 367.891 156.173 367.758 156.98 367.758C157.755 367.758 158.436 367.882 159.021 368.129C159.607 368.376 160.07 368.728 160.408 369.184C160.747 369.639 160.952 370.173 161.023 370.785H159.012ZM169.207 370.785C169.109 370.349 168.888 370.01 168.543 369.77C168.204 369.522 167.755 369.398 167.195 369.398C166.805 369.398 166.456 369.46 166.15 369.584C165.844 369.708 165.604 369.877 165.428 370.092C165.252 370.307 165.164 370.548 165.164 370.814C165.164 371.133 165.294 371.407 165.555 371.635C165.822 371.863 166.245 372.042 166.824 372.172L168.504 372.562C169.48 372.784 170.206 373.132 170.682 373.607C171.163 374.076 171.408 374.685 171.414 375.434C171.408 376.072 171.229 376.641 170.877 377.143C170.532 377.637 170.034 378.025 169.383 378.305C168.732 378.578 167.964 378.715 167.078 378.715C165.815 378.715 164.812 378.448 164.07 377.914C163.328 377.374 162.892 376.605 162.762 375.609H164.891C165.079 376.56 165.789 377.035 167.02 377.035C167.71 377.035 168.257 376.908 168.66 376.654C169.07 376.394 169.279 376.039 169.285 375.59C169.279 375.245 169.142 374.962 168.875 374.74C168.615 374.512 168.204 374.333 167.645 374.203L165.984 373.852C165.034 373.643 164.311 373.292 163.816 372.797C163.322 372.296 163.074 371.677 163.074 370.941C163.074 370.316 163.243 369.763 163.582 369.281C163.927 368.799 164.409 368.425 165.027 368.158C165.652 367.891 166.368 367.758 167.176 367.758C167.951 367.758 168.631 367.882 169.217 368.129C169.803 368.376 170.265 368.728 170.604 369.184C170.942 369.639 171.147 370.173 171.219 370.785H169.207Z" fill="#390A03"/>
<g clip-path="url(#clip1_1037_20414)">
<rect x="178.648" y="359.5" width="48" height="24" rx="12" fill="#7D6DFF"/>
<path d="M187.318 364.971H191.459C192.24 364.971 192.899 365.099 193.436 365.354C193.972 365.609 194.373 365.961 194.639 366.409C194.904 366.857 195.037 367.367 195.037 367.94C195.037 368.601 194.86 369.13 194.506 369.526C194.157 369.917 193.699 370.185 193.131 370.331V370.44C193.521 370.461 193.896 370.586 194.256 370.815C194.615 371.044 194.907 371.367 195.131 371.784C195.36 372.195 195.475 372.68 195.475 373.237C195.475 373.831 195.337 374.357 195.061 374.815C194.785 375.273 194.36 375.633 193.787 375.893C193.214 376.153 192.501 376.284 191.646 376.284H187.318V364.971ZM191.49 374.815C192.266 374.81 192.839 374.659 193.209 374.362C193.584 374.06 193.771 373.659 193.771 373.159C193.771 372.794 193.68 372.463 193.498 372.167C193.316 371.87 193.055 371.635 192.717 371.463C192.383 371.292 191.995 371.206 191.553 371.206H189.037V374.815H191.49ZM191.318 369.862C191.699 369.857 192.042 369.781 192.35 369.635C192.662 369.489 192.907 369.284 193.084 369.018C193.261 368.747 193.35 368.435 193.35 368.081C193.35 367.591 193.178 367.195 192.834 366.893C192.495 366.591 192.001 366.44 191.35 366.44H189.037V369.862H191.318ZM200.834 376.456C200.011 376.456 199.295 376.276 198.686 375.917C198.076 375.557 197.61 375.049 197.287 374.393C196.964 373.737 196.803 372.971 196.803 372.096C196.803 371.232 196.964 370.466 197.287 369.799C197.61 369.133 198.068 368.614 198.662 368.245C199.256 367.875 199.943 367.69 200.725 367.69C201.407 367.69 202.032 367.838 202.6 368.135C203.167 368.432 203.623 368.901 203.967 369.542C204.316 370.177 204.49 370.982 204.49 371.956V372.549H198.459C198.475 373.081 198.584 373.536 198.787 373.917C198.99 374.297 199.269 374.586 199.623 374.784C199.977 374.982 200.386 375.081 200.85 375.081C201.298 375.081 201.678 374.997 201.99 374.831C202.308 374.659 202.542 374.435 202.693 374.159H204.381C204.256 374.617 204.032 375.021 203.709 375.37C203.386 375.713 202.98 375.982 202.49 376.174C202.001 376.362 201.449 376.456 200.834 376.456ZM202.85 371.299C202.85 370.872 202.761 370.489 202.584 370.151C202.412 369.807 202.165 369.542 201.842 369.354C201.524 369.161 201.157 369.065 200.74 369.065C200.308 369.065 199.923 369.167 199.584 369.37C199.251 369.568 198.988 369.838 198.795 370.182C198.602 370.526 198.493 370.898 198.467 371.299H202.85ZM210.115 369.127H208.381V373.784C208.386 374.221 208.477 374.521 208.654 374.682C208.831 374.838 209.079 374.919 209.396 374.924C209.646 374.924 209.928 374.909 210.24 374.877V376.331C209.938 376.372 209.589 376.393 209.193 376.393C208.74 376.393 208.326 376.31 207.951 376.143C207.576 375.976 207.277 375.724 207.053 375.385C206.829 375.042 206.719 374.622 206.725 374.127V369.127H205.475V367.799H206.725V365.768H208.381V367.799H210.115V369.127ZM211.35 373.893C211.344 373.013 211.639 372.385 212.232 372.01C212.831 371.635 213.594 371.414 214.521 371.346C215.725 371.278 216.467 371.239 216.748 371.229L216.74 370.549C216.745 370.065 216.6 369.693 216.303 369.432C216.011 369.167 215.584 369.034 215.021 369.034C214.548 369.034 214.16 369.133 213.857 369.331C213.555 369.523 213.36 369.784 213.271 370.112H211.615C211.667 369.643 211.842 369.226 212.139 368.862C212.436 368.492 212.837 368.206 213.342 368.002C213.847 367.794 214.428 367.69 215.084 367.69C215.62 367.69 216.136 367.773 216.631 367.94C217.131 368.101 217.553 368.403 217.896 368.846C218.24 369.284 218.412 369.883 218.412 370.643V376.284H216.787V375.127H216.725C216.532 375.497 216.225 375.815 215.803 376.081C215.381 376.341 214.85 376.471 214.209 376.471C213.667 376.471 213.178 376.37 212.74 376.167C212.308 375.963 211.967 375.669 211.717 375.284C211.472 374.893 211.35 374.43 211.35 373.893ZM212.975 373.909C212.975 374.305 213.12 374.609 213.412 374.823C213.709 375.031 214.1 375.138 214.584 375.143C215.021 375.143 215.404 375.055 215.732 374.877C216.061 374.7 216.313 374.466 216.49 374.174C216.667 373.877 216.756 373.56 216.756 373.221L216.748 372.448L214.756 372.581C214.188 372.622 213.748 372.752 213.436 372.971C213.128 373.19 212.975 373.502 212.975 373.909Z" fill="white"/>
</g>
<path d="M94.5469 329.094H87.8438V319.391H80.4844V326.891H59.8594V307.109H80.4844V313.953H87.8438V303.969H94.5469V329.094ZM64.8281 338.516C64.8281 336.766 65.4219 335.258 66.6094 333.992C67.8125 332.727 69.5312 331.766 71.7656 331.109C74 330.453 76.6406 330.125 79.6875 330.125C82.7812 330.125 85.4453 330.453 87.6797 331.109C89.9297 331.766 91.6562 332.727 92.8594 333.992C94.0781 335.258 94.6875 336.766 94.6875 338.516C94.6875 340.312 94.0859 341.844 92.8828 343.109C91.6797 344.375 89.9531 345.328 87.7031 345.969C85.4688 346.625 82.7969 346.953 79.6875 346.953C76.625 346.953 73.9766 346.625 71.7422 345.969C69.5234 345.328 67.8125 344.375 66.6094 343.109C65.4219 341.844 64.8281 340.312 64.8281 338.516ZM73.875 321.547V312.406H66.5625V321.547H73.875ZM71.5312 338.516C71.5312 339.641 72.2109 340.477 73.5703 341.023C74.9453 341.57 76.9844 341.844 79.6875 341.844C82.4531 341.844 84.5234 341.57 85.8984 341.023C87.2734 340.477 87.9688 339.641 87.9844 338.516C87.9688 337.438 87.2734 336.641 85.8984 336.125C84.5234 335.594 82.4531 335.312 79.6875 335.281C76.9688 335.312 74.9297 335.594 73.5703 336.125C72.2109 336.641 71.5312 337.438 71.5312 338.516ZM138.891 334.766H122.531V347H115.781V334.766H99.5625V329.281H138.891V334.766ZM104.391 305.609H134.344V310.906H111V313.484H133.453V318.641H111V321.266H134.812V326.562H104.391V305.609ZM178.5 347H172.031V303.969H178.5V347ZM142.266 308.703H158.812V314.094H148.875V332.07C151.047 332.039 153.016 331.945 154.781 331.789C156.547 331.633 158.344 331.375 160.172 331.016L160.641 336.5C158.484 336.938 156.305 337.234 154.102 337.391C151.898 337.547 149.281 337.625 146.25 337.625H145.312H142.266V308.703ZM155.859 319.438H163.031V304.625H169.266V345.125H163.031V324.922H155.859V319.438ZM218.719 347.094H211.922V303.969H218.719V347.094ZM183.703 322.297C183.703 319.219 184.195 316.516 185.18 314.188C186.18 311.859 187.555 310.07 189.305 308.82C191.055 307.555 193.031 306.922 195.234 306.922C197.406 306.922 199.359 307.555 201.094 308.82C202.828 310.07 204.188 311.859 205.172 314.188C206.172 316.516 206.672 319.219 206.672 322.297C206.672 325.422 206.172 328.156 205.172 330.5C204.188 332.844 202.828 334.648 201.094 335.914C199.359 337.18 197.406 337.812 195.234 337.812C193.031 337.812 191.055 337.18 189.305 335.914C187.555 334.648 186.18 332.844 185.18 330.5C184.195 328.156 183.703 325.422 183.703 322.297ZM190.266 322.297C190.25 325.344 190.688 327.672 191.578 329.281C192.469 330.875 193.688 331.672 195.234 331.672C196.734 331.672 197.922 330.875 198.797 329.281C199.688 327.672 200.141 325.344 200.156 322.297C200.156 320.297 199.945 318.602 199.523 317.211C199.117 315.805 198.547 314.75 197.812 314.047C197.078 313.344 196.219 313 195.234 313.016C194.219 313 193.336 313.344 192.586 314.047C191.836 314.75 191.258 315.805 190.852 317.211C190.445 318.602 190.25 320.297 190.266 322.297Z" fill="white"/>
<path opacity="0.8" d="M28.6953 420.092H23.1582V427.773C24.5703 427.762 25.7627 427.721 26.7354 427.65C27.708 427.58 28.6895 427.451 29.6797 427.264L29.873 428.635C28.7891 428.84 27.7168 428.98 26.6562 429.057C25.6016 429.127 24.2891 429.162 22.7188 429.162H21.4707V418.703H28.6953V420.092ZM27.7988 422.869H32.1758V417.244H33.8457V433.029H32.1758V424.258H27.7988V422.869ZM44.7793 428.617H52.0039V427.018H53.6562V432.801H43.1094V427.018H44.7793V428.617ZM41.7998 424.047C43.5693 424.047 45.2041 424.018 46.7041 423.959C48.21 423.9 49.6367 423.783 50.9844 423.607L51.0898 424.803C49.8652 425.008 48.4883 425.16 46.959 425.26V427.457H45.3066V425.348C44.0938 425.395 42.6172 425.418 40.877 425.418L40.666 424.047H41.7998ZM41.3164 421.902C42.0957 421.727 42.7725 421.466 43.3467 421.12C43.9209 420.769 44.3604 420.355 44.665 419.881C44.9756 419.406 45.1309 418.902 45.1309 418.369V417.631H46.8359V418.369C46.8359 418.873 46.9883 419.348 47.293 419.793C47.6035 420.238 48.0459 420.625 48.6201 420.953C49.1943 421.281 49.8652 421.527 50.6328 421.691L49.8945 422.939C48.9805 422.74 48.1895 422.421 47.5215 421.981C46.8535 421.542 46.3467 421.006 46.001 420.373C45.6611 421.053 45.1543 421.639 44.4805 422.131C43.8066 422.617 43.0039 422.975 42.0723 423.203L41.3164 421.902ZM52.0039 431.447V429.9H44.7793V431.447H52.0039ZM51.9863 417.262H53.6562V426.297H51.9863V417.262ZM68.9492 420.303C68.9434 421.211 68.9287 421.987 68.9053 422.632C68.8877 423.271 68.835 424.018 68.7471 424.873C68.665 425.729 68.5332 426.654 68.3516 427.65L66.6641 427.475C66.8516 426.531 66.9893 425.644 67.0771 424.812C67.165 423.974 67.2178 423.235 67.2354 422.597C67.2588 421.958 67.2734 421.193 67.2793 420.303V420.109H57.7168V418.756H68.9492V420.303ZM56.2051 429.479H61.6719V423.924H63.3242V429.479H70.5664V430.867H56.2051V429.479ZM89.2871 428.934H87.6172V424.592H85.1562V423.186H87.6172V421.533H85.1562V420.162H87.6172V417.244H89.2871V428.934ZM78.0898 425.286V419.828H76.6133V418.475H84.9805V419.828H83.4688V425.102C84.3008 425.037 84.9453 424.979 85.4023 424.926L85.4727 426.156C84.1309 426.367 82.6982 426.511 81.1748 426.587C79.6514 426.657 78.0547 426.695 76.3848 426.701L76.1738 425.295L78.0898 425.286ZM79.0215 427.984H80.709V431.307H89.6914V432.66H79.0215V427.984ZM79.707 425.26C80.1641 425.248 80.8848 425.225 81.8691 425.189V419.828H79.707V425.26ZM104.791 433.029H103.121V417.244H104.791V433.029ZM92.5918 418.668H99.9746V424.416H94.3145V427.861C95.6797 427.855 96.9424 427.812 98.1025 427.729C99.2686 427.647 100.479 427.504 101.732 427.299L101.891 428.67C100.584 428.887 99.3154 429.036 98.085 429.118C96.8545 429.2 95.4746 429.244 93.9453 429.25H92.6094V423.08H98.2695V420.021H92.5918V418.668ZM119.645 422.324H121.93V423.713H119.645V429.039H117.975V417.262H119.645V422.324ZM107.287 419.09H111.154V417.244H112.824V419.09H116.674V420.443H107.287V419.09ZM108.148 424.17C108.148 423.578 108.307 423.057 108.623 422.605C108.945 422.154 109.396 421.809 109.977 421.568C110.557 421.322 111.225 421.199 111.98 421.199C112.73 421.199 113.393 421.322 113.967 421.568C114.547 421.809 114.995 422.154 115.312 422.605C115.634 423.057 115.795 423.578 115.795 424.17C115.795 424.756 115.634 425.271 115.312 425.717C114.995 426.162 114.547 426.508 113.967 426.754C113.393 427 112.73 427.123 111.98 427.123C111.225 427.123 110.557 427 109.977 426.754C109.396 426.508 108.945 426.162 108.623 425.717C108.307 425.271 108.148 424.756 108.148 424.17ZM109.66 428.107H111.33V431.307H120.312V432.66H109.66V428.107ZM109.766 424.17C109.76 424.504 109.848 424.797 110.029 425.049C110.211 425.295 110.466 425.485 110.794 425.62C111.128 425.755 111.515 425.822 111.954 425.822C112.634 425.822 113.182 425.676 113.598 425.383C114.014 425.09 114.225 424.686 114.23 424.17C114.225 423.654 114.017 423.247 113.606 422.948C113.196 422.644 112.654 422.488 111.98 422.482C111.535 422.482 111.143 422.553 110.803 422.693C110.469 422.828 110.211 423.024 110.029 423.282C109.848 423.534 109.76 423.83 109.766 424.17ZM140.703 428.055H139.121V417.244H140.703V428.055ZM127.133 424.68C127.777 424.68 128.281 424.677 128.645 424.671V419.916H127.414V418.545H134.779V419.916H133.496V424.486C134.076 424.439 134.615 424.387 135.113 424.328L135.184 425.576C134.076 425.775 132.86 425.904 131.536 425.963C130.212 426.021 128.803 426.051 127.309 426.051L127.133 424.68ZM129.207 431.623C130.191 431.5 131.088 431.254 131.896 430.885C132.705 430.516 133.344 430.062 133.812 429.522C134.281 428.978 134.516 428.4 134.516 427.791V427.316H136.186V427.791C136.186 428.4 136.423 428.978 136.897 429.522C137.372 430.062 138.017 430.516 138.831 430.885C139.651 431.254 140.557 431.5 141.547 431.623L140.914 432.924C139.672 432.748 138.556 432.388 137.565 431.843C136.581 431.304 135.846 430.639 135.359 429.848C134.873 430.639 134.138 431.304 133.153 431.843C132.169 432.388 131.053 432.748 129.805 432.924L129.207 431.623ZM130.191 424.645C131.012 424.621 131.609 424.601 131.984 424.583V419.916H130.191V424.645ZM134.27 421.551H136.168V417.578H137.732V426.613H136.168V422.904H134.27V421.551ZM160.215 433.029H158.545V417.244H160.215V433.029ZM148.051 418.562H149.721V422.605H153.957V418.562H155.609V429.25H148.051V418.562ZM153.957 427.879V423.924H149.721V427.879H153.957ZM177.143 430.955H162.729V429.584H177.143V430.955ZM163.396 425.646C164.369 425.488 165.289 425.16 166.156 424.662C167.023 424.158 167.721 423.549 168.248 422.834C168.775 422.113 169.039 421.363 169.039 420.584V420.092H163.924V418.738H175.895V420.092H170.779V420.584C170.779 421.363 171.043 422.107 171.57 422.816C172.104 423.525 172.81 424.126 173.688 424.618C174.567 425.11 175.508 425.436 176.51 425.594L175.842 426.912C174.986 426.754 174.169 426.49 173.39 426.121C172.616 425.746 171.928 425.283 171.324 424.732C170.721 424.182 170.252 423.566 169.918 422.887C169.59 423.572 169.127 424.196 168.529 424.759C167.932 425.315 167.249 425.784 166.481 426.165C165.72 426.546 164.92 426.818 164.082 426.982L163.396 425.646ZM191.363 432.994H189.693V417.244H191.363V432.994ZM179.252 418.773H180.904V427.545C183.4 427.533 185.814 427.293 188.146 426.824L188.375 428.23C187.039 428.506 185.732 428.702 184.455 428.819C183.178 428.937 181.883 428.992 180.57 428.986H179.252V418.773ZM201.84 419.477C201.84 420.309 202.106 421.117 202.64 421.902C203.173 422.688 203.882 423.358 204.767 423.915C205.657 424.466 206.604 424.832 207.605 425.014L206.832 426.402C205.988 426.221 205.183 425.922 204.415 425.506C203.647 425.09 202.965 424.583 202.367 423.985C201.775 423.382 201.312 422.717 200.979 421.99C200.639 422.711 200.17 423.373 199.572 423.977C198.975 424.574 198.292 425.081 197.524 425.497C196.757 425.913 195.951 426.215 195.107 426.402L194.369 425.014C195.359 424.826 196.291 424.457 197.164 423.906C198.043 423.35 198.749 422.682 199.282 421.902C199.815 421.117 200.082 420.309 200.082 419.477V418.281H201.84V419.477ZM193.842 429.531H208.256V430.92H193.842V429.531ZM221.791 423.977H228.154V425.312H213.793V423.977H220.139V422.025H221.791V423.977ZM214.549 421.621C215.592 421.516 216.535 421.287 217.379 420.936C218.229 420.584 218.896 420.145 219.383 419.617C219.875 419.084 220.121 418.504 220.121 417.877V417.367H221.809V417.877C221.809 418.504 222.049 419.084 222.529 419.617C223.016 420.145 223.681 420.584 224.524 420.936C225.368 421.287 226.309 421.516 227.346 421.621L226.766 422.904C225.441 422.729 224.264 422.383 223.232 421.867C222.207 421.352 221.448 420.695 220.956 419.898C220.464 420.695 219.702 421.352 218.671 421.867C217.646 422.383 216.471 422.729 215.146 422.904L214.549 421.621ZM215.516 426.455H226.344V430.199H217.168V431.553H226.783V432.836H215.533V428.986H224.691V427.738H215.516V426.455ZM242.041 422.113H232.76V423.924H242.375V425.277H231.09V420.83H240.336V419.178H231.037V417.824H242.041V422.113ZM229.332 426.771H243.746V428.107H237.348V433.029H235.678V428.107H229.332V426.771ZM250.461 420.092C250.467 420.848 250.619 421.58 250.918 422.289C251.223 422.992 251.656 423.619 252.219 424.17C252.787 424.721 253.455 425.143 254.223 425.436L253.309 426.736C252.465 426.396 251.729 425.898 251.103 425.242C250.476 424.586 249.992 423.824 249.652 422.957C249.307 423.889 248.806 424.703 248.149 425.4C247.493 426.098 246.711 426.625 245.803 426.982L244.906 425.646C245.703 425.354 246.395 424.926 246.98 424.363C247.566 423.795 248.018 423.142 248.334 422.403C248.65 421.665 248.809 420.895 248.809 420.092V418.141H250.461V420.092ZM247.754 427.809H249.441V431.307H258.389V432.66H247.754V427.809ZM253.309 422.676H256.367V420.848H253.309V419.494H256.367V417.262H258.037V428.986H256.367V424.029H253.309V422.676Z" fill="white"/>
<defs>
<clipPath id="clip0_1037_20414">
<rect width="200" height="184" fill="white" transform="translate(40 86.5)"/>
</clipPath>
<clipPath id="clip1_1037_20414">
<rect x="178.648" y="359.5" width="48" height="24" rx="12" fill="white"/>
</clipPath>
</defs>
</svg>
