<svg width="280" height="393" viewBox="0 0 280 393" fill="none" xmlns="http://www.w3.org/2000/svg">
<circle cx="140" cy="128" r="100" fill="white"/>
<circle cx="140" cy="128" r="110" stroke="white" stroke-opacity="0.3" stroke-width="20"/>
<g clip-path="url(#clip0_1037_2447)">
<path d="M54.8786 258.055C55.8018 257.524 56.8132 257.455 57.848 257.46C60.328 257.472 62.8083 257.464 65.7125 257.464C59.8909 252.247 57.2699 246.06 57.7366 238.598C58.2062 231.089 62.167 225.633 67.9416 221.24C60.309 214.664 61.2661 203.328 67.9883 197.073C69.4966 195.67 71.0527 194.333 72.6939 193.096C73.2148 192.703 73.5221 192.283 73.4283 191.628C73.2667 190.502 73.7871 189.646 74.4932 188.852C76.0867 187.06 77.657 185.248 79.2732 183.477C79.7714 182.931 79.9775 182.359 79.9777 181.63C79.9814 174.285 79.9912 166.94 80.0433 159.595C80.0497 158.685 79.743 158.672 79.015 158.861C73.7873 160.219 68.7926 159.749 64.2684 156.632C58.8519 152.901 55.7266 147.647 54.843 141.187C53.7303 133.051 56.0098 125.813 61.5971 119.818C68.585 112.319 76.3113 105.594 84.6575 99.6596C90.1422 95.7595 96.3004 94.8022 102.765 97.2477C103.234 97.4253 103.554 97.3778 103.961 97.0798C110.835 92.0481 118.608 89.0892 126.876 87.3833C139.303 84.8192 151.484 85.85 163.383 90.2233C167.999 91.9196 172.297 94.2297 176.283 97.1065C176.712 97.4161 176.976 97.5648 177.551 97.3401C184.291 94.7097 190.593 95.8477 196.224 100.11C203.602 105.694 210.617 111.743 217.161 118.291C222.756 123.889 225.932 130.655 225.541 138.713C225.105 147.694 219.611 156.797 209.709 159.099C206.881 159.756 204.079 159.749 201.305 158.932C200.382 158.66 200.047 158.673 200.053 159.798C200.092 166.898 200.085 173.998 200.032 181.098C200.024 182.166 200.341 182.956 201.054 183.711C202.699 185.455 204.291 187.25 205.905 189.024C206.583 189.77 207.128 190.558 206.808 191.652C206.597 192.372 207.134 192.722 207.58 193.084C209.444 194.595 211.253 196.158 212.935 197.88C218.776 203.86 220.066 214.781 212.007 221.486C217.858 225.847 221.638 231.479 221.986 238.893C222.331 246.253 219.6 252.417 213.778 257.445C217.693 257.445 221.339 257.461 224.985 257.434C225.937 257.427 226.832 257.55 227.665 258.021C228.466 258.421 229.021 258.976 228.918 259.963C228.817 260.939 228.241 261.561 227.409 261.982C226.592 262.396 225.7 262.364 224.82 262.366C219.24 262.373 213.66 262.37 208.08 262.367C206.998 262.367 205.92 262.391 204.895 262.782C202.568 263.67 200.158 263.905 197.684 263.852C194.797 263.791 191.904 263.938 189.022 263.815C184.545 263.623 180.163 264.35 175.739 264.792C171.079 265.258 166.64 264.226 163.056 260.946C161.963 259.946 160.97 259.798 159.617 260.146C154.072 261.571 148.497 262.875 142.89 264.044C140.666 264.508 138.527 264.36 136.352 263.886C130.66 262.646 125.011 261.229 119.343 259.89C118.209 259.622 117.386 259.784 116.587 260.628C113.164 264.245 108.567 265.404 104.062 264.781C96.4417 263.728 88.8445 263.901 81.2261 263.856C79.0463 263.843 76.9301 263.617 74.8846 262.858C73.8104 262.459 72.7008 262.363 71.5656 262.365C66.9158 262.372 62.2658 262.376 57.6159 262.364C56.5763 262.361 55.554 262.289 54.7116 261.564C53.465 260.491 53.5365 258.972 54.8786 258.055Z" fill="#390A03"/>
<path d="M54.8785 258.055C54.243 258.818 53.8799 259.668 54.3814 260.613C54.8913 261.575 55.781 261.869 56.8482 261.864C61.5957 261.841 66.3454 261.935 71.0897 261.813C73.1211 261.76 74.9107 262.468 76.8007 262.92C79.6878 263.611 82.6475 263.287 85.5768 263.308C89.2469 263.335 92.919 263.204 96.5875 263.277C98.9319 263.323 101.163 264.304 103.526 264.345C108.663 264.436 113.509 263.693 117.05 259.43C117.507 258.88 117.877 259.004 118.437 259.132C125.107 260.658 131.72 262.429 138.44 263.747C140.471 264.146 142.342 263.625 144.229 263.23C149.875 262.05 155.498 260.759 161.06 259.226C161.598 259.077 161.937 259.073 162.333 259.51C166.513 264.125 171.955 265.056 177.66 264.058C181.465 263.392 185.22 263.321 189.022 263.302C193.035 263.283 197.241 264.02 201.02 263.067C208.796 261.107 216.579 262.28 224.342 261.878C224.83 261.853 225.321 261.862 225.81 261.88C226.928 261.921 227.845 261.57 228.361 260.522C228.862 259.503 228.274 258.751 227.665 258.022C231.047 258.705 234.552 258.728 237.839 259.914C238.337 260.094 238.836 260.322 239.272 260.619C240.287 261.31 240.246 262.093 239.118 262.549C237.168 263.339 235.12 263.854 233.05 264.179C229.015 264.812 224.968 265.376 220.916 265.885C218.503 266.189 216.071 266.354 213.645 266.549C208.742 266.944 203.837 267.32 198.933 267.698C197.427 267.814 195.921 267.974 194.413 268.008C188.164 268.146 181.923 268.499 175.677 268.699C172.209 268.81 168.739 268.767 165.275 268.919C151.087 269.54 136.892 269.163 122.703 269.123C117.772 269.11 112.826 269.074 107.896 268.864C102.923 268.653 97.9498 268.469 92.9754 268.289C87.7642 268.1 82.5469 267.862 77.3559 267.387C70.5245 266.761 63.6741 266.353 56.8637 265.442C52.3762 264.841 47.9028 264.204 43.4648 263.321C42.702 263.169 41.9534 262.916 41.2219 262.646C40.6823 262.447 39.9675 262.226 40.0011 261.549C40.0338 260.892 40.659 260.424 41.235 260.216C42.1934 259.871 43.2103 259.678 44.2122 259.466C47.4047 258.791 50.6169 258.232 53.8708 257.948C54.2011 257.919 54.5425 258.016 54.8785 258.055Z" fill="#CD6E23"/>
<path d="M110.363 185.714C106.765 184.841 103.163 183.985 99.5702 183.092C95.0657 181.972 90.4967 181.195 85.9111 180.514C85.1592 180.403 84.8009 180.248 84.8077 179.394C84.8523 173.771 84.8489 168.147 84.861 162.524C84.9341 161.75 85.3351 161.23 85.9528 160.738C91.4671 156.346 94.5379 150.638 95.2204 143.601C95.708 138.575 95.4685 133.544 95.4717 128.516C95.4764 121.061 97.5033 114.152 100.779 107.542C101.039 107.017 101.318 106.488 101.951 106.308C102.62 106.448 103.046 106.014 103.491 105.638C106.726 102.909 110.233 100.551 114.091 98.8515C118.15 97.0635 122.348 95.629 126.67 94.5003C132.518 92.9729 138.442 92.2142 144.402 92.8267C150.332 93.4361 156.183 94.71 161.75 97.0238C165.918 98.7564 169.941 100.747 173.727 103.214C174.799 103.912 175.782 104.711 176.792 105.557C176.824 105.012 176.117 104.383 176.984 103.982C177.863 104.489 178.51 105.26 178.95 106.116C182.018 112.077 184.237 118.279 184.708 125.065C185.078 130.4 184.831 135.729 184.962 141.058C185.07 145.466 186.239 149.568 188.778 153.199C189.775 154.625 190.277 156.092 190.266 157.841C190.22 164.791 190.251 171.742 190.242 178.693C190.241 179.515 190.357 180.374 189.748 181.076C185.866 181.948 181.979 182.797 178.106 183.702C175.319 184.353 172.55 185.08 169.774 185.773C169.141 184.652 169.739 183.564 169.935 182.499C170.943 177.016 171.111 171.575 169.951 166.063C168.857 160.86 166.537 156.282 163.411 152.099C160.167 147.755 156.074 144.268 151.013 142.29C146.302 140.449 141.39 139.614 136.219 140.471C130.958 141.342 126.263 143.264 122.169 146.639C118.976 149.271 116.294 152.322 114.245 155.974C112.085 159.823 110.707 163.898 109.895 168.202C109.483 170.388 109.777 172.595 109.674 174.79C109.53 177.842 109.818 180.843 110.632 183.793C110.814 184.453 110.962 185.146 110.363 185.714Z" fill="#FCD1A2"/>
<path d="M110.363 185.713C110.586 184.303 109.902 183.036 109.706 181.689C108.618 174.226 108.863 166.955 111.818 159.852C114.942 152.341 119.955 146.535 127.124 142.834C132.442 140.09 138.18 138.981 144.267 140.007C146.591 140.398 148.917 140.846 151.014 141.747C154.391 143.199 157.516 145.164 160.2 147.801C165.037 152.554 168.377 158.145 170.127 164.685C171.325 169.165 171.419 173.7 171.025 178.313C170.807 180.854 170.123 183.277 169.774 185.772C167.087 186.647 164.395 187.505 161.715 188.4C155.585 190.447 149.602 192.821 144.186 196.428C143.942 196.591 143.693 196.747 143.458 196.922C142.298 197.787 141.157 199.309 139.981 199.335C138.881 199.36 137.77 197.766 136.621 196.945C131.115 193.013 124.896 190.568 118.562 188.381C115.846 187.443 113.097 186.6 110.363 185.713Z" fill="#FEFEFE"/>
<path d="M85.4551 221.333C91.3556 215.812 90.7433 207.17 84.1251 202.455C82.4057 201.23 80.5831 200.155 78.6534 199.344C77.1028 198.692 76.9089 197.621 76.9387 196.196C76.9919 193.637 76.939 193.661 79.3508 194.324C95.7032 198.821 112.057 203.313 128.418 207.782C129.352 208.037 129.962 208.299 129.954 209.475C129.883 220.781 129.864 232.087 129.831 243.394C129.819 247.555 129.782 251.716 129.817 255.876C129.826 256.965 129.553 257.212 128.473 256.898C125.896 256.151 123.293 255.482 120.678 254.881C119.735 254.664 119.444 254.237 119.362 253.305C118.771 246.532 114.517 242.706 108.671 240.203C108.413 240.092 108.096 240.121 107.806 240.085C105.009 239.319 102.164 239.14 99.2693 239.206C94.5226 239.315 89.772 239.144 85.0245 239.292C84.1888 239.318 83.6607 239.033 83.6581 238.168C83.6432 233.225 83.5814 228.28 83.6907 223.337C83.695 223.145 83.8027 222.964 83.8862 222.786C83.9425 222.723 83.9682 222.649 83.9631 222.565C84.3863 222.065 84.8387 221.6 85.4551 221.333Z" fill="#7D6DFF"/>
<path d="M150.593 208.402C152.572 207.266 154.827 206.973 156.972 206.379C171.757 202.279 186.56 198.248 201.356 194.188C203.245 193.67 203.045 193.678 203.288 195.601C203.618 198.215 202.648 199.685 200.393 201.054C195.901 203.781 193.264 207.791 193.526 213.315C193.633 215.593 194.403 217.625 195.74 219.428C196.313 220.201 196.393 220.955 196.377 221.881C196.289 226.921 196.29 231.962 196.265 237.003C196.256 238.926 196.263 238.912 194.355 238.912C188.529 238.912 182.681 238.599 176.884 239.014C170.309 239.485 164.68 242.096 161.399 248.318C160.514 249.997 160.16 251.813 160.104 253.69C160.086 254.31 160.082 254.866 159.309 255.027C156.397 255.635 153.588 256.67 150.636 257.111C150.413 256.75 150.502 256.348 150.502 255.964C150.497 240.448 150.498 224.933 150.5 209.417C150.5 209.077 150.454 208.73 150.593 208.402Z" fill="#7D6DFF"/>
<path d="M181.642 100.865C185.452 100.361 188.869 101.226 192.044 103.232C195.578 105.465 198.6 108.336 201.781 111.005C206.053 114.589 210.282 118.242 214.159 122.247C220.027 128.306 222.219 135.56 219.672 143.698C217.734 149.892 213.48 154.015 206.722 154.662C202.244 155.091 198.676 153.046 195.905 149.611C193.438 146.555 192.464 142.955 192.401 139.099C192.334 134.989 192.327 130.877 192.367 126.766C192.463 116.918 189.077 108.511 182.059 101.582C181.922 101.447 181.788 101.309 181.66 101.166C181.637 101.139 181.653 101.078 181.642 100.865Z" fill="#CD8856"/>
<path d="M93.0561 101.068C94.5751 100.547 96.1441 100.79 97.6917 100.797C98.679 100.801 98.4218 101.321 97.985 101.805C97.003 102.893 95.9603 103.931 95.0336 105.063C90.4406 110.677 88.1143 117.139 88.0122 124.379C87.9425 129.318 88.0472 134.261 87.9384 139.199C87.8328 143.99 86.2315 148.168 82.5139 151.409C76.8755 156.323 68.7978 155.712 63.9766 149.96C58.7936 143.777 58.0431 134.522 62.1684 127.288C62.7679 126.237 63.2806 125.111 64.2153 124.281C68.4327 120.882 72.6245 117.451 76.7813 113.978C82.0666 109.562 87.2523 105.02 93.01 101.204C93.0415 101.183 93.0413 101.114 93.0561 101.068Z" fill="#CD8757"/>
<path d="M63.0859 244.221C62.8907 243.959 62.6946 243.697 62.8226 243.339C63.4754 242.817 63.5053 242.086 63.5028 241.338C63.4796 234.268 67.3417 229.472 72.7382 225.576C73.2815 225.184 74.0157 225.018 74.2637 224.279C75.4809 224.359 76.701 224.535 77.9161 224.305C78.9215 224.115 79.2526 224.43 79.2425 225.506C79.1948 230.595 79.2361 235.685 79.2487 240.775C79.2547 243.163 79.6984 243.612 82.0505 243.615C88.4628 243.622 94.875 243.624 101.287 243.633C104.014 243.637 106.576 244.249 108.895 245.736C108.969 246.023 108.815 246.243 108.587 246.312C107.734 246.57 107.745 246.999 108.163 247.685C108.471 248.191 108.528 248.791 108.033 249.289C107.359 249.4 106.984 248.871 106.508 248.568C105.436 247.885 104.366 247.218 103.01 247.334C102.019 247.42 101.236 247.826 100.804 248.757C100.355 249.724 100.698 250.549 101.313 251.311C101.871 252.003 102.644 252.433 103.327 252.973C103.638 253.219 104.206 253.254 104.135 253.856C102.609 254.023 102.182 254.552 102.427 256.013C102.507 256.487 102.645 256.952 102.757 257.421C103.034 257.947 102.738 258.139 102.28 258.2C101.743 258.271 101.2 258.228 100.675 258.114C93.7289 256.608 86.6137 256.345 79.6147 255.243C75.2201 254.551 71.0642 253.198 67.5652 250.268C65.9595 248.924 64.6921 247.349 63.8587 245.427C63.6662 244.984 63.5364 244.5 63.0859 244.221Z" fill="#FDD1A4"/>
<path d="M176.197 257.731C176.331 257.278 176.447 256.819 176.602 256.374C177.046 255.098 176.694 254.235 175.341 253.869C175.455 252.835 176.36 252.506 177.047 252.013C178.517 250.961 178.99 249.995 178.493 248.873C178.01 247.785 176.607 247.2 175.094 247.458C172.179 247.954 169.914 250.906 170.215 253.841C170.324 254.899 170.696 255.833 171.6 256.488C171.954 256.744 172.337 256.988 172.431 257.469C171.984 259.841 171.887 259.9 169.673 259.158C164.806 257.526 163.341 253.448 166.253 249.245C168.948 245.356 172.972 243.778 177.516 243.676C184.315 243.523 191.12 243.615 197.922 243.598C200.5 243.591 200.918 243.184 200.921 240.652C200.928 235.079 200.923 229.507 200.923 223.818C201.761 223.994 202.511 224.151 203.261 224.308C204.993 224.157 206.159 225.068 207.287 226.259C212.041 231.274 213.449 239.269 210.325 245.364C207.894 250.105 203.856 253.002 198.719 254.359C194.072 255.587 189.318 256.259 184.583 257.016C182.455 257.356 180.347 257.817 178.213 258.099C177.557 258.186 176.7 258.731 176.197 257.731Z" fill="#FCD1A5"/>
<path d="M145.645 210.201C146.191 210.544 145.935 211.095 145.936 211.534C145.949 226.747 145.93 241.959 145.955 257.172C145.957 258.273 145.511 258.477 144.525 258.679C141.546 259.291 138.615 259.01 135.657 258.631C134.868 258.53 134.732 258.171 134.672 257.498C134.442 254.955 134.668 252.416 134.671 249.875C134.684 238.575 134.682 227.275 134.69 215.974C134.691 215.193 134.739 214.411 134.765 213.63C135.371 213.088 136.122 213.136 136.852 213.131C139.005 213.114 141.158 213.095 143.31 213.136C144.474 213.159 145.215 212.879 145.143 211.53C145.117 211.043 145.238 210.553 145.645 210.201Z" fill="#7D6DFF"/>
<path d="M200.115 189.822C180.156 195.013 160.643 200.693 140.948 205.827C142.558 203.36 144.66 201.565 147.023 200.104C153.863 195.873 161.415 193.341 169.06 191.057C177.163 188.636 185.399 186.783 193.705 185.204C195.145 184.93 196.1 185.206 196.987 186.332C197.887 187.476 198.927 188.509 200.115 189.822Z" fill="#FCFDFD"/>
<path d="M139.202 205.741C136.864 205.757 134.82 205.081 132.801 204.462C121.965 201.137 111.021 198.197 100.102 195.166C93.9852 193.467 87.858 191.804 81.7231 190.171C80.5963 189.871 80.1248 189.691 81.0812 188.502C84.0087 184.864 83.9538 184.867 88.6385 185.706C98.424 187.458 108.061 189.804 117.44 193.102C123.903 195.375 130.288 197.881 135.746 202.201C136.997 203.19 138.266 204.181 139.202 205.741Z" fill="#FCFEFD"/>
<path d="M189.748 181.075C189.741 173.1 189.717 165.124 189.747 157.149C189.751 155.901 189.359 154.909 188.636 153.917C185.944 150.225 184.581 146.036 184.464 141.495C184.352 137.143 184.506 132.785 184.414 128.433C184.297 122.895 183.364 117.491 181.252 112.339C180.383 110.221 179.453 108.126 178.478 106.055C178.109 105.272 177.636 104.5 176.806 104.068C176.538 103.967 176.386 103.803 176.5 103.497C179.003 104.878 180.668 107.119 182.268 109.357C185.687 114.139 187.388 119.507 187.43 125.411C187.467 130.544 187.271 135.679 187.567 140.808C187.903 146.627 190.383 151.408 194.685 155.269C195.326 155.844 195.596 156.417 195.584 157.282C195.487 164.469 195.412 171.656 195.396 178.843C195.393 179.948 195.2 180.539 193.961 180.598C192.552 180.664 191.152 180.908 189.748 181.075Z" fill="#E4AC7C"/>
<path d="M176.197 257.731C178.359 257.899 180.4 257.182 182.492 256.852C187.869 256.007 193.271 255.287 198.552 253.919C203.357 252.674 207.21 250.02 209.647 245.7C211.907 241.693 211.95 237.349 210.698 232.966C209.883 230.112 208.149 227.877 206.156 225.748C205.312 224.847 204.312 224.609 203.261 224.309C204.334 224.273 205.408 224.256 206.479 224.195C206.989 224.167 207.445 224.259 207.873 224.534C214.17 228.565 218.069 234.202 217.074 242.455C216.219 249.558 210.481 255.819 203.421 257.758C199.662 258.791 195.857 258.531 192.056 258.52C188.831 258.51 185.605 258.396 182.381 258.283C181.158 258.24 180.112 258.803 178.986 259.095C177.917 259.372 176.878 259.808 175.628 259.734C175.882 259.016 175.781 258.312 176.197 257.731Z" fill="#E5A876"/>
<path d="M102.187 106.446C100.857 107.395 100.589 109.005 100.014 110.335C98.6512 113.489 97.4001 116.709 96.8009 120.138C96.2283 123.415 95.9048 126.697 95.9621 130.027C96.0159 133.157 95.9154 136.291 95.9818 139.421C96.1258 146.208 94.2101 152.308 90.0169 157.66C88.8676 159.127 87.5106 160.412 85.9014 161.367C85.3956 161.668 85.1411 162.079 84.8612 162.523C84.8458 162.28 84.8399 162.035 84.8135 161.794C84.4132 158.139 85.0863 155.142 88.0748 152.37C91.5611 149.136 92.6163 144.471 92.7207 139.753C92.8278 134.915 92.7126 130.073 92.791 125.234C92.9556 115.096 97.5118 107.298 105.648 101.456C105.996 101.206 106.412 101.052 106.796 100.854C107.04 101.298 106.745 101.615 106.487 101.879C105.227 103.169 104.066 104.537 103.037 106.019C102.839 106.305 102.587 106.537 102.187 106.446Z" fill="#E7AC79"/>
<path d="M102.187 106.446C103.543 104.434 105.284 102.737 106.797 100.854C112.986 96.3206 120.001 93.7544 127.433 92.1515C140.703 89.2893 153.472 90.8834 165.764 96.494C169.145 98.0374 172.347 99.9367 175.224 102.329C175.667 102.697 176.075 103.107 176.5 103.497C176.602 103.688 176.704 103.878 176.806 104.068C176.708 104.618 177.02 104.976 177.35 105.359C177.602 105.651 178.201 105.969 177.682 106.421C177.336 106.723 176.936 106.345 176.672 106.084C175.066 104.491 173.143 103.331 171.22 102.204C165.618 98.9172 159.728 96.3329 153.353 94.8857C148.293 93.737 143.225 92.9591 138.007 93.1536C133.994 93.3031 130.142 94.2321 126.263 95.099C123.286 95.7643 120.406 96.7488 117.598 97.8958C114.16 99.2999 110.729 100.765 107.736 103.042C106.072 104.307 104.399 105.561 102.749 106.843C102.036 107.396 102.228 106.783 102.187 106.446Z" fill="#FBFCFB"/>
<path d="M198.595 214.235C197.507 212.112 198.841 207.719 201.672 205.712C202.669 205.006 203.68 204.32 204.69 203.633C206.151 202.64 207.207 201.338 207.806 199.523C209.548 200.757 210.708 202.397 211.638 204.216C214.168 209.167 212.898 215.051 208.647 218.184C205.548 220.467 201.263 219.585 199.428 216.286C199.151 215.459 199.805 215.554 200.23 215.538C201.4 215.494 202.572 215.535 203.743 215.526C204.035 215.523 204.33 215.536 204.62 215.492C205.042 215.427 205.642 215.466 205.656 214.909C205.673 214.269 205.036 214.228 204.567 214.204C202.96 214.119 201.35 214.084 199.743 214.236C199.36 214.272 198.978 214.426 198.595 214.235Z" fill="#FBD0A3"/>
<path d="M73.3565 200.495C74.8601 202.489 76.8701 203.808 79.0687 204.929C81.4121 206.124 83.4593 207.665 84.2699 210.358C84.4409 211.252 84.0349 211.215 83.5614 210.733C82.9919 210.154 82.3708 209.736 81.5697 209.586C81.0407 209.487 80.591 209.59 80.2951 210.07C80.0245 210.508 80.1879 210.922 80.4362 211.303C80.8938 212.005 81.5841 212.503 82.0943 213.158C82.8648 214.146 82.6158 214.748 81.3594 214.94C80.7789 215.03 80.1887 214.989 79.6025 214.989C78.8684 214.989 78.1301 214.984 77.4177 215.174C77.0328 215.276 76.3747 215.186 76.4352 215.783C76.4819 216.245 77.066 216.145 77.4334 216.143C78.7122 216.135 79.9547 216.441 81.2206 216.544C81.9073 216.599 82.5371 216.789 82.1541 217.729C78.8984 220.565 73.3954 220.041 70.1686 216.587C67.5643 210.873 68.4424 205.404 72.6669 201.017C72.8701 200.805 73.0623 200.584 73.3565 200.495Z" fill="#FCD0A4"/>
<path d="M63.0859 244.221C63.4213 243.795 63.6271 243.838 63.8743 244.342C64.3858 245.385 64.7733 246.479 65.5037 247.427C68.4218 251.216 72.4182 253.168 76.9404 254.195C82.111 255.37 87.4055 255.666 92.6528 256.299C95.2531 256.613 97.8472 256.994 100.41 257.574C101.163 257.743 102.027 258.197 102.757 257.421C102.816 257.498 102.91 257.567 102.929 257.653C103.06 258.263 103.631 259.015 103.227 259.443C102.765 259.933 101.947 259.493 101.3 259.326C99.2329 258.793 97.2344 258.298 94.997 258.4C89.678 258.643 84.3332 258.81 79.0123 258.342C71.4399 257.675 64.1519 251.165 63.0859 244.221Z" fill="#E2A879"/>
<path d="M108.02 249.23C108.081 248.499 107.988 247.861 107.445 247.253C106.845 246.581 106.611 245.902 108.036 246.164C108.288 246.21 108.607 245.888 108.895 245.736C111.751 247.034 113.805 249.094 114.517 252.193C115.11 254.775 113.813 257.173 111.395 258.372C110.655 258.739 109.865 259.02 109.077 259.274C107.177 259.887 107.069 259.806 106.77 257.81C106.874 257.308 107.214 256.977 107.572 256.641C109.462 254.861 109.709 253.496 108.693 251.075C108.441 250.476 107.827 249.994 108.02 249.23Z" fill="#ECB886"/>
<path d="M108.02 249.23C110.523 252.271 110.548 255.509 106.77 257.81C106.066 256.376 105.734 254.696 104.137 253.856C102.93 253.252 101.778 252.585 100.893 251.524C100.183 250.674 99.8338 249.739 100.273 248.696C100.743 247.579 101.642 246.981 102.878 246.879C105.041 246.7 106.52 247.981 108.02 249.23Z" fill="#FDFDFC"/>
<path d="M172.431 257.469C168.886 256.404 169.151 251.244 171.411 249.107C172.577 248.004 173.744 247.113 175.378 246.911C176.818 246.734 178.559 247.579 179.042 248.774C179.551 250.032 178.914 251.367 177.433 252.31C176.702 252.776 176.036 253.346 175.341 253.869C173.459 254.332 173.182 256.092 172.431 257.469Z" fill="#FDFDFC"/>
<path d="M93.0564 101.067C93.443 101.228 93.441 101.364 93.0852 101.609C88.0479 105.067 83.3979 109.016 78.696 112.904C74.4841 116.387 70.4138 120.047 65.9883 123.267C65.4411 123.665 65.0645 124.399 64.2153 124.281C66.0833 121.681 68.4247 119.525 70.8023 117.425C76.1477 112.702 81.3899 107.851 87.2224 103.712C88.9923 102.455 90.9215 101.529 93.0564 101.067Z" fill="#FAF8F5"/>
<path d="M74.2639 224.279C74.2851 224.536 75.3442 224.556 74.4013 225.049C72.0486 226.278 70.0737 228.014 68.362 230.005C65.4592 233.381 63.6898 237.228 63.9389 241.81C63.9822 242.605 64.0608 243.462 62.8229 243.339C61.6986 237.806 63.1693 232.947 66.6765 228.634C67.7897 227.265 69.2106 226.224 70.555 225.094C71.7089 224.123 72.8285 223.655 74.2639 224.279Z" fill="#F9F8F6"/>
<path d="M145.645 210.201C145.717 213.631 145.718 213.622 142.256 213.61C139.759 213.602 137.262 213.623 134.765 213.63C134.356 210.182 134.356 210.189 137.787 210.202C140.406 210.212 143.026 210.202 145.645 210.201Z" fill="#F7FBFB"/>
<path d="M82.1537 217.729C81.9654 217.424 82.1113 216.989 81.3877 216.987C79.8451 216.984 78.3219 216.514 76.7551 216.595C76.1602 216.625 75.7064 216.5 75.6969 215.738C75.6874 215.003 76.1054 214.92 76.7008 214.799C78.1989 214.496 79.7054 214.573 81.2113 214.539C81.5939 214.53 82.0801 214.618 82.2379 214.18C82.3689 213.816 81.9533 213.602 81.7244 213.365C81.1498 212.768 80.5093 212.227 79.9962 211.583C79.5228 210.989 79.2832 210.296 79.9118 209.598C80.4646 208.984 81.069 208.815 81.8696 209.133C82.7235 209.472 83.5978 209.694 84.004 210.683C84.0807 210.87 84.1599 210.463 84.2695 210.358C85.4072 213.155 84.511 216.277 82.1537 217.729Z" fill="#E1A875"/>
<path d="M73.3563 200.494C73.1415 201.883 71.8609 202.556 71.1826 203.657C69.2157 206.852 68.7852 210.228 69.2931 213.811C69.4283 214.764 70.519 215.453 70.1682 216.587C67.1981 213.493 66.797 209.852 67.9299 205.907C68.7323 203.112 70.3521 200.864 72.6987 199.017C72.9292 199.535 73.1427 200.015 73.3563 200.494Z" fill="#FAF5F3"/>
<path d="M83.886 222.786C83.9076 227.676 83.9634 232.567 83.9253 237.456C83.9163 238.603 84.2268 238.962 85.4015 238.948C90.9767 238.882 96.553 238.907 102.129 238.899C104.104 238.896 106.004 239.252 107.805 240.086C101.022 239.1 94.1959 239.656 87.389 239.535C86.5403 239.52 85.6432 239.294 84.8616 239.968C84.5424 240.243 84.1379 240.087 83.9211 239.626C83.6324 239.011 83.3178 238.448 83.3238 237.708C83.3604 233.204 83.343 228.701 83.3419 224.198C83.3419 223.655 83.2985 223.1 83.886 222.786Z" fill="#2E0A09"/>
<path d="M198.595 214.235C199.031 213.921 199.457 213.646 200.049 213.657C201.705 213.69 203.364 213.627 205.019 213.692C205.698 213.718 206.463 213.951 206.442 214.842C206.421 215.769 205.734 216.021 204.912 216.014C203.304 216.001 201.696 216.009 200.089 215.971C199.775 215.963 199.511 215.885 199.428 216.286C198.921 215.696 198.677 214.999 198.595 214.235Z" fill="#E9AE7B"/>
<path d="M150.593 208.402C150.616 215.101 150.655 221.801 150.659 228.5C150.665 238.038 150.646 247.575 150.637 257.112C150.172 256.672 150.358 256.099 150.357 255.584C150.346 240.323 150.345 225.062 150.349 209.801C150.349 209.327 150.203 208.813 150.593 208.402Z" fill="#101015"/>
<path d="M85.4553 221.333C85.0566 221.864 84.5707 222.288 83.9629 222.565C84.1402 221.767 84.5695 221.273 85.4553 221.333Z" fill="#2E0A09"/>
<path d="M170.719 141.155C170.708 144.33 167.989 146.967 164.764 146.933C161.687 146.901 159.237 144.29 159.261 141.07C159.285 137.931 161.944 135.269 165.073 135.25C168.165 135.232 170.73 137.915 170.719 141.155Z" fill="#360A02"/>
<path d="M120.969 141.092C120.981 144.269 118.429 146.845 115.204 146.911C112.12 146.975 109.588 144.321 109.561 141C109.535 137.9 112.288 135.189 115.406 135.241C118.499 135.293 120.957 137.877 120.969 141.092Z" fill="#380A03"/>
<path d="M182.08 153.283C182.451 156.096 178.884 158.63 175.367 158.065C174.063 157.855 172.788 157.499 171.872 156.455C170.208 154.56 169.913 152.85 170.903 151.133C172.072 149.105 174.747 147.802 177.01 148.199C178.011 148.374 178.99 148.608 179.863 149.21C181.325 150.218 182.287 151.457 182.08 153.283Z" fill="#FE8F8B"/>
<path d="M109.805 153.349C110.169 155.542 107.776 157.607 105.891 157.866C104.571 158.048 103.304 158.188 101.989 157.841C100.113 157.346 98.8613 156.154 98.4413 154.34C98.016 152.503 98.3097 150.791 100.098 149.568C102.622 147.842 105.377 147.71 107.706 149.279C109.18 150.272 109.867 151.599 109.805 153.349Z" fill="#FD908B"/>
<path d="M140.341 146.363C141.712 146.314 143.08 146.306 144.421 146.672C147.107 147.403 149.093 149.728 149.022 152.081C148.95 154.453 146.777 157.113 144.237 157.532C142.788 157.77 142.659 158.437 142.847 159.592C142.997 160.511 143.084 161.435 143.572 162.259C144.634 164.049 146.063 165.358 148.266 165.213C150.393 165.074 151.879 163.876 152.751 161.922C153.528 160.177 154.312 159.707 155.514 160.23C156.616 160.709 157.098 162.17 156.535 163.651C155.378 166.695 153.205 168.705 150.033 169.432C149.018 169.665 148.884 170.019 148.902 170.933C148.986 175.174 146.913 178.542 143.441 179.977C137.884 182.273 131.815 178.458 131.473 172.452C131.464 172.305 131.442 172.156 131.461 172.012C131.655 170.508 131.299 169.683 129.549 169.221C126.766 168.487 124.911 166.434 123.833 163.735C123.569 163.073 123.494 162.391 123.66 161.719C123.891 160.782 124.494 160.189 125.501 160.1C126.432 160.018 127.129 160.331 127.453 161.271C127.548 161.547 127.655 161.821 127.779 162.085C128.78 164.228 130.878 165.512 132.919 165.238C135.229 164.928 137.023 163.227 137.479 160.886C137.581 160.36 137.601 159.818 137.687 159.288C137.846 158.305 137.527 157.925 136.459 157.682C132.162 156.701 130.203 152.156 132.591 148.901C133.88 147.144 135.799 146.58 137.845 146.376C138.669 146.294 139.508 146.363 140.341 146.363Z" fill="#370902"/>
<path d="M187.457 217.752C187.457 221.082 187.418 224.412 187.476 227.741C187.5 229.118 186.879 229.796 185.618 230.131C177.114 232.385 168.639 234.743 160.202 237.236C157.929 237.908 157.09 237.269 157.09 234.904C157.09 228.44 157.125 221.976 157.103 215.512C157.098 214.101 157.578 213.195 159 212.804C167.585 210.444 176.161 208.053 184.745 205.69C186.578 205.186 187.431 205.846 187.444 207.763C187.467 211.092 187.45 214.422 187.45 217.752C187.453 217.752 187.455 217.752 187.457 217.752Z" fill="#FDFEFE"/>
<path d="M144.945 170.551C144.813 172.192 144.643 173.711 143.391 174.903C141.12 177.064 137.696 176.51 136.26 173.709C135.687 172.591 135.565 171.387 135.463 170.17C135.417 169.622 135.592 169.232 136.131 169.015C137.425 168.494 138.468 167.61 139.41 166.616C139.928 166.068 140.345 166.033 140.828 166.606C141.757 167.704 142.866 168.554 144.232 169.043C145.02 169.325 144.946 169.993 144.945 170.551Z" fill="#FC9588"/>
<path fill-rule="evenodd" clip-rule="evenodd" d="M171.798 216.252C171.784 215.711 171.876 215.193 172.099 214.695C172.402 214.018 172.872 213.602 173.652 213.595C174.38 213.589 174.854 213.977 175.099 214.604C175.307 215.138 175.491 215.71 175.53 216.276C175.626 217.646 174.736 218.85 173.719 218.849C172.532 218.848 171.77 217.818 171.798 216.252ZM168.028 221.82C169.016 221.536 169.535 220.781 169.443 219.688C169.298 218.451 169.047 217.235 167.752 216.675C167.145 216.412 166.469 216.534 166.018 217.092C165.136 218.184 165.341 219.401 165.834 220.545C166.221 221.441 166.949 222.13 168.028 221.82ZM172.585 227.391L172.586 227.391L172.587 227.391C172.81 227.323 173.03 227.255 173.248 227.19C173.568 227.267 173.879 227.348 174.185 227.428C174.861 227.604 175.51 227.773 176.169 227.878C177.162 228.035 178.119 227.898 178.782 226.994C179.404 226.147 179.111 225.335 178.691 224.525C176.358 220.012 172.864 219.458 169.429 223.063C169.059 223.451 168.688 223.848 168.385 224.287C167.779 225.163 167.337 226.118 168.026 227.134C168.743 228.192 169.804 228.206 170.913 227.89C171.477 227.729 172.037 227.558 172.585 227.391ZM179.371 221.833C180.555 221.887 181.528 220.564 181.579 218.832C181.619 217.459 181.058 216.641 180.04 216.59C178.869 216.53 177.771 217.959 177.69 219.647C177.632 220.862 178.343 221.786 179.371 221.833Z" fill="#7D6DFF"/>
</g>
<mask id="path-43-inside-1_1037_2447" fill="white">
<path fill-rule="evenodd" clip-rule="evenodd" d="M139.916 353C141.459 351.491 142.32 349.1 141.5 345C141.562 345.044 141.626 345.09 141.691 345.136C143.648 346.529 146.785 348.763 147.166 353H213C219.627 353 225 358.373 225 365C225 371.627 219.627 377 213 377H67C60.3726 377 55 371.627 55 365C55 358.373 60.3726 353 67 353H139.916Z"/>
</mask>
<path fill-rule="evenodd" clip-rule="evenodd" d="M139.916 353C141.459 351.491 142.32 349.1 141.5 345C141.562 345.044 141.626 345.09 141.691 345.136C143.648 346.529 146.785 348.763 147.166 353H213C219.627 353 225 358.373 225 365C225 371.627 219.627 377 213 377H67C60.3726 377 55 371.627 55 365C55 358.373 60.3726 353 67 353H139.916Z" fill="white"/>
<path d="M141.5 345L142.081 344.186L140.024 342.717L140.519 345.196L141.5 345ZM139.916 353V354H140.324L140.616 353.715L139.916 353ZM141.691 345.136L141.111 345.951L141.111 345.951L141.691 345.136ZM147.166 353L146.17 353.09L146.252 354H147.166V353ZM140.519 345.196C141.295 349.073 140.448 351.081 139.217 352.285L140.616 353.715C142.47 351.901 143.345 349.127 142.481 344.804L140.519 345.196ZM142.271 344.322C142.206 344.275 142.143 344.23 142.081 344.186L140.919 345.814C140.982 345.859 141.046 345.905 141.111 345.951L142.271 344.322ZM148.162 352.91C147.735 348.167 144.201 345.695 142.271 344.322L141.111 345.951C143.095 347.363 145.834 349.358 146.17 353.09L148.162 352.91ZM147.166 354H213V352H147.166V354ZM213 354C219.075 354 224 358.925 224 365H226C226 357.82 220.18 352 213 352V354ZM224 365C224 371.075 219.075 376 213 376V378C220.18 378 226 372.18 226 365H224ZM213 376H67V378H213V376ZM67 376C60.9249 376 56 371.075 56 365H54C54 372.18 59.8203 378 67 378V376ZM56 365C56 358.925 60.9249 354 67 354V352C59.8203 352 54 357.82 54 365H56ZM67 354H139.916V352H67V354Z" fill="#FD9340" mask="url(#path-43-inside-1_1037_2447)"/>
<path d="M72.7881 361.127H68.4814V367.102C69.5798 367.092 70.5072 367.061 71.2637 367.006C72.0202 366.951 72.7835 366.851 73.5537 366.705L73.7041 367.771C72.861 367.931 72.027 368.04 71.2021 368.1C70.3818 368.154 69.361 368.182 68.1396 368.182H67.1689V360.047H72.7881V361.127ZM72.0908 363.287H75.4951V358.912H76.7939V371.189H75.4951V364.367H72.0908V363.287ZM93.2549 365.092H82.085V364.053H93.2549V365.092ZM82.6592 362.521C83.3929 362.467 84.0674 362.341 84.6826 362.146C85.2979 361.945 85.7992 361.694 86.1865 361.394C86.5739 361.088 86.8063 360.758 86.8838 360.402H83.1104V359.363H92.2568V360.402H88.4424C88.5199 360.758 88.7523 361.088 89.1396 361.394C89.527 361.694 90.0306 361.945 90.6504 362.146C91.2702 362.341 91.9515 362.467 92.6943 362.521L92.2705 363.533C91.1995 363.438 90.2539 363.205 89.4336 362.836C88.6178 362.467 88.0277 361.995 87.6631 361.421C87.2985 361.991 86.7083 362.462 85.8926 362.836C85.0768 363.205 84.1357 363.438 83.0693 363.533L82.6592 362.521ZM83.4248 366.076H91.8467V368.961H84.71V370.041H92.1885V371.039H83.4385V368.018H90.5615V367.047H83.4248V366.076ZM104.384 365.516H103.099V362.959H100.556V361.906H103.099V358.912H104.384V365.516ZM94.335 364.764C95.7933 364.404 96.9303 363.875 97.7461 363.178C98.5618 362.48 99.029 361.66 99.1475 360.717H94.9639V359.637H100.542C100.542 361.191 100.05 362.487 99.0654 363.526C98.0811 364.565 96.6683 365.32 94.8271 365.789L94.335 364.764ZM96.3447 366.09H97.6436V367.525H103.099V366.09H104.384V371.012H96.3447V366.09ZM103.099 369.959V368.551H97.6436V369.959H103.099ZM116.196 361.291C116.192 361.997 116.18 362.601 116.162 363.103C116.148 363.599 116.107 364.18 116.039 364.846C115.975 365.511 115.873 366.231 115.731 367.006L114.419 366.869C114.565 366.135 114.672 365.445 114.74 364.798C114.809 364.146 114.85 363.572 114.863 363.075C114.882 362.578 114.893 361.984 114.897 361.291V361.141H107.46V360.088H116.196V361.291ZM106.284 368.428H110.536V364.107H111.821V368.428H117.454V369.508H106.284V368.428ZM131.427 362.562H133.204V363.656H131.427V367.908H130.128V358.898H131.427V362.562ZM121.993 362.795C121.989 362.212 122.128 361.69 122.41 361.229C122.697 360.765 123.089 360.402 123.586 360.143C124.083 359.878 124.636 359.746 125.247 359.746C125.858 359.746 126.411 359.878 126.908 360.143C127.405 360.402 127.795 360.765 128.077 361.229C128.364 361.69 128.51 362.212 128.515 362.795C128.51 363.378 128.364 363.902 128.077 364.367C127.795 364.832 127.405 365.194 126.908 365.454C126.411 365.714 125.858 365.844 125.247 365.844C124.636 365.844 124.083 365.714 123.586 365.454C123.089 365.194 122.697 364.832 122.41 364.367C122.128 363.902 121.989 363.378 121.993 362.795ZM123.265 362.795C123.26 363.169 123.344 363.501 123.518 363.793C123.691 364.08 123.928 364.306 124.229 364.47C124.534 364.629 124.873 364.709 125.247 364.709C125.621 364.709 125.958 364.629 126.259 364.47C126.564 364.306 126.803 364.08 126.977 363.793C127.154 363.501 127.243 363.169 127.243 362.795C127.243 362.421 127.154 362.091 126.977 361.804C126.803 361.512 126.564 361.286 126.259 361.127C125.958 360.963 125.621 360.881 125.247 360.881C124.873 360.881 124.534 360.963 124.229 361.127C123.928 361.286 123.691 361.512 123.518 361.804C123.344 362.091 123.26 362.421 123.265 362.795ZM123.661 366.965H124.96V369.85H131.946V370.902H123.661V366.965ZM144.114 367.895H142.815V363.287H140.478V362.234H142.815V358.926H144.114V367.895ZM133.915 365.338C134.53 365.128 135.068 364.823 135.528 364.422C135.993 364.016 136.349 363.551 136.595 363.027C136.841 362.503 136.964 361.961 136.964 361.4V360.922H134.312V359.855H140.915V360.922H138.29V361.4C138.285 361.911 138.402 362.41 138.639 362.897C138.88 363.385 139.224 363.82 139.671 364.203C140.118 364.586 140.642 364.878 141.243 365.078L140.573 366.117C139.899 365.88 139.311 365.529 138.81 365.064C138.308 364.6 137.921 364.057 137.647 363.438C137.379 364.121 136.98 364.72 136.451 365.235C135.927 365.75 135.305 366.135 134.585 366.391L133.915 365.338ZM136.157 367.088H137.456V369.85H144.442V370.902H136.157V367.088ZM155.626 362.863H157.403V363.943H155.626V368.086H154.327V358.926H155.626V362.863ZM146.015 360.348H149.022V358.912H150.321V360.348H153.315V361.4H146.015V360.348ZM146.685 364.299C146.685 363.839 146.808 363.433 147.054 363.082C147.304 362.731 147.655 362.462 148.106 362.275C148.558 362.084 149.077 361.988 149.665 361.988C150.248 361.988 150.763 362.084 151.21 362.275C151.661 362.462 152.01 362.731 152.256 363.082C152.507 363.433 152.632 363.839 152.632 364.299C152.632 364.755 152.507 365.156 152.256 365.502C152.01 365.848 151.661 366.117 151.21 366.309C150.763 366.5 150.248 366.596 149.665 366.596C149.077 366.596 148.558 366.5 148.106 366.309C147.655 366.117 147.304 365.848 147.054 365.502C146.808 365.156 146.685 364.755 146.685 364.299ZM147.86 367.361H149.159V369.85H156.146V370.902H147.86V367.361ZM147.942 364.299C147.938 364.559 148.006 364.786 148.147 364.982C148.289 365.174 148.487 365.322 148.742 365.427C149.002 365.532 149.303 365.584 149.645 365.584C150.173 365.584 150.599 365.47 150.923 365.242C151.246 365.014 151.41 364.7 151.415 364.299C151.41 363.898 151.249 363.581 150.93 363.349C150.611 363.112 150.189 362.991 149.665 362.986C149.319 362.986 149.013 363.041 148.749 363.15C148.489 363.255 148.289 363.408 148.147 363.608C148.006 363.804 147.938 364.035 147.942 364.299ZM172.005 367.32H170.774V358.912H172.005V367.32ZM161.45 364.695C161.951 364.695 162.343 364.693 162.626 364.688V360.99H161.669V359.924H167.397V360.99H166.399V364.545C166.851 364.508 167.27 364.467 167.657 364.422L167.712 365.393C166.851 365.548 165.905 365.648 164.875 365.693C163.845 365.739 162.749 365.762 161.587 365.762L161.45 364.695ZM163.063 370.096C163.829 370 164.526 369.809 165.155 369.521C165.784 369.234 166.281 368.881 166.646 368.462C167.01 368.038 167.192 367.589 167.192 367.115V366.746H168.491V367.115C168.491 367.589 168.676 368.038 169.045 368.462C169.414 368.881 169.915 369.234 170.549 369.521C171.187 369.809 171.891 370 172.661 370.096L172.169 371.107C171.203 370.971 170.335 370.69 169.564 370.267C168.799 369.847 168.227 369.33 167.849 368.715C167.47 369.33 166.898 369.847 166.133 370.267C165.367 370.69 164.499 370.971 163.528 371.107L163.063 370.096ZM163.829 364.668C164.467 364.65 164.932 364.634 165.224 364.62V360.99H163.829V364.668ZM167.001 362.262H168.478V359.172H169.694V366.199H168.478V363.314H167.001V362.262ZM186.579 363.697H188.548V364.791H186.579V371.189H185.294V358.912H186.579V363.697ZM177.515 360.02H183.12V364.518H178.827V367.17C179.962 367.165 180.942 367.136 181.767 367.081C182.596 367.022 183.435 366.915 184.282 366.76L184.405 367.812C183.498 367.981 182.603 368.097 181.719 368.161C180.839 368.22 179.78 368.255 178.54 368.264H177.542V363.465H181.835V361.072H177.515V360.02ZM199.28 371.189H197.981V358.912H199.28V371.189ZM189.56 364.121C189.56 363.264 189.694 362.512 189.963 361.865C190.232 361.214 190.605 360.712 191.084 360.361C191.567 360.006 192.116 359.828 192.731 359.828C193.338 359.828 193.88 360.006 194.358 360.361C194.837 360.712 195.211 361.214 195.479 361.865C195.753 362.512 195.89 363.264 195.89 364.121C195.89 364.987 195.753 365.746 195.479 366.397C195.211 367.049 194.837 367.55 194.358 367.901C193.88 368.252 193.338 368.428 192.731 368.428C192.116 368.428 191.567 368.252 191.084 367.901C190.605 367.55 190.232 367.049 189.963 366.397C189.694 365.746 189.56 364.987 189.56 364.121ZM190.817 364.121C190.817 364.759 190.897 365.315 191.057 365.789C191.216 366.263 191.439 366.628 191.727 366.883C192.018 367.138 192.353 367.266 192.731 367.266C193.105 367.266 193.436 367.138 193.723 366.883C194.01 366.628 194.233 366.263 194.393 365.789C194.552 365.315 194.632 364.759 194.632 364.121C194.632 363.492 194.552 362.943 194.393 362.474C194.233 362 194.01 361.635 193.723 361.38C193.436 361.12 193.105 360.99 192.731 360.99C192.353 360.99 192.018 361.12 191.727 361.38C191.439 361.635 191.216 362 191.057 362.474C190.897 362.943 190.817 363.492 190.817 364.121ZM212.446 369.631H201.235V368.537H212.446V369.631ZM202.192 360.088H211.421V361.154H209.548V365.242H211.38V366.281H202.22V365.242H204.052V361.154H202.192V360.088ZM208.276 365.242V361.154H205.337V365.242H208.276Z" fill="#390A03"/>
<path d="M94.5469 328.594H87.8438V318.891H80.4844V326.391H59.8594V306.609H80.4844V313.453H87.8438V303.469H94.5469V328.594ZM64.8281 338.016C64.8281 336.266 65.4219 334.758 66.6094 333.492C67.8125 332.227 69.5312 331.266 71.7656 330.609C74 329.953 76.6406 329.625 79.6875 329.625C82.7812 329.625 85.4453 329.953 87.6797 330.609C89.9297 331.266 91.6562 332.227 92.8594 333.492C94.0781 334.758 94.6875 336.266 94.6875 338.016C94.6875 339.812 94.0859 341.344 92.8828 342.609C91.6797 343.875 89.9531 344.828 87.7031 345.469C85.4688 346.125 82.7969 346.453 79.6875 346.453C76.625 346.453 73.9766 346.125 71.7422 345.469C69.5234 344.828 67.8125 343.875 66.6094 342.609C65.4219 341.344 64.8281 339.812 64.8281 338.016ZM73.875 321.047V311.906H66.5625V321.047H73.875ZM71.5312 338.016C71.5312 339.141 72.2109 339.977 73.5703 340.523C74.9453 341.07 76.9844 341.344 79.6875 341.344C82.4531 341.344 84.5234 341.07 85.8984 340.523C87.2734 339.977 87.9688 339.141 87.9844 338.016C87.9688 336.938 87.2734 336.141 85.8984 335.625C84.5234 335.094 82.4531 334.812 79.6875 334.781C76.9688 334.812 74.9297 335.094 73.5703 335.625C72.2109 336.141 71.5312 336.938 71.5312 338.016ZM138.891 334.266H122.531V346.5H115.781V334.266H99.5625V328.781H138.891V334.266ZM104.391 305.109H134.344V310.406H111V312.984H133.453V318.141H111V320.766H134.812V326.062H104.391V305.109ZM178.5 346.5H172.031V303.469H178.5V346.5ZM142.266 308.203H158.812V313.594H148.875V331.57C151.047 331.539 153.016 331.445 154.781 331.289C156.547 331.133 158.344 330.875 160.172 330.516L160.641 336C158.484 336.438 156.305 336.734 154.102 336.891C151.898 337.047 149.281 337.125 146.25 337.125H145.312H142.266V308.203ZM155.859 318.938H163.031V304.125H169.266V344.625H163.031V324.422H155.859V318.938ZM218.719 346.594H211.922V303.469H218.719V346.594ZM183.703 321.797C183.703 318.719 184.195 316.016 185.18 313.688C186.18 311.359 187.555 309.57 189.305 308.32C191.055 307.055 193.031 306.422 195.234 306.422C197.406 306.422 199.359 307.055 201.094 308.32C202.828 309.57 204.188 311.359 205.172 313.688C206.172 316.016 206.672 318.719 206.672 321.797C206.672 324.922 206.172 327.656 205.172 330C204.188 332.344 202.828 334.148 201.094 335.414C199.359 336.68 197.406 337.312 195.234 337.312C193.031 337.312 191.055 336.68 189.305 335.414C187.555 334.148 186.18 332.344 185.18 330C184.195 327.656 183.703 324.922 183.703 321.797ZM190.266 321.797C190.25 324.844 190.688 327.172 191.578 328.781C192.469 330.375 193.688 331.172 195.234 331.172C196.734 331.172 197.922 330.375 198.797 328.781C199.688 327.172 200.141 324.844 200.156 321.797C200.156 319.797 199.945 318.102 199.523 316.711C199.117 315.305 198.547 314.25 197.812 313.547C197.078 312.844 196.219 312.5 195.234 312.516C194.219 312.5 193.336 312.844 192.586 313.547C191.836 314.25 191.258 315.305 190.852 316.711C190.445 318.102 190.25 319.797 190.266 321.797Z" fill="white"/>
<defs>
<clipPath id="clip0_1037_2447">
<rect width="200" height="184" fill="white" transform="translate(40 86)"/>
</clipPath>
</defs>
</svg>
