<svg width="24" height="24" viewBox="0 0 24 24" fill="none" xmlns="http://www.w3.org/2000/svg">
<path fill-rule="evenodd" clip-rule="evenodd" d="M8.30005 4.99932C8.30005 3.50815 9.50888 2.29932 11 2.29932H13C14.4912 2.29932 15.7 3.50815 15.7 4.99932V6.29932H21C21.3867 6.29932 21.7001 6.61272 21.7001 6.99932C21.7001 7.38592 21.3867 7.69932 21 7.69932H19.7V18.9991C19.7 20.4902 18.4912 21.6991 17 21.6991H7.00005C5.50888 21.6991 4.30005 20.4902 4.30005 18.9991V7.69932H3.00005C2.61345 7.69932 2.30005 7.38592 2.30005 6.99932C2.30005 6.61272 2.61345 6.29932 3.00005 6.29932H8.30005V4.99932ZM5.70005 7.69932V18.9991C5.70005 19.717 6.28208 20.2991 7.00005 20.2991H17C17.718 20.2991 18.3 19.717 18.3 18.9991V7.69932H5.70005ZM14.3 4.99932V6.29932H9.70005V4.99932C9.70005 4.28135 10.2821 3.69932 11 3.69932H13C13.718 3.69932 14.3 4.28135 14.3 4.99932Z" fill="white"/>
<path fill-rule="evenodd" clip-rule="evenodd" d="M10.0001 11.5998C10.0001 11.2316 9.7016 10.9331 9.33341 10.9331C8.96522 10.9331 8.66675 11.2316 8.66675 11.5998V16.3998C8.66675 16.768 8.96523 17.0664 9.33341 17.0664C9.7016 17.0664 10.0001 16.768 10.0001 16.3998L10.0001 11.5998ZM15.3334 11.5998C15.3334 11.2316 15.0349 10.9331 14.6667 10.9331C14.2986 10.9331 14.0001 11.2316 14.0001 11.5998V16.3998C14.0001 16.768 14.2986 17.0664 14.6667 17.0664C15.0349 17.0664 15.3334 16.768 15.3334 16.3998L15.3334 11.5998Z" fill="white"/>
</svg>
